<svg width="412" height="80" viewBox="0 0 412 80" fill="none" xmlns="http://www.w3.org/2000/svg">
<rect width="412" height="80" fill="#242A30"/>
<g clip-path="url(#clip0_1_910)">
<path d="M34 44.12C33.24 44.12 32.56 44.42 32.04 44.89L24.91 40.74C24.96 40.51 25 40.28 25 40.04C25 39.8 24.96 39.57 24.91 39.34L31.96 35.23C32.5 35.73 33.21 36.04 34 36.04C35.66 36.04 37 34.7 37 33.04C37 31.38 35.66 30.04 34 30.04C32.34 30.04 31 31.38 31 33.04C31 33.28 31.04 33.51 31.09 33.74L24.04 37.85C23.5 37.35 22.79 37.04 22 37.04C20.34 37.04 19 38.38 19 40.04C19 41.7 20.34 43.04 22 43.04C22.79 43.04 23.5 42.73 24.04 42.23L31.16 46.39C31.11 46.6 31.08 46.82 31.08 47.04C31.08 48.65 32.39 49.96 34 49.96C35.61 49.96 36.92 48.65 36.92 47.04C36.92 45.43 35.61 44.12 34 44.12ZM34 32.04C34.55 32.04 35 32.49 35 33.04C35 33.59 34.55 34.04 34 34.04C33.45 34.04 33 33.59 33 33.04C33 32.49 33.45 32.04 34 32.04ZM22 41.04C21.45 41.04 21 40.59 21 40.04C21 39.49 21.45 39.04 22 39.04C22.55 39.04 23 39.49 23 40.04C23 40.59 22.55 41.04 22 41.04ZM34 48.06C33.45 48.06 33 47.61 33 47.06C33 46.51 33.45 46.06 34 46.06C34.55 46.06 35 46.51 35 47.06C35 47.61 34.55 48.06 34 48.06Z" fill="#C3C6CF"/>
</g>
<g clip-path="url(#clip1_1_910)">
<path d="M88.5 30.825C86.76 30.825 85.09 31.635 84 32.915C82.91 31.635 81.24 30.825 79.5 30.825C76.42 30.825 74 33.245 74 36.325C74 40.105 77.4 43.185 82.55 47.865L84 49.175L85.45 47.855C90.6 43.185 94 40.105 94 36.325C94 33.245 91.58 30.825 88.5 30.825ZM84.1 46.375L84 46.475L83.9 46.375C79.14 42.065 76 39.215 76 36.325C76 34.325 77.5 32.825 79.5 32.825C81.04 32.825 82.54 33.815 83.07 35.185H84.94C85.46 33.815 86.96 32.825 88.5 32.825C90.5 32.825 92 34.325 92 36.325C92 39.215 88.86 42.065 84.1 46.375Z" fill="#C3C6CF"/>
</g>
<g clip-path="url(#clip2_1_910)">
<g filter="url(#filter0_dd_1_910)">
<g clip-path="url(#clip3_1_910)">
<rect x="340" y="12" width="56" height="56" rx="16" fill="#004883"/>
<path d="M367.92 37.5H369.92V34.5H372.92V32.5H369.92V29.5H367.92V32.5H364.92V34.5H367.92V37.5ZM363.92 46.5C362.82 46.5 361.93 47.4 361.93 48.5C361.93 49.6 362.82 50.5 363.92 50.5C365.02 50.5 365.92 49.6 365.92 48.5C365.92 47.4 365.02 46.5 363.92 46.5ZM373.92 46.5C372.82 46.5 371.93 47.4 371.93 48.5C371.93 49.6 372.82 50.5 373.92 50.5C375.02 50.5 375.92 49.6 375.92 48.5C375.92 47.4 375.02 46.5 373.92 46.5ZM365.02 41.5H372.47C373.22 41.5 373.88 41.09 374.22 40.47L378.08 33.46L376.34 32.5L372.47 39.5H365.45L361.19 30.5H357.92V32.5H359.92L363.52 40.09L362.17 42.53C361.44 43.87 362.4 45.5 363.92 45.5H375.92V43.5H363.92L365.02 41.5Z" fill="#D4E3FF"/>
</g>
</g>
</g>
<defs>
<filter id="filter0_dd_1_910" x="329" y="5" width="78" height="78" filterUnits="userSpaceOnUse" color-interpolation-filters="sRGB">
<feFlood flood-opacity="0" result="BackgroundImageFix"/>
<feColorMatrix in="SourceAlpha" type="matrix" values="0 0 0 0 0 0 0 0 0 0 0 0 0 0 0 0 0 0 127 0" result="hardAlpha"/>
<feOffset dy="1"/>
<feGaussianBlur stdDeviation="1.5"/>
<feColorMatrix type="matrix" values="0 0 0 0 0 0 0 0 0 0 0 0 0 0 0 0 0 0 0.3 0"/>
<feBlend mode="normal" in2="BackgroundImageFix" result="effect1_dropShadow_1_910"/>
<feColorMatrix in="SourceAlpha" type="matrix" values="0 0 0 0 0 0 0 0 0 0 0 0 0 0 0 0 0 0 127 0" result="hardAlpha"/>
<feMorphology radius="3" operator="dilate" in="SourceAlpha" result="effect2_dropShadow_1_910"/>
<feOffset dy="4"/>
<feGaussianBlur stdDeviation="4"/>
<feColorMatrix type="matrix" values="0 0 0 0 0 0 0 0 0 0 0 0 0 0 0 0 0 0 0.15 0"/>
<feBlend mode="normal" in2="effect1_dropShadow_1_910" result="effect2_dropShadow_1_910"/>
<feBlend mode="normal" in="SourceGraphic" in2="effect2_dropShadow_1_910" result="shape"/>
</filter>
<clipPath id="clip0_1_910">
<rect x="8" y="20" width="40" height="40" rx="20" fill="white"/>
</clipPath>
<clipPath id="clip1_1_910">
<rect x="64" y="20" width="40" height="40" rx="20" fill="white"/>
</clipPath>
<clipPath id="clip2_1_910">
<rect x="340" y="12" width="56" height="56" rx="16" fill="white"/>
</clipPath>
<clipPath id="clip3_1_910">
<rect x="340" y="12" width="56" height="56" rx="16" fill="white"/>
</clipPath>
</defs>
</svg>
