<svg width="97" height="16" viewBox="0 0 97 16" fill="none" xmlns="http://www.w3.org/2000/svg">
<path d="M11.6667 5.66668H9.91668V3.33334H1.75001C1.10834 3.33334 0.583344 3.85834 0.583344 4.50001V10.9167H1.75001C1.75001 11.885 2.53168 12.6667 3.50001 12.6667C4.46834 12.6667 5.25001 11.885 5.25001 10.9167H8.75001C8.75001 11.885 9.53168 12.6667 10.5 12.6667C11.4683 12.6667 12.25 11.885 12.25 10.9167H13.4167V8.00001L11.6667 5.66668ZM3.50001 11.7917C3.01584 11.7917 2.62501 11.4008 2.62501 10.9167C2.62501 10.4325 3.01584 10.0417 3.50001 10.0417C3.98418 10.0417 4.37501 10.4325 4.37501 10.9167C4.37501 11.4008 3.98418 11.7917 3.50001 11.7917ZM11.375 6.54168L12.5183 8.00001H9.91668V6.54168H11.375ZM10.5 11.7917C10.0158 11.7917 9.62501 11.4008 9.62501 10.9167C9.62501 10.4325 10.0158 10.0417 10.5 10.0417C10.9842 10.0417 11.375 10.4325 11.375 10.9167C11.375 11.4008 10.9842 11.7917 10.5 11.7917Z" fill="#195FA7"/>
<path d="M25.9414 9.60156C25.9414 9.44531 25.9154 9.30599 25.8633 9.18359C25.8112 9.0612 25.7253 8.95182 25.6055 8.85547C25.4883 8.75651 25.3294 8.66536 25.1289 8.58203C24.931 8.49609 24.6836 8.41146 24.3867 8.32812C24.1029 8.2474 23.8464 8.15885 23.6172 8.0625C23.388 7.96615 23.1914 7.85547 23.0273 7.73047C22.8659 7.60547 22.7422 7.45964 22.6562 7.29297C22.5703 7.1237 22.5273 6.92708 22.5273 6.70312C22.5273 6.48438 22.5742 6.28516 22.668 6.10547C22.7617 5.92578 22.8932 5.77083 23.0625 5.64062C23.2344 5.51042 23.4362 5.41016 23.668 5.33984C23.9023 5.26953 24.1589 5.23438 24.4375 5.23438C24.8359 5.23438 25.1797 5.3099 25.4688 5.46094C25.7604 5.61198 25.9857 5.81641 26.1445 6.07422C26.306 6.32943 26.3867 6.61589 26.3867 6.93359H25.9062C25.9062 6.6862 25.8477 6.46615 25.7305 6.27344C25.6159 6.07812 25.4492 5.92578 25.2305 5.81641C25.0143 5.70443 24.75 5.64844 24.4375 5.64844C24.125 5.64844 23.862 5.69661 23.6484 5.79297C23.4375 5.88672 23.2773 6.01302 23.168 6.17188C23.0612 6.32812 23.0078 6.5026 23.0078 6.69531C23.0078 6.83073 23.0339 6.95573 23.0859 7.07031C23.138 7.18229 23.2227 7.28776 23.3398 7.38672C23.4596 7.48307 23.6172 7.57422 23.8125 7.66016C24.0078 7.74349 24.2487 7.82292 24.5352 7.89844C24.8372 7.98177 25.1055 8.07422 25.3398 8.17578C25.5742 8.27734 25.7721 8.39453 25.9336 8.52734C26.0951 8.65755 26.2174 8.8099 26.3008 8.98438C26.3841 9.15885 26.4258 9.36198 26.4258 9.59375C26.4258 9.82552 26.3763 10.0339 26.2773 10.2188C26.181 10.401 26.0443 10.556 25.8672 10.6836C25.6927 10.8112 25.4857 10.9089 25.2461 10.9766C25.0091 11.0443 24.75 11.0781 24.4688 11.0781C24.2161 11.0781 23.9648 11.0456 23.7148 10.9805C23.4648 10.9154 23.2357 10.8151 23.0273 10.6797C22.8216 10.5417 22.6562 10.3646 22.5312 10.1484C22.4089 9.93229 22.3477 9.67448 22.3477 9.375H22.8242C22.8242 9.61458 22.8724 9.81641 22.9688 9.98047C23.0651 10.1445 23.1927 10.2773 23.3516 10.3789C23.513 10.4805 23.6901 10.5547 23.8828 10.6016C24.0781 10.6458 24.2734 10.668 24.4688 10.668C24.7682 10.668 25.0273 10.6237 25.2461 10.5352C25.4674 10.4466 25.638 10.3229 25.7578 10.1641C25.8802 10.0026 25.9414 9.8151 25.9414 9.60156ZM28.2203 5V11H27.7555V5H28.2203ZM28.1148 8.625L27.9078 8.50781C27.9234 8.25781 27.9742 8.02344 28.0602 7.80469C28.1461 7.58594 28.262 7.39323 28.4078 7.22656C28.5563 7.0599 28.7294 6.92969 28.9273 6.83594C29.1279 6.74219 29.3492 6.69531 29.5914 6.69531C29.8023 6.69531 29.9911 6.72396 30.1578 6.78125C30.3245 6.83854 30.4664 6.92969 30.5836 7.05469C30.7008 7.17969 30.7893 7.33984 30.8492 7.53516C30.9117 7.73047 30.943 7.96875 30.943 8.25V11H30.4742V8.24609C30.4742 7.95443 30.4339 7.72656 30.3531 7.5625C30.2724 7.39583 30.1578 7.27734 30.0094 7.20703C29.8609 7.13672 29.6852 7.10156 29.482 7.10156C29.2581 7.10156 29.0615 7.15104 28.8922 7.25C28.7255 7.34635 28.5849 7.47266 28.4703 7.62891C28.3583 7.78255 28.2724 7.94792 28.2125 8.125C28.1526 8.29948 28.1201 8.46615 28.1148 8.625ZM33.0656 6.77344V11H32.6008V6.77344H33.0656ZM32.5188 5.55078C32.5188 5.46224 32.5461 5.38802 32.6008 5.32812C32.6581 5.26562 32.7362 5.23438 32.8352 5.23438C32.9341 5.23438 33.0122 5.26562 33.0695 5.32812C33.1294 5.38802 33.1594 5.46224 33.1594 5.55078C33.1594 5.63672 33.1294 5.71094 33.0695 5.77344C33.0122 5.83333 32.9341 5.86328 32.8352 5.86328C32.7362 5.86328 32.6581 5.83333 32.6008 5.77344C32.5461 5.71094 32.5188 5.63672 32.5188 5.55078ZM35.2039 7.58594V12.625H34.7352V6.77344H35.1727L35.2039 7.58594ZM38.1414 8.84766V8.92969C38.1414 9.24479 38.1049 9.53385 38.032 9.79688C37.9591 10.0599 37.8536 10.2878 37.7156 10.4805C37.5802 10.6706 37.4122 10.8177 37.2117 10.9219C37.0112 11.026 36.7833 11.0781 36.5281 11.0781C36.2755 11.0781 36.0503 11.0391 35.8523 10.9609C35.6544 10.8828 35.4839 10.7721 35.3406 10.6289C35.2 10.4831 35.0867 10.3138 35.0008 10.1211C34.9174 9.92578 34.8589 9.71224 34.825 9.48047V8.39844C34.8641 8.14323 34.9279 7.91146 35.0164 7.70312C35.1049 7.49479 35.2182 7.3151 35.3562 7.16406C35.4969 7.01302 35.6635 6.89714 35.8562 6.81641C36.049 6.73568 36.269 6.69531 36.5164 6.69531C36.7742 6.69531 37.0034 6.74609 37.2039 6.84766C37.407 6.94661 37.5776 7.09115 37.7156 7.28125C37.8562 7.46875 37.9617 7.69531 38.032 7.96094C38.1049 8.22396 38.1414 8.51953 38.1414 8.84766ZM37.6727 8.92969V8.84766C37.6727 8.60026 37.6466 8.37109 37.5945 8.16016C37.5451 7.94922 37.4682 7.76562 37.3641 7.60938C37.2625 7.45052 37.1323 7.32682 36.9734 7.23828C36.8172 7.14974 36.631 7.10547 36.4148 7.10547C36.1909 7.10547 35.9995 7.14323 35.8406 7.21875C35.6844 7.29167 35.5542 7.38932 35.45 7.51172C35.3458 7.63151 35.2638 7.76302 35.2039 7.90625C35.144 8.04948 35.0997 8.1901 35.0711 8.32812V9.57422C35.1206 9.77214 35.2 9.95573 35.3094 10.125C35.4187 10.2917 35.5646 10.4258 35.7469 10.5273C35.9318 10.6263 36.157 10.6758 36.4227 10.6758C36.6362 10.6758 36.8211 10.6315 36.9773 10.543C37.1336 10.4544 37.2625 10.3307 37.3641 10.1719C37.4682 10.013 37.5451 9.82812 37.5945 9.61719C37.6466 9.40625 37.6727 9.17708 37.6727 8.92969ZM40.0414 7.58594V12.625H39.5727V6.77344H40.0102L40.0414 7.58594ZM42.9789 8.84766V8.92969C42.9789 9.24479 42.9424 9.53385 42.8695 9.79688C42.7966 10.0599 42.6911 10.2878 42.5531 10.4805C42.4177 10.6706 42.2497 10.8177 42.0492 10.9219C41.8487 11.026 41.6208 11.0781 41.3656 11.0781C41.113 11.0781 40.8878 11.0391 40.6898 10.9609C40.4919 10.8828 40.3214 10.7721 40.1781 10.6289C40.0375 10.4831 39.9242 10.3138 39.8383 10.1211C39.7549 9.92578 39.6964 9.71224 39.6625 9.48047V8.39844C39.7016 8.14323 39.7654 7.91146 39.8539 7.70312C39.9424 7.49479 40.0557 7.3151 40.1938 7.16406C40.3344 7.01302 40.501 6.89714 40.6938 6.81641C40.8865 6.73568 41.1065 6.69531 41.3539 6.69531C41.6117 6.69531 41.8409 6.74609 42.0414 6.84766C42.2445 6.94661 42.4151 7.09115 42.5531 7.28125C42.6938 7.46875 42.7992 7.69531 42.8695 7.96094C42.9424 8.22396 42.9789 8.51953 42.9789 8.84766ZM42.5102 8.92969V8.84766C42.5102 8.60026 42.4841 8.37109 42.432 8.16016C42.3826 7.94922 42.3057 7.76562 42.2016 7.60938C42.1 7.45052 41.9698 7.32682 41.8109 7.23828C41.6547 7.14974 41.4685 7.10547 41.2523 7.10547C41.0284 7.10547 40.837 7.14323 40.6781 7.21875C40.5219 7.29167 40.3917 7.38932 40.2875 7.51172C40.1833 7.63151 40.1013 7.76302 40.0414 7.90625C39.9815 8.04948 39.9372 8.1901 39.9086 8.32812V9.57422C39.9581 9.77214 40.0375 9.95573 40.1469 10.125C40.2563 10.2917 40.4021 10.4258 40.5844 10.5273C40.7693 10.6263 40.9945 10.6758 41.2602 10.6758C41.4737 10.6758 41.6586 10.6315 41.8148 10.543C41.9711 10.4544 42.1 10.3307 42.2016 10.1719C42.3057 10.013 42.3826 9.82812 42.432 9.61719C42.4841 9.40625 42.5102 9.17708 42.5102 8.92969ZM44.9375 6.77344V11H44.4727V6.77344H44.9375ZM44.3906 5.55078C44.3906 5.46224 44.418 5.38802 44.4727 5.32812C44.5299 5.26562 44.6081 5.23438 44.707 5.23438C44.806 5.23438 44.8841 5.26562 44.9414 5.32812C45.0013 5.38802 45.0312 5.46224 45.0312 5.55078C45.0312 5.63672 45.0013 5.71094 44.9414 5.77344C44.8841 5.83333 44.806 5.86328 44.707 5.86328C44.6081 5.86328 44.5299 5.83333 44.4727 5.77344C44.418 5.71094 44.3906 5.63672 44.3906 5.55078ZM47.0797 7.67578V11H46.6148V6.77344H47.0602L47.0797 7.67578ZM46.9742 8.625L46.7672 8.50781C46.7828 8.25781 46.8336 8.02344 46.9195 7.80469C47.0055 7.58594 47.1214 7.39323 47.2672 7.22656C47.4156 7.0599 47.5888 6.92969 47.7867 6.83594C47.9872 6.74219 48.2086 6.69531 48.4508 6.69531C48.6617 6.69531 48.8505 6.72396 49.0172 6.78125C49.1839 6.83854 49.3258 6.92969 49.443 7.05469C49.5602 7.17969 49.6487 7.33984 49.7086 7.53516C49.7711 7.73047 49.8023 7.96875 49.8023 8.25V11H49.3336V8.24609C49.3336 7.95443 49.2932 7.72656 49.2125 7.5625C49.1318 7.39583 49.0172 7.27734 48.8687 7.20703C48.7203 7.13672 48.5445 7.10156 48.3414 7.10156C48.1174 7.10156 47.9208 7.15104 47.7516 7.25C47.5849 7.34635 47.4443 7.47266 47.3297 7.62891C47.2177 7.78255 47.1318 7.94792 47.0719 8.125C47.012 8.29948 46.9794 8.46615 46.9742 8.625ZM54.1945 6.77344H54.6281V10.9258C54.6281 11.293 54.5578 11.6081 54.4172 11.8711C54.2792 12.1341 54.0826 12.3359 53.8273 12.4766C53.5747 12.6172 53.2766 12.6875 52.9328 12.6875C52.7583 12.6875 52.5786 12.6602 52.3937 12.6055C52.2115 12.5534 52.0383 12.4727 51.8742 12.3633C51.7128 12.2565 51.5747 12.1237 51.4602 11.9648L51.7219 11.6797C51.8937 11.888 52.0773 12.0404 52.2727 12.1367C52.468 12.2357 52.6789 12.2852 52.9055 12.2852C53.1737 12.2852 53.4003 12.2318 53.5852 12.125C53.7727 12.0182 53.9146 11.8646 54.0109 11.6641C54.1099 11.4635 54.1594 11.2227 54.1594 10.9414V7.70312L54.1945 6.77344ZM51.2258 8.92969V8.84766C51.2258 8.51953 51.2622 8.22396 51.3352 7.96094C51.4107 7.69531 51.5187 7.46875 51.6594 7.28125C51.8 7.09115 51.9706 6.94661 52.1711 6.84766C52.3742 6.74609 52.6034 6.69531 52.8586 6.69531C53.1034 6.69531 53.3208 6.73568 53.5109 6.81641C53.701 6.89714 53.8651 7.01302 54.0031 7.16406C54.1411 7.3151 54.2518 7.49479 54.3352 7.70312C54.4211 7.91146 54.4836 8.14323 54.5227 8.39844V9.44141C54.4914 9.68099 54.4341 9.90104 54.3508 10.1016C54.2674 10.2995 54.1568 10.4727 54.0187 10.6211C53.8807 10.7669 53.7141 10.8802 53.5187 10.9609C53.326 11.0391 53.1034 11.0781 52.8508 11.0781C52.5982 11.0781 52.3716 11.026 52.1711 10.9219C51.9706 10.8177 51.8 10.6706 51.6594 10.4805C51.5187 10.2878 51.4107 10.0599 51.3352 9.79688C51.2622 9.53385 51.2258 9.24479 51.2258 8.92969ZM51.6945 8.84766V8.92969C51.6945 9.17708 51.7193 9.40625 51.7687 9.61719C51.8182 9.82812 51.8937 10.0117 51.9953 10.168C52.0969 10.3242 52.2258 10.4466 52.382 10.5352C52.5383 10.6237 52.7219 10.668 52.9328 10.668C53.201 10.668 53.4263 10.6172 53.6086 10.5156C53.7909 10.4115 53.9354 10.2747 54.0422 10.1055C54.149 9.93359 54.2271 9.74609 54.2766 9.54297V8.32812C54.2479 8.1901 54.2036 8.04948 54.1437 7.90625C54.0865 7.76302 54.0057 7.63151 53.9016 7.51172C53.8 7.38932 53.6698 7.29167 53.5109 7.21875C53.3547 7.14323 53.1646 7.10547 52.9406 7.10547C52.7271 7.10547 52.5409 7.14974 52.382 7.23828C52.2258 7.32682 52.0969 7.45052 51.9953 7.60938C51.8937 7.76562 51.8182 7.94922 51.7687 8.16016C51.7193 8.37109 51.6945 8.60026 51.6945 8.84766ZM60.6703 8.26562H59.0687L59.0609 7.85938H60.4398C60.7211 7.85938 60.9607 7.81901 61.1586 7.73828C61.3565 7.65755 61.5062 7.53776 61.6078 7.37891C61.712 7.21745 61.7641 7.01953 61.7641 6.78516C61.7641 6.54557 61.7133 6.34766 61.6117 6.19141C61.5102 6.03255 61.3578 5.91536 61.1547 5.83984C60.9516 5.76432 60.6964 5.72656 60.3891 5.72656H59.1937V11H58.7133V5.3125H60.3891C60.6781 5.3125 60.9372 5.34115 61.1664 5.39844C61.3956 5.45573 61.5909 5.54557 61.7523 5.66797C61.9138 5.79036 62.0362 5.94531 62.1195 6.13281C62.2055 6.31771 62.2484 6.53906 62.2484 6.79688C62.2484 7.03125 62.1964 7.24349 62.0922 7.43359C61.988 7.62109 61.8409 7.77474 61.6508 7.89453C61.4633 8.01172 61.238 8.08464 60.975 8.11328L60.6703 8.26562ZM60.6352 11H58.9164L59.1625 10.5898H60.6352C60.9164 10.5898 61.156 10.543 61.3539 10.4492C61.5544 10.3529 61.7081 10.2161 61.8148 10.0391C61.9216 9.86198 61.975 9.65104 61.975 9.40625C61.975 9.1901 61.9281 8.99609 61.8344 8.82422C61.7406 8.65234 61.5974 8.51693 61.4047 8.41797C61.212 8.31641 60.9672 8.26562 60.6703 8.26562H59.6742L59.682 7.85938H61.0922L61.1781 8.00391C61.4333 8.02995 61.656 8.10938 61.8461 8.24219C62.0388 8.3724 62.1872 8.53776 62.2914 8.73828C62.3982 8.9388 62.4516 9.15885 62.4516 9.39844C62.4516 9.74219 62.3747 10.0339 62.2211 10.2734C62.0701 10.5104 61.8578 10.6914 61.5844 10.8164C61.3135 10.9388 60.9971 11 60.6352 11ZM65.1641 10.5781L66.4805 6.77344H66.9844L65.1953 11.6797C65.1589 11.776 65.112 11.8828 65.0547 12C65 12.1172 64.9271 12.2292 64.8359 12.3359C64.7474 12.4453 64.6354 12.5339 64.5 12.6016C64.3672 12.6719 64.2044 12.707 64.0117 12.707C63.9622 12.707 63.8984 12.7005 63.8203 12.6875C63.7448 12.6771 63.6901 12.6667 63.6562 12.6562L63.6523 12.2617C63.681 12.2695 63.7227 12.276 63.7773 12.2812C63.832 12.2865 63.8698 12.2891 63.8906 12.2891C64.0599 12.2891 64.2018 12.2604 64.3164 12.2031C64.4336 12.1458 64.5312 12.0599 64.6094 11.9453C64.6875 11.8333 64.7565 11.6927 64.8164 11.5234L65.1641 10.5781ZM63.9336 6.77344L65.2812 10.4023L65.4062 10.8906L65.0664 11.082L63.4258 6.77344H63.9336ZM72.4445 5.65234L70.4758 11H69.9758L72.1242 5.3125H72.4719L72.4445 5.65234ZM74.2336 11L72.2609 5.65234L72.2336 5.3125H72.5812L74.7336 11H74.2336ZM73.882 8.99219V9.40625H70.8625V8.99219H73.882ZM79.1961 9.60156C79.1961 9.44531 79.1701 9.30599 79.118 9.18359C79.0659 9.0612 78.9799 8.95182 78.8602 8.85547C78.743 8.75651 78.5841 8.66536 78.3836 8.58203C78.1857 8.49609 77.9383 8.41146 77.6414 8.32812C77.3576 8.2474 77.101 8.15885 76.8719 8.0625C76.6427 7.96615 76.4461 7.85547 76.282 7.73047C76.1206 7.60547 75.9969 7.45964 75.9109 7.29297C75.825 7.1237 75.782 6.92708 75.782 6.70312C75.782 6.48438 75.8289 6.28516 75.9227 6.10547C76.0164 5.92578 76.1479 5.77083 76.3172 5.64062C76.4891 5.51042 76.6909 5.41016 76.9227 5.33984C77.157 5.26953 77.4135 5.23438 77.6922 5.23438C78.0906 5.23438 78.4344 5.3099 78.7234 5.46094C79.0151 5.61198 79.2404 5.81641 79.3992 6.07422C79.5607 6.32943 79.6414 6.61589 79.6414 6.93359H79.1609C79.1609 6.6862 79.1023 6.46615 78.9852 6.27344C78.8706 6.07812 78.7039 5.92578 78.4852 5.81641C78.269 5.70443 78.0047 5.64844 77.6922 5.64844C77.3797 5.64844 77.1167 5.69661 76.9031 5.79297C76.6922 5.88672 76.532 6.01302 76.4227 6.17188C76.3159 6.32812 76.2625 6.5026 76.2625 6.69531C76.2625 6.83073 76.2885 6.95573 76.3406 7.07031C76.3927 7.18229 76.4773 7.28776 76.5945 7.38672C76.7143 7.48307 76.8719 7.57422 77.0672 7.66016C77.2625 7.74349 77.5034 7.82292 77.7898 7.89844C78.0919 7.98177 78.3602 8.07422 78.5945 8.17578C78.8289 8.27734 79.0268 8.39453 79.1883 8.52734C79.3497 8.65755 79.4721 8.8099 79.5555 8.98438C79.6388 9.15885 79.6805 9.36198 79.6805 9.59375C79.6805 9.82552 79.631 10.0339 79.532 10.2188C79.4357 10.401 79.299 10.556 79.1219 10.6836C78.9474 10.8112 78.7404 10.9089 78.5008 10.9766C78.2638 11.0443 78.0047 11.0781 77.7234 11.0781C77.4708 11.0781 77.2195 11.0456 76.9695 10.9805C76.7195 10.9154 76.4904 10.8151 76.282 10.6797C76.0763 10.5417 75.9109 10.3646 75.7859 10.1484C75.6635 9.93229 75.6023 9.67448 75.6023 9.375H76.0789C76.0789 9.61458 76.1271 9.81641 76.2234 9.98047C76.3198 10.1445 76.4474 10.2773 76.6063 10.3789C76.7677 10.4805 76.9448 10.5547 77.1375 10.6016C77.3328 10.6458 77.5281 10.668 77.7234 10.668C78.0229 10.668 78.282 10.6237 78.5008 10.5352C78.7221 10.4466 78.8927 10.3229 79.0125 10.1641C79.1349 10.0026 79.1961 9.8151 79.1961 9.60156ZM81.0609 5.3125L82.7836 8.41016L84.5219 5.3125H85.0766L83.0258 8.85547V11H82.5453V8.85547L80.4906 5.3125H81.0609ZM87.8086 5.65234L85.8398 11H85.3398L87.4883 5.3125H87.8359L87.8086 5.65234ZM89.5977 11L87.625 5.65234L87.5977 5.3125H87.9453L90.0977 11H89.5977ZM89.2461 8.99219V9.40625H86.2266V8.99219H89.2461ZM92.8961 11H91.607L91.6148 10.5898H92.8961C93.3049 10.5898 93.6565 10.4987 93.9508 10.3164C94.2477 10.1315 94.4768 9.8763 94.6383 9.55078C94.7997 9.22526 94.8805 8.84766 94.8805 8.41797V7.88672C94.8805 7.55859 94.8336 7.26172 94.7398 6.99609C94.6487 6.73047 94.5172 6.50391 94.3453 6.31641C94.1734 6.1263 93.9677 5.98047 93.7281 5.87891C93.4911 5.77734 93.2255 5.72656 92.9313 5.72656H91.5836V5.3125H92.9313C93.2854 5.3125 93.6096 5.3737 93.9039 5.49609C94.2008 5.61589 94.4573 5.79036 94.6734 6.01953C94.8922 6.24609 95.0602 6.51823 95.1773 6.83594C95.2971 7.15365 95.357 7.50781 95.357 7.89844V8.41797C95.357 8.80859 95.2971 9.16276 95.1773 9.48047C95.0602 9.79818 94.8922 10.0703 94.6734 10.2969C94.4547 10.5234 94.1956 10.6979 93.8961 10.8203C93.5966 10.9401 93.2633 11 92.8961 11ZM91.8219 5.3125V11H91.3414V5.3125H91.8219Z" fill="#195FA7"/>
</svg>
