<svg width="150" height="78" viewBox="0 0 150 78" fill="none" xmlns="http://www.w3.org/2000/svg">
<g filter="url(#filter0_dd_1_778)">
<g clip-path="url(#clip0_1_778)">
<rect x="11" y="7" width="128" height="56" rx="16" fill="#D4E3FF"/>
<path d="M35 41C33.9 41 33.01 41.9 33.01 43C33.01 44.1 33.9 45 35 45C36.1 45 37 44.1 37 43C37 41.9 36.1 41 35 41ZM45 41C43.9 41 43.01 41.9 43.01 43C43.01 44.1 43.9 45 45 45C46.1 45 47 44.1 47 43C47 41.9 46.1 41 45 41ZM36.1 36H43.55C44.3 36 44.96 35.59 45.3 34.97L49 27.96L47.25 27L43.55 34H36.53L32.27 25H29V27H31L34.6 34.59L33.25 37.03C32.52 38.37 33.48 40 35 40H47V38H35L36.1 36ZM40 25L44 29L40 33L38.59 31.59L40.17 30H36V28H40.17L38.58 26.41L40 25Z" fill="#001C3A"/>
<path d="M67.8133 35.502H65.2771L65.2635 34.251H67.4783C67.852 34.251 68.1688 34.1963 68.4285 34.0869C68.6928 33.973 68.8934 33.8112 69.0301 33.6016C69.1668 33.3874 69.2352 33.1299 69.2352 32.8291C69.2352 32.4964 69.1714 32.2253 69.0438 32.0156C68.9161 31.806 68.7202 31.6533 68.4559 31.5576C68.1961 31.4619 67.8634 31.4141 67.4578 31.4141H65.7967V40H64.0809V30.0469H67.4578C68.0047 30.0469 68.4923 30.0993 68.9207 30.2041C69.3536 30.3089 69.7205 30.473 70.0213 30.6963C70.3266 30.915 70.5568 31.193 70.7117 31.5303C70.8712 31.8675 70.951 32.2686 70.951 32.7334C70.951 33.1436 70.853 33.5195 70.657 33.8613C70.4611 34.1986 70.1717 34.4743 69.7889 34.6885C69.4061 34.9027 68.9298 35.0303 68.3602 35.0713L67.8133 35.502ZM67.7381 40H64.7371L65.5096 38.6396H67.7381C68.1255 38.6396 68.449 38.5758 68.7088 38.4482C68.9686 38.3161 69.1622 38.1361 69.2898 37.9082C69.422 37.6758 69.4881 37.4046 69.4881 37.0947C69.4881 36.7712 69.4311 36.4909 69.3172 36.2539C69.2033 36.0124 69.0232 35.8278 68.7771 35.7002C68.5311 35.568 68.2098 35.502 67.8133 35.502H65.8855L65.8992 34.251H68.408L68.7977 34.7227C69.3445 34.7409 69.7934 34.8617 70.1443 35.085C70.4998 35.3083 70.7641 35.5977 70.9373 35.9531C71.1105 36.3086 71.1971 36.6914 71.1971 37.1016C71.1971 37.735 71.0581 38.266 70.7801 38.6943C70.5066 39.1227 70.1124 39.4486 69.5975 39.6719C69.0825 39.8906 68.4627 40 67.7381 40ZM77.3127 38.2568V32.6035H78.967V40H77.4084L77.3127 38.2568ZM77.5451 36.7188L78.0988 36.7051C78.0988 37.2018 78.0441 37.6598 77.9348 38.0791C77.8254 38.4938 77.6568 38.8561 77.4289 39.166C77.201 39.4714 76.9094 39.7106 76.5539 39.8838C76.1984 40.0524 75.7723 40.1367 75.2756 40.1367C74.9156 40.1367 74.5852 40.0843 74.2844 39.9795C73.9836 39.8747 73.7238 39.7129 73.5051 39.4941C73.2909 39.2754 73.1245 38.9906 73.0061 38.6396C72.8876 38.2887 72.8283 37.8695 72.8283 37.3818V32.6035H74.4758V37.3955C74.4758 37.6644 74.5077 37.89 74.5715 38.0723C74.6353 38.25 74.7219 38.3936 74.8313 38.5029C74.9406 38.6123 75.0682 38.6898 75.2141 38.7354C75.3599 38.7809 75.5148 38.8037 75.6789 38.8037C76.1483 38.8037 76.5174 38.7126 76.7863 38.5303C77.0598 38.3434 77.2535 38.0928 77.3674 37.7783C77.4859 37.4639 77.5451 37.1107 77.5451 36.7188ZM82.902 39.1934L84.9117 32.6035H86.6754L83.7086 41.1279C83.6402 41.3102 83.5514 41.5085 83.442 41.7227C83.3326 41.9368 83.1891 42.1396 83.0113 42.3311C82.8382 42.527 82.6217 42.6842 82.3619 42.8027C82.1021 42.9258 81.7877 42.9873 81.4186 42.9873C81.2727 42.9873 81.1314 42.9736 80.9947 42.9463C80.8626 42.9235 80.7372 42.8984 80.6188 42.8711L80.6119 41.6133C80.6575 41.6178 80.7122 41.6224 80.776 41.627C80.8443 41.6315 80.899 41.6338 80.94 41.6338C81.2135 41.6338 81.4413 41.5996 81.6236 41.5312C81.8059 41.4674 81.954 41.3626 82.068 41.2168C82.1865 41.071 82.2867 40.875 82.3688 40.6289L82.902 39.1934ZM81.7672 32.6035L83.524 38.1406L83.818 39.877L82.6764 40.1709L79.9898 32.6035H81.7672ZM99.3646 30.0469V40H97.6488L93.185 32.8701V40H91.4691V30.0469H93.185L97.6625 37.1904V30.0469H99.3646ZM101.03 36.3838V36.2266C101.03 35.6934 101.108 35.1989 101.263 34.7432C101.417 34.2829 101.641 33.8841 101.932 33.5469C102.229 33.2051 102.589 32.9408 103.013 32.7539C103.441 32.5625 103.924 32.4668 104.462 32.4668C105.004 32.4668 105.487 32.5625 105.911 32.7539C106.339 32.9408 106.702 33.2051 106.998 33.5469C107.294 33.8841 107.52 34.2829 107.675 34.7432C107.83 35.1989 107.907 35.6934 107.907 36.2266V36.3838C107.907 36.917 107.83 37.4115 107.675 37.8672C107.52 38.3229 107.294 38.7217 106.998 39.0635C106.702 39.4007 106.342 39.665 105.918 39.8564C105.494 40.0433 105.013 40.1367 104.475 40.1367C103.933 40.1367 103.448 40.0433 103.019 39.8564C102.596 39.665 102.235 39.4007 101.939 39.0635C101.643 38.7217 101.417 38.3229 101.263 37.8672C101.108 37.4115 101.03 36.917 101.03 36.3838ZM102.678 36.2266V36.3838C102.678 36.7165 102.712 37.0309 102.78 37.3271C102.848 37.6234 102.956 37.8831 103.101 38.1064C103.247 38.3298 103.434 38.5052 103.662 38.6328C103.89 38.7604 104.161 38.8242 104.475 38.8242C104.781 38.8242 105.045 38.7604 105.268 38.6328C105.496 38.5052 105.683 38.3298 105.829 38.1064C105.975 37.8831 106.082 37.6234 106.15 37.3271C106.223 37.0309 106.26 36.7165 106.26 36.3838V36.2266C106.26 35.8984 106.223 35.5885 106.15 35.2969C106.082 35.0007 105.972 34.7386 105.822 34.5107C105.676 34.2829 105.489 34.1051 105.262 33.9775C105.038 33.8454 104.772 33.7793 104.462 33.7793C104.152 33.7793 103.883 33.8454 103.655 33.9775C103.432 34.1051 103.247 34.2829 103.101 34.5107C102.956 34.7386 102.848 35.0007 102.78 35.2969C102.712 35.5885 102.678 35.8984 102.678 36.2266ZM111.398 38.3594L113.107 32.6035H114.159L113.872 34.3262L112.15 40H111.206L111.398 38.3594ZM110.393 32.6035L111.726 38.3867L111.835 40H110.782L108.779 32.6035H110.393ZM115.759 38.3184L117.051 32.6035H118.657L116.661 40H115.609L115.759 38.3184ZM114.337 32.6035L116.026 38.291L116.237 40H115.294L113.551 34.3193L113.264 32.6035H114.337Z" fill="#001C3A"/>
</g>
</g>
<defs>
<filter id="filter0_dd_1_778" x="0" y="0" width="150" height="78" filterUnits="userSpaceOnUse" color-interpolation-filters="sRGB">
<feFlood flood-opacity="0" result="BackgroundImageFix"/>
<feColorMatrix in="SourceAlpha" type="matrix" values="0 0 0 0 0 0 0 0 0 0 0 0 0 0 0 0 0 0 127 0" result="hardAlpha"/>
<feOffset dy="1"/>
<feGaussianBlur stdDeviation="1.5"/>
<feColorMatrix type="matrix" values="0 0 0 0 0 0 0 0 0 0 0 0 0 0 0 0 0 0 0.3 0"/>
<feBlend mode="normal" in2="BackgroundImageFix" result="effect1_dropShadow_1_778"/>
<feColorMatrix in="SourceAlpha" type="matrix" values="0 0 0 0 0 0 0 0 0 0 0 0 0 0 0 0 0 0 127 0" result="hardAlpha"/>
<feMorphology radius="3" operator="dilate" in="SourceAlpha" result="effect2_dropShadow_1_778"/>
<feOffset dy="4"/>
<feGaussianBlur stdDeviation="4"/>
<feColorMatrix type="matrix" values="0 0 0 0 0 0 0 0 0 0 0 0 0 0 0 0 0 0 0.15 0"/>
<feBlend mode="normal" in2="effect1_dropShadow_1_778" result="effect2_dropShadow_1_778"/>
<feBlend mode="normal" in="SourceGraphic" in2="effect2_dropShadow_1_778" result="shape"/>
</filter>
<clipPath id="clip0_1_778">
<rect x="11" y="7" width="128" height="56" rx="16" fill="white"/>
</clipPath>
</defs>
</svg>
