<svg width="84" height="16" viewBox="0 0 84 16" fill="none" xmlns="http://www.w3.org/2000/svg">
<path d="M26.2656 9.22656H26.7461C26.707 9.60938 26.6016 9.9401 26.4297 10.2188C26.2578 10.4948 26.0234 10.707 25.7266 10.8555C25.4297 11.0039 25.0716 11.0781 24.6523 11.0781C24.3294 11.0781 24.0365 11.0169 23.7734 10.8945C23.513 10.7721 23.2891 10.599 23.1016 10.375C22.9141 10.1484 22.7695 9.8776 22.668 9.5625C22.5664 9.2474 22.5156 8.89714 22.5156 8.51172V7.80078C22.5156 7.41536 22.5664 7.06641 22.668 6.75391C22.7695 6.4388 22.9154 6.16797 23.1055 5.94141C23.2956 5.71484 23.5234 5.54036 23.7891 5.41797C24.0547 5.29557 24.3542 5.23438 24.6875 5.23438C25.0911 5.23438 25.4401 5.30859 25.7344 5.45703C26.0286 5.60286 26.2604 5.8138 26.4297 6.08984C26.6016 6.36589 26.707 6.69922 26.7461 7.08984H26.2656C26.2292 6.78255 26.1484 6.52214 26.0234 6.30859C25.8984 6.09505 25.7253 5.93229 25.5039 5.82031C25.2852 5.70573 25.013 5.64844 24.6875 5.64844C24.4219 5.64844 24.1849 5.69922 23.9766 5.80078C23.7682 5.90234 23.5911 6.04818 23.4453 6.23828C23.2995 6.42578 23.1875 6.65104 23.1094 6.91406C23.0339 7.17708 22.9961 7.47005 22.9961 7.79297V8.51172C22.9961 8.82422 23.0326 9.11198 23.1055 9.375C23.1784 9.63802 23.2852 9.86589 23.4258 10.0586C23.569 10.2513 23.7435 10.401 23.9492 10.5078C24.1549 10.6146 24.3893 10.668 24.6523 10.668C24.9883 10.668 25.2682 10.6146 25.4922 10.5078C25.7188 10.3984 25.8945 10.237 26.0195 10.0234C26.1445 9.8099 26.2266 9.54427 26.2656 9.22656ZM30.7789 10.2422V8.0625C30.7789 7.86198 30.7372 7.6888 30.6539 7.54297C30.5706 7.39714 30.4482 7.28516 30.2867 7.20703C30.1253 7.12891 29.926 7.08984 29.6891 7.08984C29.4703 7.08984 29.275 7.12891 29.1031 7.20703C28.9339 7.28255 28.7997 7.38542 28.7008 7.51562C28.6044 7.64323 28.5563 7.78516 28.5563 7.94141L28.0875 7.9375C28.0875 7.77865 28.1266 7.625 28.2047 7.47656C28.2828 7.32812 28.3935 7.19531 28.5367 7.07812C28.6799 6.96094 28.8505 6.86849 29.0484 6.80078C29.249 6.73047 29.469 6.69531 29.7086 6.69531C30.0107 6.69531 30.2763 6.74609 30.5055 6.84766C30.7372 6.94922 30.9182 7.10156 31.0484 7.30469C31.1786 7.50781 31.2438 7.76302 31.2438 8.07031V10.1133C31.2438 10.2591 31.2542 10.4102 31.275 10.5664C31.2984 10.7227 31.331 10.8516 31.3727 10.9531V11H30.8766C30.8453 10.9062 30.8206 10.7891 30.8023 10.6484C30.7867 10.5052 30.7789 10.3698 30.7789 10.2422ZM30.8883 8.53906L30.8961 8.89844H29.9781C29.7385 8.89844 29.5237 8.92057 29.3336 8.96484C29.1461 9.00651 28.9872 9.06901 28.857 9.15234C28.7268 9.23307 28.6266 9.33073 28.5563 9.44531C28.4885 9.5599 28.4547 9.6901 28.4547 9.83594C28.4547 9.98698 28.4924 10.125 28.568 10.25C28.6461 10.375 28.7555 10.4753 28.8961 10.5508C29.0393 10.6237 29.2086 10.6602 29.4039 10.6602C29.6643 10.6602 29.8935 10.612 30.0914 10.5156C30.2919 10.4193 30.4573 10.293 30.5875 10.1367C30.7177 9.98047 30.8049 9.8099 30.8492 9.625L31.0523 9.89453C31.0185 10.0247 30.956 10.1589 30.8648 10.2969C30.7763 10.4323 30.6604 10.5599 30.5172 10.6797C30.374 10.7969 30.2047 10.8932 30.0094 10.9688C29.8167 11.0417 29.5979 11.0781 29.3531 11.0781C29.0771 11.0781 28.8362 11.026 28.6305 10.9219C28.4273 10.8177 28.2685 10.6758 28.1539 10.4961C28.0419 10.3138 27.9859 10.1081 27.9859 9.87891C27.9859 9.67057 28.0302 9.48438 28.1188 9.32031C28.2073 9.15365 28.3349 9.01302 28.5016 8.89844C28.6708 8.78125 28.874 8.69271 29.1109 8.63281C29.3505 8.57031 29.6188 8.53906 29.9156 8.53906H30.8883ZM35.4289 9.92188C35.4289 9.80729 35.4003 9.69401 35.343 9.58203C35.2857 9.47005 35.175 9.36719 35.0109 9.27344C34.8495 9.17969 34.6112 9.10026 34.2961 9.03516C34.0617 8.98307 33.8521 8.92448 33.6672 8.85938C33.4849 8.79427 33.3313 8.71615 33.2063 8.625C33.0813 8.53385 32.9862 8.42448 32.9211 8.29688C32.856 8.16927 32.8234 8.01823 32.8234 7.84375C32.8234 7.6875 32.8573 7.54036 32.925 7.40234C32.9953 7.26172 33.0943 7.13932 33.2219 7.03516C33.3521 6.92839 33.5083 6.84505 33.6906 6.78516C33.8755 6.72526 34.0826 6.69531 34.3117 6.69531C34.6372 6.69531 34.9159 6.7513 35.1477 6.86328C35.382 6.97266 35.5604 7.1224 35.6828 7.3125C35.8078 7.5026 35.8703 7.71745 35.8703 7.95703H35.4055C35.4055 7.8112 35.3625 7.67318 35.2766 7.54297C35.1932 7.41276 35.0695 7.30599 34.9055 7.22266C34.744 7.13932 34.5461 7.09766 34.3117 7.09766C34.0695 7.09766 33.8729 7.13411 33.7219 7.20703C33.5708 7.27995 33.4602 7.3724 33.3898 7.48438C33.3221 7.59635 33.2883 7.71224 33.2883 7.83203C33.2883 7.92578 33.3026 8.01172 33.3313 8.08984C33.3625 8.16536 33.4172 8.23568 33.4953 8.30078C33.576 8.36589 33.6906 8.42708 33.8391 8.48438C33.9875 8.54167 34.1802 8.59766 34.4172 8.65234C34.7583 8.72786 35.037 8.82031 35.2531 8.92969C35.4719 9.03646 35.6333 9.16927 35.7375 9.32812C35.8417 9.48438 35.8938 9.67448 35.8938 9.89844C35.8938 10.0729 35.8573 10.2331 35.7844 10.3789C35.7115 10.5221 35.606 10.6458 35.468 10.75C35.3326 10.8542 35.1685 10.9349 34.9758 10.9922C34.7857 11.0495 34.5721 11.0781 34.3352 11.0781C33.9784 11.0781 33.6763 11.0195 33.4289 10.9023C33.1841 10.7826 32.9979 10.6263 32.8703 10.4336C32.7453 10.2383 32.6828 10.0312 32.6828 9.8125H33.1477C33.1633 10.0312 33.2323 10.2044 33.3547 10.332C33.4771 10.457 33.6268 10.5456 33.8039 10.5977C33.9836 10.6497 34.1607 10.6758 34.3352 10.6758C34.5747 10.6758 34.7753 10.6406 34.9367 10.5703C35.0982 10.5 35.2206 10.4076 35.3039 10.293C35.3872 10.1784 35.4289 10.0547 35.4289 9.92188ZM37.8172 5V11H37.3523V5H37.8172ZM37.7117 8.625L37.5047 8.50781C37.5203 8.25781 37.5711 8.02344 37.657 7.80469C37.743 7.58594 37.8589 7.39323 38.0047 7.22656C38.1531 7.0599 38.3263 6.92969 38.5242 6.83594C38.7247 6.74219 38.9461 6.69531 39.1883 6.69531C39.3992 6.69531 39.588 6.72396 39.7547 6.78125C39.9214 6.83854 40.0633 6.92969 40.1805 7.05469C40.2977 7.17969 40.3862 7.33984 40.4461 7.53516C40.5086 7.73047 40.5398 7.96875 40.5398 8.25V11H40.0711V8.24609C40.0711 7.95443 40.0307 7.72656 39.95 7.5625C39.8693 7.39583 39.7547 7.27734 39.6062 7.20703C39.4578 7.13672 39.282 7.10156 39.0789 7.10156C38.8549 7.10156 38.6583 7.15104 38.4891 7.25C38.3224 7.34635 38.1818 7.47266 38.0672 7.62891C37.9552 7.78255 37.8693 7.94792 37.8094 8.125C37.7495 8.29948 37.7169 8.46615 37.7117 8.625ZM45.1914 5.3125V11H44.7109V5.3125H45.1914ZM47.4937 7.67578V11H47.0289V6.77344H47.4742L47.4937 7.67578ZM47.3883 8.625L47.1812 8.50781C47.1969 8.25781 47.2477 8.02344 47.3336 7.80469C47.4195 7.58594 47.5354 7.39323 47.6812 7.22656C47.8297 7.0599 48.0029 6.92969 48.2008 6.83594C48.4013 6.74219 48.6227 6.69531 48.8648 6.69531C49.0758 6.69531 49.2646 6.72396 49.4312 6.78125C49.5979 6.83854 49.7398 6.92969 49.857 7.05469C49.9742 7.17969 50.0628 7.33984 50.1227 7.53516C50.1852 7.73047 50.2164 7.96875 50.2164 8.25V11H49.7477V8.24609C49.7477 7.95443 49.7073 7.72656 49.6266 7.5625C49.5458 7.39583 49.4312 7.27734 49.2828 7.20703C49.1344 7.13672 48.9586 7.10156 48.7555 7.10156C48.5315 7.10156 48.3349 7.15104 48.1656 7.25C47.999 7.34635 47.8583 7.47266 47.7437 7.62891C47.6318 7.78255 47.5458 7.94792 47.4859 8.125C47.426 8.29948 47.3935 8.46615 47.3883 8.625ZM55.8445 11H54.5555L54.5633 10.5898H55.8445C56.2534 10.5898 56.6049 10.4987 56.8992 10.3164C57.1961 10.1315 57.4253 9.8763 57.5867 9.55078C57.7482 9.22526 57.8289 8.84766 57.8289 8.41797V7.88672C57.8289 7.55859 57.782 7.26172 57.6883 6.99609C57.5971 6.73047 57.4656 6.50391 57.2938 6.31641C57.1219 6.1263 56.9161 5.98047 56.6766 5.87891C56.4396 5.77734 56.174 5.72656 55.8797 5.72656H54.532V5.3125H55.8797C56.2339 5.3125 56.5581 5.3737 56.8523 5.49609C57.1492 5.61589 57.4057 5.79036 57.6219 6.01953C57.8406 6.24609 58.0086 6.51823 58.1258 6.83594C58.2456 7.15365 58.3055 7.50781 58.3055 7.89844V8.41797C58.3055 8.80859 58.2456 9.16276 58.1258 9.48047C58.0086 9.79818 57.8406 10.0703 57.6219 10.2969C57.4031 10.5234 57.144 10.6979 56.8445 10.8203C56.5451 10.9401 56.2117 11 55.8445 11ZM54.7703 5.3125V11H54.2898V5.3125H54.7703ZM61.4555 11.0781C61.1794 11.0781 60.9255 11.0273 60.6937 10.9258C60.4646 10.8242 60.2641 10.681 60.0922 10.4961C59.9229 10.3112 59.7914 10.0924 59.6977 9.83984C59.6065 9.58464 59.5609 9.30599 59.5609 9.00391V8.83594C59.5609 8.51042 59.6091 8.21615 59.7055 7.95312C59.8018 7.6901 59.9346 7.46484 60.1039 7.27734C60.2732 7.08984 60.4659 6.94661 60.682 6.84766C60.9008 6.74609 61.1299 6.69531 61.3695 6.69531C61.6378 6.69531 61.876 6.74349 62.0844 6.83984C62.2927 6.93359 62.4672 7.06771 62.6078 7.24219C62.751 7.41406 62.8591 7.61849 62.932 7.85547C63.0049 8.08984 63.0414 8.34896 63.0414 8.63281V8.91797H59.8422V8.51953H62.5766V8.46484C62.5714 8.22786 62.5232 8.00651 62.432 7.80078C62.3435 7.59245 62.2107 7.42318 62.0336 7.29297C61.8565 7.16276 61.6352 7.09766 61.3695 7.09766C61.1716 7.09766 60.9893 7.13932 60.8227 7.22266C60.6586 7.30599 60.5167 7.42578 60.3969 7.58203C60.2797 7.73568 60.1885 7.91927 60.1234 8.13281C60.0609 8.34375 60.0297 8.57812 60.0297 8.83594V9.00391C60.0297 9.23828 60.0635 9.45703 60.1312 9.66016C60.2016 9.86068 60.3005 10.0378 60.4281 10.1914C60.5583 10.3451 60.712 10.4648 60.8891 10.5508C61.0661 10.6367 61.2615 10.6797 61.475 10.6797C61.725 10.6797 61.9464 10.6341 62.1391 10.543C62.3318 10.4492 62.5049 10.3021 62.6586 10.1016L62.9516 10.3281C62.8604 10.4635 62.7458 10.5885 62.6078 10.7031C62.4724 10.8177 62.3096 10.9089 62.1195 10.9766C61.9294 11.0443 61.7081 11.0781 61.4555 11.0781ZM64.8828 5V11H64.418V5H64.8828ZM67.0797 6.77344V11H66.6148V6.77344H67.0797ZM66.5328 5.55078C66.5328 5.46224 66.5602 5.38802 66.6148 5.32812C66.6721 5.26562 66.7503 5.23438 66.8492 5.23438C66.9482 5.23438 67.0263 5.26562 67.0836 5.32812C67.1435 5.38802 67.1734 5.46224 67.1734 5.55078C67.1734 5.63672 67.1435 5.71094 67.0836 5.77344C67.0263 5.83333 66.9482 5.86328 66.8492 5.86328C66.7503 5.86328 66.6721 5.83333 66.6148 5.77344C66.5602 5.71094 66.5328 5.63672 66.5328 5.55078ZM70.0031 10.5508L71.3586 6.77344H71.8391L70.257 11H69.9172L70.0031 10.5508ZM68.7766 6.77344L70.1477 10.5625L70.2219 11H69.8781L68.2922 6.77344H68.7766ZM74.5867 11.0781C74.3107 11.0781 74.0568 11.0273 73.825 10.9258C73.5958 10.8242 73.3953 10.681 73.2234 10.4961C73.0542 10.3112 72.9227 10.0924 72.8289 9.83984C72.7378 9.58464 72.6922 9.30599 72.6922 9.00391V8.83594C72.6922 8.51042 72.7404 8.21615 72.8367 7.95312C72.9331 7.6901 73.0659 7.46484 73.2352 7.27734C73.4044 7.08984 73.5971 6.94661 73.8133 6.84766C74.032 6.74609 74.2612 6.69531 74.5008 6.69531C74.769 6.69531 75.0073 6.74349 75.2156 6.83984C75.424 6.93359 75.5984 7.06771 75.7391 7.24219C75.8823 7.41406 75.9904 7.61849 76.0633 7.85547C76.1362 8.08984 76.1727 8.34896 76.1727 8.63281V8.91797H72.9734V8.51953H75.7078V8.46484C75.7026 8.22786 75.6544 8.00651 75.5633 7.80078C75.4747 7.59245 75.3419 7.42318 75.1648 7.29297C74.9878 7.16276 74.7664 7.09766 74.5008 7.09766C74.3029 7.09766 74.1206 7.13932 73.9539 7.22266C73.7898 7.30599 73.6479 7.42578 73.5281 7.58203C73.4109 7.73568 73.3198 7.91927 73.2547 8.13281C73.1922 8.34375 73.1609 8.57812 73.1609 8.83594V9.00391C73.1609 9.23828 73.1948 9.45703 73.2625 9.66016C73.3328 9.86068 73.4318 10.0378 73.5594 10.1914C73.6896 10.3451 73.8432 10.4648 74.0203 10.5508C74.1974 10.6367 74.3927 10.6797 74.6063 10.6797C74.8563 10.6797 75.0776 10.6341 75.2703 10.543C75.463 10.4492 75.6362 10.3021 75.7898 10.1016L76.0828 10.3281C75.9917 10.4635 75.8771 10.5885 75.7391 10.7031C75.6036 10.8177 75.4409 10.9089 75.2508 10.9766C75.0607 11.0443 74.8393 11.0781 74.5867 11.0781ZM77.9594 7.47266V11H77.4945V6.77344H77.9477L77.9594 7.47266ZM79.4555 6.74219L79.4437 7.17188C79.3917 7.16406 79.3409 7.15755 79.2914 7.15234C79.2419 7.14714 79.1885 7.14453 79.1312 7.14453C78.9281 7.14453 78.7497 7.18229 78.5961 7.25781C78.4451 7.33073 78.3174 7.43359 78.2133 7.56641C78.1091 7.69661 78.0297 7.85026 77.975 8.02734C77.9203 8.20182 77.8891 8.38932 77.8812 8.58984L77.7094 8.65625C77.7094 8.38021 77.738 8.1237 77.7953 7.88672C77.8526 7.64974 77.9398 7.44271 78.057 7.26562C78.1768 7.08594 78.3266 6.94661 78.5062 6.84766C78.6885 6.74609 78.9021 6.69531 79.1469 6.69531C79.2068 6.69531 79.2654 6.70052 79.3227 6.71094C79.3826 6.71875 79.4268 6.72917 79.4555 6.74219ZM81.9141 10.5781L83.2305 6.77344H83.7344L81.9453 11.6797C81.9089 11.776 81.862 11.8828 81.8047 12C81.75 12.1172 81.6771 12.2292 81.5859 12.3359C81.4974 12.4453 81.3854 12.5339 81.25 12.6016C81.1172 12.6719 80.9544 12.707 80.7617 12.707C80.7122 12.707 80.6484 12.7005 80.5703 12.6875C80.4948 12.6771 80.4401 12.6667 80.4062 12.6562L80.4023 12.2617C80.431 12.2695 80.4727 12.276 80.5273 12.2812C80.582 12.2865 80.6198 12.2891 80.6406 12.2891C80.8099 12.2891 80.9518 12.2604 81.0664 12.2031C81.1836 12.1458 81.2812 12.0599 81.3594 11.9453C81.4375 11.8333 81.5065 11.6927 81.5664 11.5234L81.9141 10.5781ZM80.6836 6.77344L82.0312 10.4023L82.1562 10.8906L81.8164 11.082L80.1758 6.77344H80.6836Z" fill="#195FA7"/>
<path d="M11.6667 3.33334H2.33332C1.68582 3.33334 1.17249 3.85251 1.17249 4.50001L1.16666 11.5C1.16666 12.1475 1.68582 12.6667 2.33332 12.6667H11.6667C12.3142 12.6667 12.8333 12.1475 12.8333 11.5V4.50001C12.8333 3.85251 12.3142 3.33334 11.6667 3.33334ZM11.6667 11.5H2.33332V8.00001H11.6667V11.5ZM11.6667 5.66668H2.33332V4.50001H11.6667V5.66668Z" fill="#195FA7"/>
</svg>
