<svg width="90" height="97" viewBox="0 0 90 97" fill="none" xmlns="http://www.w3.org/2000/svg">
<path d="M24.7896 56.2334V59.5732H1.67432V57.1782L16.0005 35.0078H19.3184L15.7588 41.4238L6.28857 56.2334H24.7896ZM20.3291 35.0078V67H16.2642V35.0078H20.3291ZM28.9863 64.8467C28.9863 64.1582 29.1987 63.5796 29.6235 63.1108C30.063 62.6274 30.6929 62.3857 31.5132 62.3857C32.3335 62.3857 32.9561 62.6274 33.3809 63.1108C33.8203 63.5796 34.04 64.1582 34.04 64.8467C34.04 65.5205 33.8203 66.0918 33.3809 66.5605C32.9561 67.0293 32.3335 67.2637 31.5132 67.2637C30.6929 67.2637 30.063 67.0293 29.6235 66.5605C29.1987 66.0918 28.9863 65.5205 28.9863 64.8467ZM45.4878 51.7729L42.2358 50.938L43.8398 35.0078H60.2534V38.7651H47.2896L46.3228 47.4663C46.9087 47.1294 47.6484 46.8145 48.542 46.5215C49.4502 46.2285 50.4902 46.082 51.6621 46.082C53.1416 46.082 54.4673 46.3384 55.6392 46.8511C56.811 47.3491 57.8071 48.0669 58.6274 49.0044C59.4624 49.9419 60.0996 51.0698 60.5391 52.3882C60.9785 53.7065 61.1982 55.1787 61.1982 56.8047C61.1982 58.3428 60.9858 59.7563 60.561 61.0454C60.1509 62.3345 59.5283 63.4624 58.6934 64.4292C57.8584 65.3813 56.8037 66.1211 55.5293 66.6484C54.2695 67.1758 52.7827 67.4395 51.0688 67.4395C49.7798 67.4395 48.5566 67.2637 47.3994 66.9121C46.2568 66.5459 45.2314 65.9966 44.3232 65.2642C43.4297 64.5171 42.6973 63.5942 42.126 62.4956C41.5693 61.3823 41.2178 60.0786 41.0713 58.5845H44.9385C45.1143 59.7856 45.4658 60.7964 45.9932 61.6167C46.5205 62.437 47.209 63.0596 48.0586 63.4844C48.9229 63.8945 49.9263 64.0996 51.0688 64.0996C52.0356 64.0996 52.8926 63.9312 53.6396 63.5942C54.3867 63.2573 55.0166 62.7739 55.5293 62.144C56.042 61.5142 56.4302 60.7524 56.6938 59.8589C56.9722 58.9653 57.1113 57.9619 57.1113 56.8486C57.1113 55.8379 56.9722 54.9004 56.6938 54.0361C56.4155 53.1719 55.998 52.4175 55.4414 51.7729C54.8994 51.1284 54.2329 50.6304 53.4419 50.2788C52.6509 49.9126 51.7427 49.7295 50.7173 49.7295C49.355 49.7295 48.3223 49.9126 47.6191 50.2788C46.9307 50.645 46.2202 51.1431 45.4878 51.7729Z" fill="#D4E3FF"/>
<path d="M70.5586 37.4648V38.0039C70.5586 38.6445 70.4785 39.2188 70.3184 39.7266C70.1582 40.2344 69.9277 40.666 69.627 41.0215C69.3262 41.377 68.9648 41.6484 68.543 41.8359C68.125 42.0234 67.6562 42.1172 67.1367 42.1172C66.6328 42.1172 66.1699 42.0234 65.748 41.8359C65.3301 41.6484 64.9668 41.377 64.6582 41.0215C64.3535 40.666 64.1172 40.2344 63.9492 39.7266C63.7812 39.2188 63.6973 38.6445 63.6973 38.0039V37.4648C63.6973 36.8242 63.7793 36.252 63.9434 35.748C64.1113 35.2402 64.3477 34.8086 64.6523 34.4531C64.957 34.0938 65.3184 33.8203 65.7363 33.6328C66.1582 33.4453 66.6211 33.3516 67.125 33.3516C67.6445 33.3516 68.1133 33.4453 68.5312 33.6328C68.9531 33.8203 69.3145 34.0938 69.6152 34.4531C69.9199 34.8086 70.1523 35.2402 70.3125 35.748C70.4766 36.252 70.5586 36.8242 70.5586 37.4648ZM69.4395 38.0039V37.4531C69.4395 36.9453 69.3867 36.4961 69.2812 36.1055C69.1797 35.7148 69.0293 35.3867 68.8301 35.1211C68.6309 34.8555 68.3867 34.6543 68.0977 34.5176C67.8125 34.3809 67.4883 34.3125 67.125 34.3125C66.7734 34.3125 66.4551 34.3809 66.1699 34.5176C65.8887 34.6543 65.6465 34.8555 65.4434 35.1211C65.2441 35.3867 65.0898 35.7148 64.9805 36.1055C64.8711 36.4961 64.8164 36.9453 64.8164 37.4531V38.0039C64.8164 38.5156 64.8711 38.9688 64.9805 39.3633C65.0898 39.7539 65.2461 40.084 65.4492 40.3535C65.6562 40.6191 65.9004 40.8203 66.1816 40.957C66.4668 41.0938 66.7852 41.1621 67.1367 41.1621C67.5039 41.1621 67.8301 41.0938 68.1152 40.957C68.4004 40.8203 68.6406 40.6191 68.8359 40.3535C69.0352 40.084 69.1855 39.7539 69.2871 39.3633C69.3887 38.9688 69.4395 38.5156 69.4395 38.0039ZM73.0094 33.4688H74.1051L76.9 40.4238L79.6891 33.4688H80.7906L77.3219 42H76.4664L73.0094 33.4688ZM72.652 33.4688H73.6187L73.777 38.6719V42H72.652V33.4688ZM80.1754 33.4688H81.1422V42H80.0172V38.6719L80.1754 33.4688ZM83.5285 33.4688H86.3527C86.9934 33.4688 87.5344 33.5664 87.9758 33.7617C88.4211 33.957 88.759 34.2461 88.9895 34.6289C89.2238 35.0078 89.341 35.4746 89.341 36.0293C89.341 36.4199 89.2609 36.7773 89.1008 37.1016C88.9445 37.4219 88.718 37.6953 88.4211 37.9219C88.1281 38.1445 87.7766 38.3105 87.3664 38.4199L87.05 38.543H84.3957L84.384 37.623H86.3879C86.7941 37.623 87.132 37.5527 87.4016 37.4121C87.6711 37.2676 87.8742 37.0742 88.0109 36.832C88.1477 36.5898 88.216 36.3223 88.216 36.0293C88.216 35.7012 88.1516 35.4141 88.0227 35.168C87.8937 34.9219 87.6906 34.7324 87.4133 34.5996C87.1398 34.4629 86.7863 34.3945 86.3527 34.3945H84.6594V42H83.5285V33.4688ZM88.5148 42L86.4406 38.1328L87.6184 38.127L89.7219 41.9297V42H88.5148Z" fill="#D4E3FF"/>
<path d="M24.2031 84.4688V93H23.0723V84.4688H24.2031ZM27.5797 88.0137V93H26.4957V86.6602H27.5211L27.5797 88.0137ZM27.3219 89.5898L26.8707 89.5723C26.8746 89.1387 26.9391 88.7383 27.0641 88.3711C27.1891 88 27.3648 87.6777 27.5914 87.4043C27.818 87.1309 28.0875 86.9199 28.4 86.7715C28.7164 86.6191 29.066 86.543 29.4488 86.543C29.7613 86.543 30.0426 86.5859 30.2926 86.6719C30.5426 86.7539 30.7555 86.8867 30.9313 87.0703C31.1109 87.2539 31.2477 87.4922 31.3414 87.7852C31.4352 88.0742 31.482 88.4277 31.482 88.8457V93H30.3922V88.834C30.3922 88.502 30.3434 88.2363 30.2457 88.0371C30.148 87.834 30.0055 87.6875 29.818 87.5977C29.6305 87.5039 29.4 87.457 29.1266 87.457C28.857 87.457 28.6109 87.5137 28.3883 87.627C28.1695 87.7402 27.9801 87.8965 27.8199 88.0957C27.6637 88.2949 27.5406 88.5234 27.4508 88.7812C27.3648 89.0352 27.3219 89.3047 27.3219 89.5898ZM36.0656 92.2266C36.3234 92.2266 36.5617 92.1738 36.7805 92.0684C36.9992 91.9629 37.1789 91.8184 37.3195 91.6348C37.4602 91.4473 37.5402 91.2344 37.5598 90.9961H38.591C38.5715 91.3711 38.4445 91.7207 38.2102 92.0449C37.9797 92.3652 37.677 92.625 37.302 92.8242C36.927 93.0195 36.5148 93.1172 36.0656 93.1172C35.5891 93.1172 35.173 93.0332 34.8176 92.8652C34.466 92.6973 34.173 92.4668 33.9387 92.1738C33.7082 91.8809 33.5344 91.5449 33.4172 91.166C33.3039 90.7832 33.2473 90.3789 33.2473 89.9531V89.707C33.2473 89.2812 33.3039 88.8789 33.4172 88.5C33.5344 88.1172 33.7082 87.7793 33.9387 87.4863C34.173 87.1934 34.466 86.9629 34.8176 86.7949C35.173 86.627 35.5891 86.543 36.0656 86.543C36.5617 86.543 36.9953 86.6445 37.3664 86.8477C37.7375 87.0469 38.0285 87.3203 38.2395 87.668C38.4543 88.0117 38.5715 88.4023 38.591 88.8398H37.5598C37.5402 88.5781 37.466 88.3418 37.3371 88.1309C37.2121 87.9199 37.0402 87.752 36.8215 87.627C36.6066 87.498 36.3547 87.4336 36.0656 87.4336C35.7336 87.4336 35.4543 87.5 35.2277 87.6328C35.0051 87.7617 34.8273 87.9375 34.6945 88.1602C34.5656 88.3789 34.4719 88.623 34.4133 88.8926C34.3586 89.1582 34.3313 89.4297 34.3313 89.707V89.9531C34.3313 90.2305 34.3586 90.5039 34.4133 90.7734C34.468 91.043 34.5598 91.2871 34.6887 91.5059C34.8215 91.7246 34.9992 91.9004 35.2219 92.0332C35.4484 92.1621 35.7297 92.2266 36.0656 92.2266ZM41.3875 84V93H40.2977V84H41.3875ZM47.4066 91.5352V86.6602H48.4965V93H47.4594L47.4066 91.5352ZM47.6117 90.1992L48.0629 90.1875C48.0629 90.6094 48.018 91 47.9281 91.3594C47.8422 91.7148 47.7016 92.0234 47.5063 92.2852C47.3109 92.5469 47.0551 92.752 46.7387 92.9004C46.4223 93.0449 46.0375 93.1172 45.5844 93.1172C45.2758 93.1172 44.9926 93.0723 44.7348 92.9824C44.4809 92.8926 44.2621 92.7539 44.0785 92.5664C43.8949 92.3789 43.7523 92.1348 43.6508 91.834C43.5531 91.5332 43.5043 91.1719 43.5043 90.75V86.6602H44.5883V90.7617C44.5883 91.0469 44.6195 91.2832 44.682 91.4707C44.7484 91.6543 44.8363 91.8008 44.9457 91.9102C45.059 92.0156 45.184 92.0898 45.3207 92.1328C45.4613 92.1758 45.6059 92.1973 45.7543 92.1973C46.2152 92.1973 46.5805 92.1094 46.85 91.9336C47.1195 91.7539 47.3129 91.5137 47.4301 91.2129C47.5512 90.9082 47.6117 90.5703 47.6117 90.1992ZM54.5449 91.7695V84H55.6348V93H54.6387L54.5449 91.7695ZM50.2793 89.9004V89.7773C50.2793 89.293 50.3379 88.8535 50.4551 88.459C50.5762 88.0605 50.7461 87.7188 50.9648 87.4336C51.1875 87.1484 51.4512 86.9297 51.7559 86.7773C52.0645 86.6211 52.4082 86.543 52.7871 86.543C53.1855 86.543 53.5332 86.6133 53.8301 86.7539C54.1309 86.8906 54.3848 87.0918 54.5918 87.3574C54.8027 87.6191 54.9688 87.9355 55.0898 88.3066C55.2109 88.6777 55.2949 89.0977 55.3418 89.5664V90.1055C55.2988 90.5703 55.2148 90.9883 55.0898 91.3594C54.9688 91.7305 54.8027 92.0469 54.5918 92.3086C54.3848 92.5703 54.1309 92.7715 53.8301 92.9121C53.5293 93.0488 53.1777 93.1172 52.7754 93.1172C52.4043 93.1172 52.0645 93.0371 51.7559 92.877C51.4512 92.7168 51.1875 92.4922 50.9648 92.2031C50.7461 91.9141 50.5762 91.5742 50.4551 91.1836C50.3379 90.7891 50.2793 90.3613 50.2793 89.9004ZM51.3691 89.7773V89.9004C51.3691 90.2168 51.4004 90.5137 51.4629 90.791C51.5293 91.0684 51.6309 91.3125 51.7676 91.5234C51.9043 91.7344 52.0781 91.9004 52.2891 92.0215C52.5 92.1387 52.752 92.1973 53.0449 92.1973C53.4043 92.1973 53.6992 92.1211 53.9297 91.9688C54.1641 91.8164 54.3516 91.6152 54.4922 91.3652C54.6328 91.1152 54.7422 90.8438 54.8203 90.5508V89.1387C54.7734 88.9238 54.7051 88.7168 54.6152 88.5176C54.5293 88.3145 54.416 88.1348 54.2754 87.9785C54.1387 87.8184 53.9688 87.6914 53.7656 87.5977C53.5664 87.5039 53.3301 87.457 53.0566 87.457C52.7598 87.457 52.5039 87.5195 52.2891 87.6445C52.0781 87.7656 51.9043 87.9336 51.7676 88.1484C51.6309 88.3594 51.5293 88.6055 51.4629 88.8867C51.4004 89.1641 51.3691 89.4609 51.3691 89.7773ZM60.3531 93.1172C59.9117 93.1172 59.5113 93.043 59.152 92.8945C58.7965 92.7422 58.4898 92.5293 58.232 92.2559C57.9781 91.9824 57.7828 91.6582 57.6461 91.2832C57.5094 90.9082 57.441 90.498 57.441 90.0527V89.8066C57.441 89.291 57.5172 88.832 57.6695 88.4297C57.8219 88.0234 58.0289 87.6797 58.2906 87.3984C58.5523 87.1172 58.8492 86.9043 59.1813 86.7598C59.5133 86.6152 59.857 86.543 60.2125 86.543C60.6656 86.543 61.0563 86.6211 61.3844 86.7773C61.7164 86.9336 61.9879 87.1523 62.1988 87.4336C62.4098 87.7109 62.566 88.0391 62.6676 88.418C62.7691 88.793 62.8199 89.2031 62.8199 89.6484V90.1348H58.0855V89.25H61.7359V89.168C61.7203 88.8867 61.6617 88.6133 61.5602 88.3477C61.4625 88.082 61.3063 87.8633 61.0914 87.6914C60.8766 87.5195 60.5836 87.4336 60.2125 87.4336C59.9664 87.4336 59.7398 87.4863 59.5328 87.5918C59.3258 87.6934 59.148 87.8457 58.9996 88.0488C58.8512 88.252 58.7359 88.5 58.6539 88.793C58.5719 89.0859 58.5309 89.4238 58.5309 89.8066V90.0527C58.5309 90.3535 58.5719 90.6367 58.6539 90.9023C58.7398 91.1641 58.8629 91.3945 59.023 91.5938C59.1871 91.793 59.3844 91.9492 59.6148 92.0625C59.8492 92.1758 60.1148 92.2324 60.4117 92.2324C60.7945 92.2324 61.1188 92.1543 61.3844 91.998C61.65 91.8418 61.8824 91.6328 62.0816 91.3711L62.7379 91.8926C62.6012 92.0996 62.4273 92.2969 62.2164 92.4844C62.0055 92.6719 61.7457 92.8242 61.4371 92.9414C61.1324 93.0586 60.7711 93.1172 60.3531 93.1172ZM70.7801 91.7051L73.2938 84.4688H74.5184L71.3602 93H70.4871L70.7801 91.7051ZM68.4305 84.4688L70.9207 91.7051L71.2313 93H70.3582L67.2059 84.4688H68.4305ZM78.7797 85.2246L75.9555 93H74.8012L78.0531 84.4688H78.7973L78.7797 85.2246ZM81.1469 93L78.3168 85.2246L78.2992 84.4688H79.0434L82.307 93H81.1469ZM81.0004 89.8418V90.7676H76.2074V89.8418H81.0004ZM86.2402 84.4688V93H85.127V84.4688H86.2402ZM88.9824 84.4688V85.3945H82.3906V84.4688H88.9824Z" fill="#D4E3FF"/>
<path d="M44.2086 15.4688V16.0781L40.6754 24H39.5328L43.0602 16.3594H38.443V15.4688H44.2086ZM45.9797 23.4258C45.9797 23.2422 46.0363 23.0879 46.1496 22.9629C46.2668 22.834 46.4348 22.7695 46.6535 22.7695C46.8723 22.7695 47.0383 22.834 47.1516 22.9629C47.2687 23.0879 47.3273 23.2422 47.3273 23.4258C47.3273 23.6055 47.2687 23.7578 47.1516 23.8828C47.0383 24.0078 46.8723 24.0703 46.6535 24.0703C46.4348 24.0703 46.2668 24.0078 46.1496 23.8828C46.0363 23.7578 45.9797 23.6055 45.9797 23.4258ZM50.4871 23.0918H50.5984C51.2234 23.0918 51.7312 23.0039 52.1219 22.8281C52.5125 22.6523 52.8133 22.416 53.0242 22.1191C53.2352 21.8223 53.3797 21.4883 53.4578 21.1172C53.5359 20.7422 53.575 20.3574 53.575 19.9629V18.6562C53.575 18.2695 53.5301 17.9258 53.4402 17.625C53.3543 17.3242 53.2332 17.0723 53.077 16.8691C52.9246 16.666 52.7508 16.5117 52.5555 16.4062C52.3602 16.3008 52.1531 16.248 51.9344 16.248C51.6844 16.248 51.4598 16.2988 51.2605 16.4004C51.0652 16.498 50.8992 16.6367 50.7625 16.8164C50.6297 16.9961 50.5281 17.207 50.4578 17.4492C50.3875 17.6914 50.3523 17.9551 50.3523 18.2402C50.3523 18.4941 50.3836 18.7402 50.4461 18.9785C50.5086 19.2168 50.6043 19.4316 50.7332 19.623C50.8621 19.8145 51.0223 19.9668 51.2137 20.0801C51.409 20.1895 51.6375 20.2441 51.8992 20.2441C52.1414 20.2441 52.368 20.1973 52.5789 20.1035C52.7937 20.0059 52.9832 19.875 53.1473 19.7109C53.3152 19.543 53.448 19.3535 53.5457 19.1426C53.6473 18.9316 53.7059 18.7109 53.7215 18.4805H54.2371C54.2371 18.8047 54.1727 19.125 54.0437 19.4414C53.9187 19.7539 53.743 20.0391 53.5164 20.2969C53.2898 20.5547 53.0242 20.7617 52.7195 20.918C52.4148 21.0703 52.0828 21.1465 51.7234 21.1465C51.3016 21.1465 50.9363 21.0645 50.6277 20.9004C50.3191 20.7363 50.0652 20.5176 49.866 20.2441C49.6707 19.9707 49.5242 19.666 49.4266 19.3301C49.3328 18.9902 49.2859 18.6465 49.2859 18.2988C49.2859 17.8926 49.3426 17.5117 49.4559 17.1562C49.5691 16.8008 49.7371 16.4883 49.9598 16.2188C50.1824 15.9453 50.4578 15.7324 50.7859 15.5801C51.118 15.4277 51.5008 15.3516 51.9344 15.3516C52.4227 15.3516 52.8387 15.4492 53.1824 15.6445C53.5262 15.8398 53.8055 16.1016 54.0203 16.4297C54.2391 16.7578 54.3992 17.127 54.5008 17.5371C54.6023 17.9473 54.6531 18.3691 54.6531 18.8027V19.1953C54.6531 19.6367 54.6238 20.0859 54.5652 20.543C54.5105 20.9961 54.4031 21.4297 54.243 21.8438C54.0867 22.2578 53.8582 22.6289 53.5574 22.957C53.2566 23.2812 52.8641 23.5391 52.3797 23.7305C51.8992 23.918 51.3055 24.0117 50.5984 24.0117H50.4871V23.0918ZM57.6371 23.0918H57.7484C58.3734 23.0918 58.8813 23.0039 59.2719 22.8281C59.6625 22.6523 59.9633 22.416 60.1742 22.1191C60.3852 21.8223 60.5297 21.4883 60.6078 21.1172C60.6859 20.7422 60.725 20.3574 60.725 19.9629V18.6562C60.725 18.2695 60.6801 17.9258 60.5902 17.625C60.5043 17.3242 60.3832 17.0723 60.227 16.8691C60.0746 16.666 59.9008 16.5117 59.7055 16.4062C59.5102 16.3008 59.3031 16.248 59.0844 16.248C58.8344 16.248 58.6098 16.2988 58.4105 16.4004C58.2152 16.498 58.0492 16.6367 57.9125 16.8164C57.7797 16.9961 57.6781 17.207 57.6078 17.4492C57.5375 17.6914 57.5023 17.9551 57.5023 18.2402C57.5023 18.4941 57.5336 18.7402 57.5961 18.9785C57.6586 19.2168 57.7543 19.4316 57.8832 19.623C58.0121 19.8145 58.1723 19.9668 58.3637 20.0801C58.559 20.1895 58.7875 20.2441 59.0492 20.2441C59.2914 20.2441 59.518 20.1973 59.7289 20.1035C59.9438 20.0059 60.1332 19.875 60.2973 19.7109C60.4652 19.543 60.598 19.3535 60.6957 19.1426C60.7973 18.9316 60.8559 18.7109 60.8715 18.4805H61.3871C61.3871 18.8047 61.3227 19.125 61.1938 19.4414C61.0688 19.7539 60.893 20.0391 60.6664 20.2969C60.4398 20.5547 60.1742 20.7617 59.8695 20.918C59.5648 21.0703 59.2328 21.1465 58.8734 21.1465C58.4516 21.1465 58.0863 21.0645 57.7777 20.9004C57.4691 20.7363 57.2152 20.5176 57.016 20.2441C56.8207 19.9707 56.6742 19.666 56.5766 19.3301C56.4828 18.9902 56.4359 18.6465 56.4359 18.2988C56.4359 17.8926 56.4926 17.5117 56.6059 17.1562C56.7191 16.8008 56.8871 16.4883 57.1098 16.2188C57.3324 15.9453 57.6078 15.7324 57.9359 15.5801C58.268 15.4277 58.6508 15.3516 59.0844 15.3516C59.5727 15.3516 59.9887 15.4492 60.3324 15.6445C60.6762 15.8398 60.9555 16.1016 61.1703 16.4297C61.3891 16.7578 61.5492 17.127 61.6508 17.5371C61.7523 17.9473 61.8031 18.3691 61.8031 18.8027V19.1953C61.8031 19.6367 61.7738 20.0859 61.7152 20.543C61.6605 20.9961 61.5531 21.4297 61.393 21.8438C61.2367 22.2578 61.0082 22.6289 60.7074 22.957C60.4066 23.2812 60.0141 23.5391 59.5297 23.7305C59.0492 23.918 58.4555 24.0117 57.7484 24.0117H57.6371V23.0918Z" fill="#A4C9FF"/>
<path d="M26.6215 9.12891V10.0195H20.4574V9.38086L24.2777 3.46875H25.1625L24.2133 5.17969L21.6879 9.12891H26.6215ZM25.432 3.46875V12H24.348V3.46875H25.432ZM33.3613 7.05469V8.35547C33.3613 9.05469 33.2988 9.64453 33.1738 10.125C33.0488 10.6055 32.8691 10.9922 32.6348 11.2852C32.4004 11.5781 32.1172 11.791 31.7852 11.9238C31.457 12.0527 31.0859 12.1172 30.6719 12.1172C30.3437 12.1172 30.041 12.0762 29.7637 11.9941C29.4863 11.9121 29.2363 11.7812 29.0137 11.6016C28.7949 11.418 28.6074 11.1797 28.4512 10.8867C28.2949 10.5938 28.1758 10.2383 28.0937 9.82031C28.0117 9.40234 27.9707 8.91406 27.9707 8.35547V7.05469C27.9707 6.35547 28.0332 5.76953 28.1582 5.29688C28.2871 4.82422 28.4687 4.44531 28.7031 4.16016C28.9375 3.87109 29.2187 3.66406 29.5469 3.53906C29.8789 3.41406 30.25 3.35156 30.6602 3.35156C30.9922 3.35156 31.2969 3.39258 31.5742 3.47461C31.8555 3.55273 32.1055 3.67969 32.3242 3.85547C32.543 4.02734 32.7285 4.25781 32.8809 4.54688C33.0371 4.83203 33.1562 5.18164 33.2383 5.5957C33.3203 6.00977 33.3613 6.49609 33.3613 7.05469ZM32.2715 8.53125V6.87305C32.2715 6.49023 32.248 6.1543 32.2012 5.86523C32.1582 5.57227 32.0937 5.32227 32.0078 5.11523C31.9219 4.9082 31.8125 4.74023 31.6797 4.61133C31.5508 4.48242 31.4004 4.38867 31.2285 4.33008C31.0605 4.26758 30.8711 4.23633 30.6602 4.23633C30.4023 4.23633 30.1738 4.28516 29.9746 4.38281C29.7754 4.47656 29.6074 4.62695 29.4707 4.83398C29.3379 5.04102 29.2363 5.3125 29.166 5.64844C29.0957 5.98438 29.0605 6.39258 29.0605 6.87305V8.53125C29.0605 8.91406 29.082 9.25195 29.125 9.54492C29.1719 9.83789 29.2402 10.0918 29.3301 10.3066C29.4199 10.5176 29.5293 10.6914 29.6582 10.8281C29.7871 10.9648 29.9355 11.0664 30.1035 11.1328C30.2754 11.1953 30.4648 11.2266 30.6719 11.2266C30.9375 11.2266 31.1699 11.1758 31.3691 11.0742C31.5684 10.9727 31.7344 10.8145 31.8672 10.5996C32.0039 10.3809 32.1055 10.1016 32.1719 9.76172C32.2383 9.41797 32.2715 9.00781 32.2715 8.53125ZM35.0621 5.56055V5.10938C35.0621 4.78516 35.1324 4.49023 35.273 4.22461C35.4137 3.95898 35.6148 3.74609 35.8766 3.58594C36.1383 3.42578 36.4488 3.3457 36.8082 3.3457C37.1754 3.3457 37.4879 3.42578 37.7457 3.58594C38.0074 3.74609 38.2086 3.95898 38.3492 4.22461C38.4898 4.49023 38.5602 4.78516 38.5602 5.10938V5.56055C38.5602 5.87695 38.4898 6.16797 38.3492 6.43359C38.2125 6.69922 38.0133 6.91211 37.7516 7.07227C37.4937 7.23242 37.1832 7.3125 36.8199 7.3125C36.4566 7.3125 36.1422 7.23242 35.8766 7.07227C35.6148 6.91211 35.4137 6.69922 35.273 6.43359C35.1324 6.16797 35.0621 5.87695 35.0621 5.56055ZM35.8766 5.10938V5.56055C35.8766 5.74023 35.9098 5.91016 35.9762 6.07031C36.0465 6.23047 36.152 6.36133 36.2926 6.46289C36.4332 6.56055 36.609 6.60938 36.8199 6.60938C37.0309 6.60938 37.2047 6.56055 37.3414 6.46289C37.4781 6.36133 37.5797 6.23047 37.6461 6.07031C37.7125 5.91016 37.7457 5.74023 37.7457 5.56055V5.10938C37.7457 4.92578 37.7105 4.75391 37.6402 4.59375C37.5738 4.42969 37.4703 4.29883 37.3297 4.20117C37.193 4.09961 37.0191 4.04883 36.8082 4.04883C36.6012 4.04883 36.4273 4.09961 36.2867 4.20117C36.15 4.29883 36.0465 4.42969 35.9762 4.59375C35.9098 4.75391 35.8766 4.92578 35.8766 5.10938ZM39.2164 10.3652V9.9082C39.2164 9.58789 39.2867 9.29492 39.4273 9.0293C39.568 8.76367 39.7691 8.55078 40.0309 8.39062C40.2926 8.23047 40.6031 8.15039 40.9625 8.15039C41.3297 8.15039 41.6422 8.23047 41.9 8.39062C42.1617 8.55078 42.3629 8.76367 42.5035 9.0293C42.6441 9.29492 42.7145 9.58789 42.7145 9.9082V10.3652C42.7145 10.6855 42.6441 10.9785 42.5035 11.2441C42.3668 11.5098 42.1676 11.7227 41.9059 11.8828C41.648 12.043 41.3375 12.123 40.9742 12.123C40.6109 12.123 40.2984 12.043 40.0367 11.8828C39.775 11.7227 39.5719 11.5098 39.4273 11.2441C39.2867 10.9785 39.2164 10.6855 39.2164 10.3652ZM40.0309 9.9082V10.3652C40.0309 10.5449 40.0641 10.7168 40.1305 10.8809C40.2008 11.041 40.3062 11.1719 40.4469 11.2734C40.5875 11.3711 40.7633 11.4199 40.9742 11.4199C41.1852 11.4199 41.359 11.3711 41.4957 11.2734C41.6363 11.1719 41.7398 11.041 41.8062 10.8809C41.8727 10.7207 41.9059 10.5488 41.9059 10.3652V9.9082C41.9059 9.72461 41.8707 9.55273 41.8004 9.39258C41.734 9.23242 41.6305 9.10352 41.4898 9.00586C41.3531 8.9043 41.1773 8.85352 40.9625 8.85352C40.7555 8.85352 40.5816 8.9043 40.441 9.00586C40.3043 9.10352 40.2008 9.23242 40.1305 9.39258C40.0641 9.55273 40.0309 9.72461 40.0309 9.9082ZM41.232 4.68164L37.066 11.3496L36.4566 10.9629L40.6227 4.29492L41.232 4.68164ZM47.5516 8.90039V8.76562C47.5516 8.30859 47.618 7.88477 47.7508 7.49414C47.8836 7.09961 48.075 6.75781 48.325 6.46875C48.575 6.17578 48.8777 5.94922 49.2332 5.78906C49.5887 5.625 49.9871 5.54297 50.4285 5.54297C50.8738 5.54297 51.2742 5.625 51.6297 5.78906C51.9891 5.94922 52.2937 6.17578 52.5437 6.46875C52.7977 6.75781 52.991 7.09961 53.1238 7.49414C53.2566 7.88477 53.323 8.30859 53.323 8.76562V8.90039C53.323 9.35742 53.2566 9.78125 53.1238 10.1719C52.991 10.5625 52.7977 10.9043 52.5437 11.1973C52.2937 11.4863 51.991 11.7129 51.6355 11.877C51.284 12.0371 50.8855 12.1172 50.4402 12.1172C49.9949 12.1172 49.5945 12.0371 49.2391 11.877C48.8836 11.7129 48.5789 11.4863 48.325 11.1973C48.075 10.9043 47.8836 10.5625 47.7508 10.1719C47.618 9.78125 47.5516 9.35742 47.5516 8.90039ZM48.6355 8.76562V8.90039C48.6355 9.2168 48.6727 9.51562 48.7469 9.79688C48.8211 10.0742 48.9324 10.3203 49.0809 10.5352C49.2332 10.75 49.4227 10.9199 49.6492 11.0449C49.8758 11.166 50.1395 11.2266 50.4402 11.2266C50.7371 11.2266 50.9969 11.166 51.2195 11.0449C51.4461 10.9199 51.6336 10.75 51.782 10.5352C51.9305 10.3203 52.0418 10.0742 52.116 9.79688C52.1941 9.51562 52.2332 9.2168 52.2332 8.90039V8.76562C52.2332 8.45312 52.1941 8.1582 52.116 7.88086C52.0418 7.59961 51.9285 7.35156 51.7762 7.13672C51.6277 6.91797 51.4402 6.74609 51.2137 6.62109C50.991 6.49609 50.7293 6.43359 50.4285 6.43359C50.1316 6.43359 49.8699 6.49609 49.6434 6.62109C49.4207 6.74609 49.2332 6.91797 49.0809 7.13672C48.9324 7.35156 48.8211 7.59961 48.7469 7.88086C48.6727 8.1582 48.6355 8.45312 48.6355 8.76562ZM56.6996 12H55.6156V4.99219C55.6156 4.53516 55.6977 4.15039 55.8617 3.83789C56.0297 3.52148 56.2699 3.2832 56.5824 3.12305C56.8949 2.95898 57.266 2.87695 57.6957 2.87695C57.8207 2.87695 57.9457 2.88477 58.0707 2.90039C58.1996 2.91602 58.3246 2.93945 58.4457 2.9707L58.3871 3.85547C58.3051 3.83594 58.2113 3.82227 58.1059 3.81445C58.0043 3.80664 57.9027 3.80273 57.8012 3.80273C57.5707 3.80273 57.3715 3.84961 57.2035 3.94336C57.0395 4.0332 56.9145 4.16602 56.8285 4.3418C56.7426 4.51758 56.6996 4.73438 56.6996 4.99219V12ZM58.0473 5.66016V6.49219H54.6137V5.66016H58.0473ZM61.2715 12H60.1875V4.99219C60.1875 4.53516 60.2695 4.15039 60.4336 3.83789C60.6016 3.52148 60.8418 3.2832 61.1543 3.12305C61.4668 2.95898 61.8379 2.87695 62.2676 2.87695C62.3926 2.87695 62.5176 2.88477 62.6426 2.90039C62.7715 2.91602 62.8965 2.93945 63.0176 2.9707L62.959 3.85547C62.877 3.83594 62.7832 3.82227 62.6777 3.81445C62.5762 3.80664 62.4746 3.80273 62.373 3.80273C62.1426 3.80273 61.9434 3.84961 61.7754 3.94336C61.6113 4.0332 61.4863 4.16602 61.4004 4.3418C61.3145 4.51758 61.2715 4.73438 61.2715 4.99219V12ZM62.6191 5.66016V6.49219H59.1855V5.66016H62.6191Z" fill="#A4C8FF"/>
</svg>
