<svg width="118" height="40" viewBox="0 0 118 40" fill="none" xmlns="http://www.w3.org/2000/svg">
<path fill-rule="evenodd" clip-rule="evenodd" d="M20 40C31.0457 40 40 31.0457 40 20C40 8.9543 31.0457 0 20 0C8.9543 0 0 8.9543 0 20C0 31.0457 8.9543 40 20 40Z" fill="#D4E3FF"/>
<path d="M17.0782 24.3105L12.872 20.1042L11.4396 21.5265L17.0782 27.165L29.1824 15.0608L27.7602 13.6385L17.0782 24.3105Z" fill="#195FA7"/>
<path d="M52.0312 20.0098H49.8691L49.8574 19.1016H51.8203C52.1445 19.1016 52.4277 19.0469 52.6699 18.9375C52.9121 18.8281 53.0996 18.6719 53.2324 18.4688C53.3691 18.2617 53.4375 18.0156 53.4375 17.7305C53.4375 17.418 53.377 17.1641 53.2559 16.9688C53.1387 16.7695 52.957 16.625 52.7109 16.5352C52.4688 16.4414 52.1602 16.3945 51.7852 16.3945H50.1211V24H48.9902V15.4688H51.7852C52.2227 15.4688 52.6133 15.5137 52.957 15.6035C53.3008 15.6895 53.5918 15.8262 53.8301 16.0137C54.0723 16.1973 54.2559 16.4316 54.3809 16.7168C54.5059 17.002 54.5684 17.3438 54.5684 17.7422C54.5684 18.0938 54.4785 18.4121 54.2988 18.6973C54.1191 18.9785 53.8691 19.209 53.5488 19.3887C53.2324 19.5684 52.8613 19.6836 52.4355 19.7344L52.0312 20.0098ZM51.9785 24H49.4238L50.0625 23.0801H51.9785C52.3379 23.0801 52.6426 23.0176 52.8926 22.8926C53.1465 22.7676 53.3398 22.5918 53.4727 22.3652C53.6055 22.1348 53.6719 21.8633 53.6719 21.5508C53.6719 21.2344 53.6152 20.9609 53.502 20.7305C53.3887 20.5 53.2109 20.3223 52.9688 20.1973C52.7266 20.0723 52.4141 20.0098 52.0312 20.0098H50.4199L50.4316 19.1016H52.6348L52.875 19.4297C53.2852 19.4648 53.6328 19.582 53.918 19.7812C54.2031 19.9766 54.4199 20.2266 54.5684 20.5312C54.7207 20.8359 54.7969 21.1719 54.7969 21.5391C54.7969 22.0703 54.6797 22.5195 54.4453 22.8867C54.2148 23.25 53.8887 23.5273 53.4668 23.7188C53.0449 23.9062 52.5488 24 51.9785 24ZM57.7867 18.6562V24H56.7027V17.6602H57.7574L57.7867 18.6562ZM59.7672 17.625L59.7613 18.6328C59.6715 18.6133 59.5855 18.6016 59.5035 18.5977C59.4254 18.5898 59.3355 18.5859 59.234 18.5859C58.984 18.5859 58.7633 18.625 58.5719 18.7031C58.3805 18.7812 58.2184 18.8906 58.0855 19.0312C57.9527 19.1719 57.8473 19.3398 57.7691 19.5352C57.6949 19.7266 57.6461 19.9375 57.6227 20.168L57.318 20.3438C57.318 19.9609 57.3551 19.6016 57.4293 19.2656C57.5074 18.9297 57.6266 18.6328 57.7867 18.375C57.9469 18.1133 58.15 17.9102 58.3961 17.7656C58.6461 17.6172 58.943 17.543 59.2867 17.543C59.3648 17.543 59.4547 17.5527 59.5563 17.5723C59.6578 17.5879 59.7281 17.6055 59.7672 17.625ZM64.673 22.916V19.6523C64.673 19.4023 64.6223 19.1855 64.5207 19.002C64.423 18.8145 64.2746 18.6699 64.0754 18.5684C63.8762 18.4668 63.6301 18.416 63.3371 18.416C63.0637 18.416 62.8234 18.4629 62.6164 18.5566C62.4133 18.6504 62.2531 18.7734 62.1359 18.9258C62.0227 19.0781 61.966 19.2422 61.966 19.418H60.882C60.882 19.1914 60.9406 18.9668 61.0578 18.7441C61.175 18.5215 61.343 18.3203 61.5617 18.1406C61.7844 17.957 62.05 17.8125 62.3586 17.707C62.6711 17.5977 63.0188 17.543 63.4016 17.543C63.8625 17.543 64.2688 17.6211 64.6203 17.7773C64.9758 17.9336 65.2531 18.1699 65.4523 18.4863C65.6555 18.7988 65.757 19.1914 65.757 19.6641V22.6172C65.757 22.8281 65.7746 23.0527 65.8098 23.291C65.8488 23.5293 65.9055 23.7344 65.9797 23.9062V24H64.8488C64.7941 23.875 64.7512 23.709 64.7199 23.502C64.6887 23.291 64.673 23.0957 64.673 22.916ZM64.8605 20.1562L64.8723 20.918H63.7766C63.468 20.918 63.1926 20.9434 62.9504 20.9941C62.7082 21.041 62.5051 21.1133 62.341 21.2109C62.177 21.3086 62.052 21.4316 61.966 21.5801C61.8801 21.7246 61.8371 21.8945 61.8371 22.0898C61.8371 22.2891 61.882 22.4707 61.9719 22.6348C62.0617 22.7988 62.1965 22.9297 62.3762 23.0273C62.5598 23.1211 62.7844 23.168 63.05 23.168C63.382 23.168 63.675 23.0977 63.9289 22.957C64.1828 22.8164 64.384 22.6445 64.5324 22.4414C64.6848 22.2383 64.7668 22.041 64.7785 21.8496L65.2414 22.3711C65.2141 22.5352 65.1398 22.7168 65.0188 22.916C64.8977 23.1152 64.7355 23.3066 64.5324 23.4902C64.3332 23.6699 64.0949 23.8203 63.8176 23.9414C63.5441 24.0586 63.2355 24.1172 62.8918 24.1172C62.4621 24.1172 62.0852 24.0332 61.7609 23.8652C61.4406 23.6973 61.1906 23.4727 61.0109 23.1914C60.8352 22.9062 60.7473 22.5879 60.7473 22.2363C60.7473 21.8965 60.8137 21.5977 60.9465 21.3398C61.0793 21.0781 61.2707 20.8613 61.5207 20.6895C61.7707 20.5137 62.0715 20.3809 62.423 20.291C62.7746 20.2012 63.1672 20.1562 63.6008 20.1562H64.8605ZM68.9461 19.0137V24H67.8621V17.6602H68.8875L68.9461 19.0137ZM68.6883 20.5898L68.2371 20.5723C68.241 20.1387 68.3055 19.7383 68.4305 19.3711C68.5555 19 68.7313 18.6777 68.9578 18.4043C69.1844 18.1309 69.4539 17.9199 69.7664 17.7715C70.0828 17.6191 70.4324 17.543 70.8152 17.543C71.1277 17.543 71.409 17.5859 71.659 17.6719C71.909 17.7539 72.1219 17.8867 72.2977 18.0703C72.4773 18.2539 72.6141 18.4922 72.7078 18.7852C72.8016 19.0742 72.8484 19.4277 72.8484 19.8457V24H71.7586V19.834C71.7586 19.502 71.7098 19.2363 71.6121 19.0371C71.5145 18.834 71.3719 18.6875 71.1844 18.5977C70.9969 18.5039 70.7664 18.457 70.493 18.457C70.2234 18.457 69.9773 18.5137 69.7547 18.627C69.5359 18.7402 69.3465 18.8965 69.1863 19.0957C69.0301 19.2949 68.907 19.5234 68.8172 19.7812C68.7313 20.0352 68.6883 20.3047 68.6883 20.5898ZM78.891 22.7695V15H79.9809V24H78.9848L78.891 22.7695ZM74.6254 20.9004V20.7773C74.6254 20.293 74.684 19.8535 74.8012 19.459C74.9223 19.0605 75.0922 18.7188 75.3109 18.4336C75.5336 18.1484 75.7973 17.9297 76.102 17.7773C76.4105 17.6211 76.7543 17.543 77.1332 17.543C77.5316 17.543 77.8793 17.6133 78.1762 17.7539C78.477 17.8906 78.7309 18.0918 78.9379 18.3574C79.1488 18.6191 79.3148 18.9355 79.4359 19.3066C79.557 19.6777 79.641 20.0977 79.6879 20.5664V21.1055C79.6449 21.5703 79.5609 21.9883 79.4359 22.3594C79.3148 22.7305 79.1488 23.0469 78.9379 23.3086C78.7309 23.5703 78.477 23.7715 78.1762 23.9121C77.8754 24.0488 77.5238 24.1172 77.1215 24.1172C76.7504 24.1172 76.4105 24.0371 76.102 23.877C75.7973 23.7168 75.5336 23.4922 75.3109 23.2031C75.0922 22.9141 74.9223 22.5742 74.8012 22.1836C74.684 21.7891 74.6254 21.3613 74.6254 20.9004ZM75.7152 20.7773V20.9004C75.7152 21.2168 75.7465 21.5137 75.809 21.791C75.8754 22.0684 75.977 22.3125 76.1137 22.5234C76.2504 22.7344 76.4242 22.9004 76.6352 23.0215C76.8461 23.1387 77.098 23.1973 77.391 23.1973C77.7504 23.1973 78.0453 23.1211 78.2758 22.9688C78.5102 22.8164 78.6977 22.6152 78.8383 22.3652C78.9789 22.1152 79.0883 21.8438 79.1664 21.5508V20.1387C79.1195 19.9238 79.0512 19.7168 78.9613 19.5176C78.8754 19.3145 78.7621 19.1348 78.6215 18.9785C78.4848 18.8184 78.3148 18.6914 78.1117 18.5977C77.9125 18.5039 77.6762 18.457 77.4027 18.457C77.1059 18.457 76.85 18.5195 76.6352 18.6445C76.4242 18.7656 76.2504 18.9336 76.1137 19.1484C75.977 19.3594 75.8754 19.6055 75.809 19.8867C75.7465 20.1641 75.7152 20.4609 75.7152 20.7773ZM92.1715 15.4688V24H91.0348L86.7398 17.4199V24H85.609V15.4688H86.7398L91.0523 22.0664V15.4688H92.1715ZM98.1496 22.916V19.6523C98.1496 19.4023 98.0988 19.1855 97.9973 19.002C97.8996 18.8145 97.7512 18.6699 97.552 18.5684C97.3527 18.4668 97.1066 18.416 96.8137 18.416C96.5402 18.416 96.3 18.4629 96.093 18.5566C95.8898 18.6504 95.7297 18.7734 95.6125 18.9258C95.4992 19.0781 95.4426 19.2422 95.4426 19.418H94.3586C94.3586 19.1914 94.4172 18.9668 94.5344 18.7441C94.6516 18.5215 94.8195 18.3203 95.0383 18.1406C95.2609 17.957 95.5266 17.8125 95.8352 17.707C96.1477 17.5977 96.4953 17.543 96.8781 17.543C97.3391 17.543 97.7453 17.6211 98.0969 17.7773C98.4523 17.9336 98.7297 18.1699 98.9289 18.4863C99.132 18.7988 99.2336 19.1914 99.2336 19.6641V22.6172C99.2336 22.8281 99.2512 23.0527 99.2863 23.291C99.3254 23.5293 99.382 23.7344 99.4562 23.9062V24H98.3254C98.2707 23.875 98.2277 23.709 98.1965 23.502C98.1652 23.291 98.1496 23.0957 98.1496 22.916ZM98.3371 20.1562L98.3488 20.918H97.2531C96.9445 20.918 96.6691 20.9434 96.427 20.9941C96.1848 21.041 95.9816 21.1133 95.8176 21.2109C95.6535 21.3086 95.5285 21.4316 95.4426 21.5801C95.3566 21.7246 95.3137 21.8945 95.3137 22.0898C95.3137 22.2891 95.3586 22.4707 95.4484 22.6348C95.5383 22.7988 95.673 22.9297 95.8527 23.0273C96.0363 23.1211 96.2609 23.168 96.5266 23.168C96.8586 23.168 97.1516 23.0977 97.4055 22.957C97.6594 22.8164 97.8605 22.6445 98.009 22.4414C98.1613 22.2383 98.2434 22.041 98.2551 21.8496L98.718 22.3711C98.6906 22.5352 98.6164 22.7168 98.4953 22.916C98.3742 23.1152 98.2121 23.3066 98.009 23.4902C97.8098 23.6699 97.5715 23.8203 97.2941 23.9414C97.0207 24.0586 96.7121 24.1172 96.3684 24.1172C95.9387 24.1172 95.5617 24.0332 95.2375 23.8652C94.9172 23.6973 94.6672 23.4727 94.4875 23.1914C94.3117 22.9062 94.2238 22.5879 94.2238 22.2363C94.2238 21.8965 94.2902 21.5977 94.423 21.3398C94.5559 21.0781 94.7473 20.8613 94.9973 20.6895C95.2473 20.5137 95.548 20.3809 95.8996 20.291C96.2512 20.2012 96.6437 20.1562 97.0773 20.1562H98.3371ZM102.417 18.9199V24H101.327V17.6602H102.358L102.417 18.9199ZM102.194 20.5898L101.69 20.5723C101.694 20.1387 101.751 19.7383 101.86 19.3711C101.97 19 102.132 18.6777 102.346 18.4043C102.561 18.1309 102.829 17.9199 103.149 17.7715C103.47 17.6191 103.841 17.543 104.263 17.543C104.559 17.543 104.833 17.5859 105.083 17.6719C105.333 17.7539 105.55 17.8848 105.733 18.0645C105.917 18.2441 106.059 18.4746 106.161 18.7559C106.263 19.0371 106.313 19.377 106.313 19.7754V24H105.229V19.8281C105.229 19.4961 105.173 19.2305 105.059 19.0312C104.95 18.832 104.794 18.6875 104.591 18.5977C104.388 18.5039 104.149 18.457 103.876 18.457C103.555 18.457 103.288 18.5137 103.073 18.627C102.858 18.7402 102.686 18.8965 102.557 19.0957C102.429 19.2949 102.335 19.5234 102.276 19.7812C102.221 20.0352 102.194 20.3047 102.194 20.5898ZM106.302 19.9922L105.575 20.2148C105.579 19.8672 105.636 19.5332 105.745 19.2129C105.858 18.8926 106.02 18.6074 106.231 18.3574C106.446 18.1074 106.71 17.9102 107.022 17.7656C107.335 17.6172 107.692 17.543 108.095 17.543C108.434 17.543 108.735 17.5879 108.997 17.6777C109.263 17.7676 109.485 17.9062 109.665 18.0938C109.848 18.2773 109.987 18.5137 110.081 18.8027C110.175 19.0918 110.221 19.4355 110.221 19.834V24H109.132V19.8223C109.132 19.4668 109.075 19.1914 108.962 18.9961C108.852 18.7969 108.696 18.6582 108.493 18.5801C108.294 18.498 108.055 18.457 107.778 18.457C107.54 18.457 107.329 18.498 107.145 18.5801C106.962 18.6621 106.807 18.7754 106.682 18.9199C106.557 19.0605 106.462 19.2227 106.395 19.4062C106.333 19.5898 106.302 19.7852 106.302 19.9922ZM114.893 24.1172C114.452 24.1172 114.051 24.043 113.692 23.8945C113.336 23.7422 113.03 23.5293 112.772 23.2559C112.518 22.9824 112.323 22.6582 112.186 22.2832C112.049 21.9082 111.981 21.498 111.981 21.0527V20.8066C111.981 20.291 112.057 19.832 112.209 19.4297C112.362 19.0234 112.569 18.6797 112.83 18.3984C113.092 18.1172 113.389 17.9043 113.721 17.7598C114.053 17.6152 114.397 17.543 114.752 17.543C115.205 17.543 115.596 17.6211 115.924 17.7773C116.256 17.9336 116.528 18.1523 116.739 18.4336C116.95 18.7109 117.106 19.0391 117.207 19.418C117.309 19.793 117.36 20.2031 117.36 20.6484V21.1348H112.625V20.25H116.276V20.168C116.26 19.8867 116.202 19.6133 116.1 19.3477C116.002 19.082 115.846 18.8633 115.631 18.6914C115.416 18.5195 115.123 18.4336 114.752 18.4336C114.506 18.4336 114.28 18.4863 114.073 18.5918C113.866 18.6934 113.688 18.8457 113.539 19.0488C113.391 19.252 113.276 19.5 113.194 19.793C113.112 20.0859 113.071 20.4238 113.071 20.8066V21.0527C113.071 21.3535 113.112 21.6367 113.194 21.9023C113.28 22.1641 113.403 22.3945 113.563 22.5938C113.727 22.793 113.924 22.9492 114.155 23.0625C114.389 23.1758 114.655 23.2324 114.952 23.2324C115.334 23.2324 115.659 23.1543 115.924 22.998C116.19 22.8418 116.422 22.6328 116.621 22.3711L117.278 22.8926C117.141 23.0996 116.967 23.2969 116.756 23.4844C116.545 23.6719 116.286 23.8242 115.977 23.9414C115.672 24.0586 115.311 24.1172 114.893 24.1172Z" fill="#D4E3FF"/>
</svg>
