<svg width="96" height="16" viewBox="0 0 96 16" fill="none" xmlns="http://www.w3.org/2000/svg">
<path d="M93.0833 4.73919L92.2608 3.91669L89 7.17752L85.7392 3.91669L84.9167 4.73919L88.1775 8.00002L84.9167 11.2609L85.7392 12.0834L89 8.82252L92.2608 12.0834L93.0833 11.2609L89.8225 8.00002L93.0833 4.73919Z" fill="#BA1A1A"/>
<path d="M7.55859 7.46484V8.00391C7.55859 8.64453 7.47852 9.21875 7.31836 9.72656C7.1582 10.2344 6.92773 10.666 6.62695 11.0215C6.32617 11.377 5.96484 11.6484 5.54297 11.8359C5.125 12.0234 4.65625 12.1172 4.13672 12.1172C3.63281 12.1172 3.16992 12.0234 2.74805 11.8359C2.33008 11.6484 1.9668 11.377 1.6582 11.0215C1.35352 10.666 1.11719 10.2344 0.949219 9.72656C0.78125 9.21875 0.697266 8.64453 0.697266 8.00391V7.46484C0.697266 6.82422 0.779297 6.25195 0.943359 5.74805C1.11133 5.24023 1.34766 4.80859 1.65234 4.45312C1.95703 4.09375 2.31836 3.82031 2.73633 3.63281C3.1582 3.44531 3.62109 3.35156 4.125 3.35156C4.64453 3.35156 5.11328 3.44531 5.53125 3.63281C5.95312 3.82031 6.31445 4.09375 6.61523 4.45312C6.91992 4.80859 7.15234 5.24023 7.3125 5.74805C7.47656 6.25195 7.55859 6.82422 7.55859 7.46484ZM6.43945 8.00391V7.45312C6.43945 6.94531 6.38672 6.49609 6.28125 6.10547C6.17969 5.71484 6.0293 5.38672 5.83008 5.12109C5.63086 4.85547 5.38672 4.6543 5.09766 4.51758C4.8125 4.38086 4.48828 4.3125 4.125 4.3125C3.77344 4.3125 3.45508 4.38086 3.16992 4.51758C2.88867 4.6543 2.64648 4.85547 2.44336 5.12109C2.24414 5.38672 2.08984 5.71484 1.98047 6.10547C1.87109 6.49609 1.81641 6.94531 1.81641 7.45312V8.00391C1.81641 8.51562 1.87109 8.96875 1.98047 9.36328C2.08984 9.75391 2.24609 10.084 2.44922 10.3535C2.65625 10.6191 2.90039 10.8203 3.18164 10.957C3.4668 11.0938 3.78516 11.1621 4.13672 11.1621C4.50391 11.1621 4.83008 11.0938 5.11523 10.957C5.40039 10.8203 5.64062 10.6191 5.83594 10.3535C6.03516 10.084 6.18555 9.75391 6.28711 9.36328C6.38867 8.96875 6.43945 8.51562 6.43945 8.00391ZM13.3668 10.5352V5.66016H14.4566V12H13.4195L13.3668 10.5352ZM13.5719 9.19922L14.023 9.1875C14.023 9.60938 13.9781 10 13.8883 10.3594C13.8023 10.7148 13.6617 11.0234 13.4664 11.2852C13.2711 11.5469 13.0152 11.752 12.6988 11.9004C12.3824 12.0449 11.9977 12.1172 11.5445 12.1172C11.2359 12.1172 10.9527 12.0723 10.6949 11.9824C10.441 11.8926 10.2223 11.7539 10.0387 11.5664C9.85508 11.3789 9.7125 11.1348 9.61094 10.834C9.51328 10.5332 9.46445 10.1719 9.46445 9.75V5.66016H10.5484V9.76172C10.5484 10.0469 10.5797 10.2832 10.6422 10.4707C10.7086 10.6543 10.7965 10.8008 10.9059 10.9102C11.0191 11.0156 11.1441 11.0898 11.2809 11.1328C11.4215 11.1758 11.566 11.1973 11.7145 11.1973C12.1754 11.1973 12.5406 11.1094 12.8102 10.9336C13.0797 10.7539 13.273 10.5137 13.3902 10.2129C13.5113 9.9082 13.5719 9.57031 13.5719 9.19922ZM19.1633 5.66016V6.49219H15.7355V5.66016H19.1633ZM16.8957 4.11914H17.9797V10.4297C17.9797 10.6445 18.0129 10.8066 18.0793 10.916C18.1457 11.0254 18.2316 11.0977 18.3371 11.1328C18.4426 11.168 18.5559 11.1855 18.677 11.1855C18.7668 11.1855 18.8605 11.1777 18.9582 11.1621C19.0598 11.1426 19.1359 11.127 19.1867 11.1152L19.1926 12C19.1066 12.0273 18.9934 12.0527 18.8527 12.0762C18.716 12.1035 18.55 12.1172 18.3547 12.1172C18.0891 12.1172 17.8449 12.0645 17.6223 11.959C17.3996 11.8535 17.2219 11.6777 17.0891 11.4316C16.9602 11.1816 16.8957 10.8457 16.8957 10.4238V4.11914ZM23.9242 8.90039V8.76562C23.9242 8.30859 23.9906 7.88477 24.1234 7.49414C24.2563 7.09961 24.4477 6.75781 24.6977 6.46875C24.9477 6.17578 25.2504 5.94922 25.6059 5.78906C25.9613 5.625 26.3598 5.54297 26.8012 5.54297C27.2465 5.54297 27.6469 5.625 28.0023 5.78906C28.3617 5.94922 28.6664 6.17578 28.9164 6.46875C29.1703 6.75781 29.3637 7.09961 29.4965 7.49414C29.6293 7.88477 29.6957 8.30859 29.6957 8.76562V8.90039C29.6957 9.35742 29.6293 9.78125 29.4965 10.1719C29.3637 10.5625 29.1703 10.9043 28.9164 11.1973C28.6664 11.4863 28.3637 11.7129 28.0082 11.877C27.6566 12.0371 27.2582 12.1172 26.8129 12.1172C26.3676 12.1172 25.9672 12.0371 25.6117 11.877C25.2563 11.7129 24.9516 11.4863 24.6977 11.1973C24.4477 10.9043 24.2563 10.5625 24.1234 10.1719C23.9906 9.78125 23.9242 9.35742 23.9242 8.90039ZM25.0082 8.76562V8.90039C25.0082 9.2168 25.0453 9.51562 25.1195 9.79688C25.1938 10.0742 25.3051 10.3203 25.4535 10.5352C25.6059 10.75 25.7953 10.9199 26.0219 11.0449C26.2484 11.166 26.5121 11.2266 26.8129 11.2266C27.1098 11.2266 27.3695 11.166 27.5922 11.0449C27.8188 10.9199 28.0063 10.75 28.1547 10.5352C28.3031 10.3203 28.4145 10.0742 28.4887 9.79688C28.5668 9.51562 28.6059 9.2168 28.6059 8.90039V8.76562C28.6059 8.45312 28.5668 8.1582 28.4887 7.88086C28.4145 7.59961 28.3012 7.35156 28.1488 7.13672C28.0004 6.91797 27.8129 6.74609 27.5863 6.62109C27.3637 6.49609 27.102 6.43359 26.8012 6.43359C26.5043 6.43359 26.2426 6.49609 26.016 6.62109C25.7934 6.74609 25.6059 6.91797 25.4535 7.13672C25.3051 7.35156 25.1938 7.59961 25.1195 7.88086C25.0453 8.1582 25.0082 8.45312 25.0082 8.76562ZM33.0723 12H31.9883V4.99219C31.9883 4.53516 32.0703 4.15039 32.2344 3.83789C32.4023 3.52148 32.6426 3.2832 32.9551 3.12305C33.2676 2.95898 33.6387 2.87695 34.0684 2.87695C34.1934 2.87695 34.3184 2.88477 34.4434 2.90039C34.5723 2.91602 34.6973 2.93945 34.8184 2.9707L34.7598 3.85547C34.6777 3.83594 34.584 3.82227 34.4785 3.81445C34.377 3.80664 34.2754 3.80273 34.1738 3.80273C33.9434 3.80273 33.7441 3.84961 33.5762 3.94336C33.4121 4.0332 33.2871 4.16602 33.2012 4.3418C33.1152 4.51758 33.0723 4.73438 33.0723 4.99219V12ZM34.4199 5.66016V6.49219H30.9863V5.66016H34.4199ZM43.0949 10.3184C43.0949 10.1621 43.0598 10.0176 42.9895 9.88477C42.923 9.74805 42.7844 9.625 42.5734 9.51562C42.3664 9.40234 42.0539 9.30469 41.6359 9.22266C41.2844 9.14844 40.966 9.06055 40.6809 8.95898C40.3996 8.85742 40.1594 8.73438 39.9602 8.58984C39.7648 8.44531 39.6145 8.27539 39.509 8.08008C39.4035 7.88477 39.3508 7.65625 39.3508 7.39453C39.3508 7.14453 39.4055 6.9082 39.5148 6.68555C39.6281 6.46289 39.7863 6.26562 39.9895 6.09375C40.1965 5.92188 40.4445 5.78711 40.7336 5.68945C41.0227 5.5918 41.3449 5.54297 41.7004 5.54297C42.2082 5.54297 42.6418 5.63281 43.0012 5.8125C43.3605 5.99219 43.6359 6.23242 43.8273 6.5332C44.0187 6.83008 44.1145 7.16016 44.1145 7.52344H43.0305C43.0305 7.34766 42.9777 7.17773 42.8723 7.01367C42.7707 6.8457 42.6203 6.70703 42.4211 6.59766C42.2258 6.48828 41.9855 6.43359 41.7004 6.43359C41.3996 6.43359 41.1555 6.48047 40.968 6.57422C40.7844 6.66406 40.6496 6.7793 40.5637 6.91992C40.4816 7.06055 40.4406 7.20898 40.4406 7.36523C40.4406 7.48242 40.4602 7.58789 40.4992 7.68164C40.5422 7.77148 40.6164 7.85547 40.7219 7.93359C40.8273 8.00781 40.9758 8.07812 41.1672 8.14453C41.3586 8.21094 41.6027 8.27734 41.8996 8.34375C42.4191 8.46094 42.8469 8.60156 43.1828 8.76562C43.5187 8.92969 43.7687 9.13086 43.9328 9.36914C44.0969 9.60742 44.1789 9.89648 44.1789 10.2363C44.1789 10.5137 44.1203 10.7676 44.0031 10.998C43.8898 11.2285 43.7238 11.4277 43.5051 11.5957C43.2902 11.7598 43.0324 11.8887 42.7316 11.9824C42.4348 12.0723 42.1008 12.1172 41.7297 12.1172C41.1711 12.1172 40.6984 12.0176 40.3117 11.8184C39.925 11.6191 39.632 11.3613 39.4328 11.0449C39.2336 10.7285 39.134 10.3945 39.134 10.043H40.2238C40.2395 10.3398 40.3254 10.5762 40.4816 10.752C40.6379 10.9238 40.8293 11.0469 41.0559 11.1211C41.2824 11.1914 41.507 11.2266 41.7297 11.2266C42.0266 11.2266 42.2746 11.1875 42.4738 11.1094C42.677 11.0312 42.8312 10.9238 42.9367 10.7871C43.0422 10.6504 43.0949 10.4941 43.0949 10.3184ZM48.657 5.66016V6.49219H45.2293V5.66016H48.657ZM46.3895 4.11914H47.4734V10.4297C47.4734 10.6445 47.5066 10.8066 47.573 10.916C47.6395 11.0254 47.7254 11.0977 47.8309 11.1328C47.9363 11.168 48.0496 11.1855 48.1707 11.1855C48.2605 11.1855 48.3543 11.1777 48.452 11.1621C48.5535 11.1426 48.6297 11.127 48.6805 11.1152L48.6863 12C48.6004 12.0273 48.4871 12.0527 48.3465 12.0762C48.2098 12.1035 48.0438 12.1172 47.8484 12.1172C47.5828 12.1172 47.3387 12.0645 47.116 11.959C46.8934 11.8535 46.7156 11.6777 46.5828 11.4316C46.4539 11.1816 46.3895 10.8457 46.3895 10.4238V4.11914ZM49.9242 8.90039V8.76562C49.9242 8.30859 49.9906 7.88477 50.1234 7.49414C50.2562 7.09961 50.4477 6.75781 50.6977 6.46875C50.9477 6.17578 51.2504 5.94922 51.6059 5.78906C51.9613 5.625 52.3598 5.54297 52.8012 5.54297C53.2465 5.54297 53.6469 5.625 54.0023 5.78906C54.3617 5.94922 54.6664 6.17578 54.9164 6.46875C55.1703 6.75781 55.3637 7.09961 55.4965 7.49414C55.6293 7.88477 55.6957 8.30859 55.6957 8.76562V8.90039C55.6957 9.35742 55.6293 9.78125 55.4965 10.1719C55.3637 10.5625 55.1703 10.9043 54.9164 11.1973C54.6664 11.4863 54.3637 11.7129 54.0082 11.877C53.6566 12.0371 53.2582 12.1172 52.8129 12.1172C52.3676 12.1172 51.9672 12.0371 51.6117 11.877C51.2562 11.7129 50.9516 11.4863 50.6977 11.1973C50.4477 10.9043 50.2562 10.5625 50.1234 10.1719C49.9906 9.78125 49.9242 9.35742 49.9242 8.90039ZM51.0082 8.76562V8.90039C51.0082 9.2168 51.0453 9.51562 51.1195 9.79688C51.1937 10.0742 51.3051 10.3203 51.4535 10.5352C51.6059 10.75 51.7953 10.9199 52.0219 11.0449C52.2484 11.166 52.5121 11.2266 52.8129 11.2266C53.1098 11.2266 53.3695 11.166 53.5922 11.0449C53.8187 10.9199 54.0062 10.75 54.1547 10.5352C54.3031 10.3203 54.4145 10.0742 54.4887 9.79688C54.5668 9.51562 54.6059 9.2168 54.6059 8.90039V8.76562C54.6059 8.45312 54.5668 8.1582 54.4887 7.88086C54.4145 7.59961 54.3012 7.35156 54.1488 7.13672C54.0004 6.91797 53.8129 6.74609 53.5863 6.62109C53.3637 6.49609 53.102 6.43359 52.8012 6.43359C52.5043 6.43359 52.2426 6.49609 52.016 6.62109C51.7934 6.74609 51.6059 6.91797 51.4535 7.13672C51.3051 7.35156 51.1937 7.59961 51.1195 7.88086C51.0453 8.1582 51.0082 8.45312 51.0082 8.76562ZM59.9922 11.2266C60.25 11.2266 60.4883 11.1738 60.707 11.0684C60.9258 10.9629 61.1055 10.8184 61.2461 10.6348C61.3867 10.4473 61.4668 10.2344 61.4863 9.99609H62.5176C62.498 10.3711 62.3711 10.7207 62.1367 11.0449C61.9062 11.3652 61.6035 11.625 61.2285 11.8242C60.8535 12.0195 60.4414 12.1172 59.9922 12.1172C59.5156 12.1172 59.0996 12.0332 58.7441 11.8652C58.3926 11.6973 58.0996 11.4668 57.8652 11.1738C57.6348 10.8809 57.4609 10.5449 57.3438 10.166C57.2305 9.7832 57.1738 9.37891 57.1738 8.95312V8.70703C57.1738 8.28125 57.2305 7.87891 57.3438 7.5C57.4609 7.11719 57.6348 6.7793 57.8652 6.48633C58.0996 6.19336 58.3926 5.96289 58.7441 5.79492C59.0996 5.62695 59.5156 5.54297 59.9922 5.54297C60.4883 5.54297 60.9219 5.64453 61.293 5.84766C61.6641 6.04688 61.9551 6.32031 62.166 6.66797C62.3809 7.01172 62.498 7.40234 62.5176 7.83984H61.4863C61.4668 7.57812 61.3926 7.3418 61.2637 7.13086C61.1387 6.91992 60.9668 6.75195 60.748 6.62695C60.5332 6.49805 60.2812 6.43359 59.9922 6.43359C59.6602 6.43359 59.3809 6.5 59.1543 6.63281C58.9316 6.76172 58.7539 6.9375 58.6211 7.16016C58.4922 7.37891 58.3984 7.62305 58.3398 7.89258C58.2852 8.1582 58.2578 8.42969 58.2578 8.70703V8.95312C58.2578 9.23047 58.2852 9.50391 58.3398 9.77344C58.3945 10.043 58.4863 10.2871 58.6152 10.5059C58.748 10.7246 58.9258 10.9004 59.1484 11.0332C59.375 11.1621 59.6562 11.2266 59.9922 11.2266ZM65.2262 3V12H64.1363V3H65.2262ZM69.0992 5.66016L66.3336 8.61914L64.7867 10.2246L64.6988 9.07031L65.8063 7.74609L67.775 5.66016H69.0992ZM68.109 12L65.8473 8.97656L66.4098 8.00977L69.3863 12H68.109Z" fill="#BA1A1A"/>
</svg>
