<svg width="140" height="140" viewBox="0 0 140 140" fill="none" xmlns="http://www.w3.org/2000/svg">
<g filter="url(#filter0_dd_1_815)">
<rect x="8" y="6" width="124" height="124" rx="16" fill="#191C1E"/>
<rect x="8" y="6" width="124" height="124" rx="16" fill="#A4C8FF" fill-opacity="0.08"/>
</g>
<path d="M55.7896 75.2334V78.5732H32.6743V76.1782L47.0005 54.0078H50.3184L46.7588 60.4238L37.2886 75.2334H55.7896ZM51.3291 54.0078V86H47.2642V54.0078H51.3291ZM59.9863 83.8467C59.9863 83.1582 60.1987 82.5796 60.6235 82.1108C61.063 81.6274 61.6929 81.3857 62.5132 81.3857C63.3335 81.3857 63.9561 81.6274 64.3809 82.1108C64.8203 82.5796 65.04 83.1582 65.04 83.8467C65.04 84.5205 64.8203 85.0918 64.3809 85.5605C63.9561 86.0293 63.3335 86.2637 62.5132 86.2637C61.6929 86.2637 61.063 86.0293 60.6235 85.5605C60.1987 85.0918 59.9863 84.5205 59.9863 83.8467ZM76.4878 70.7729L73.2358 69.938L74.8398 54.0078H91.2534V57.7651H78.2896L77.3228 66.4663C77.9087 66.1294 78.6484 65.8145 79.542 65.5215C80.4502 65.2285 81.4902 65.082 82.6621 65.082C84.1416 65.082 85.4673 65.3384 86.6392 65.8511C87.811 66.3491 88.8071 67.0669 89.6274 68.0044C90.4624 68.9419 91.0996 70.0698 91.5391 71.3882C91.9785 72.7065 92.1982 74.1787 92.1982 75.8047C92.1982 77.3428 91.9858 78.7563 91.561 80.0454C91.1509 81.3345 90.5283 82.4624 89.6934 83.4292C88.8584 84.3813 87.8037 85.1211 86.5293 85.6484C85.2695 86.1758 83.7827 86.4395 82.0688 86.4395C80.7798 86.4395 79.5566 86.2637 78.3994 85.9121C77.2568 85.5459 76.2314 84.9966 75.3232 84.2642C74.4297 83.5171 73.6973 82.5942 73.126 81.4956C72.5693 80.3823 72.2178 79.0786 72.0713 77.5845H75.9385C76.1143 78.7856 76.4658 79.7964 76.9932 80.6167C77.5205 81.437 78.209 82.0596 79.0586 82.4844C79.9229 82.8945 80.9263 83.0996 82.0688 83.0996C83.0356 83.0996 83.8926 82.9312 84.6396 82.5942C85.3867 82.2573 86.0166 81.7739 86.5293 81.144C87.042 80.5142 87.4302 79.7524 87.6938 78.8589C87.9722 77.9653 88.1113 76.9619 88.1113 75.8486C88.1113 74.8379 87.9722 73.9004 87.6938 73.0361C87.4155 72.1719 86.998 71.4175 86.4414 70.7729C85.8994 70.1284 85.2329 69.6304 84.4419 69.2788C83.6509 68.9126 82.7427 68.7295 81.7173 68.7295C80.355 68.7295 79.3223 68.9126 78.6191 69.2788C77.9307 69.645 77.2202 70.1431 76.4878 70.7729Z" fill="#D4E3FF"/>
<path d="M101.559 56.4648V57.0039C101.559 57.6445 101.479 58.2188 101.318 58.7266C101.158 59.2344 100.928 59.666 100.627 60.0215C100.326 60.377 99.9648 60.6484 99.543 60.8359C99.125 61.0234 98.6562 61.1172 98.1367 61.1172C97.6328 61.1172 97.1699 61.0234 96.748 60.8359C96.3301 60.6484 95.9668 60.377 95.6582 60.0215C95.3535 59.666 95.1172 59.2344 94.9492 58.7266C94.7812 58.2188 94.6973 57.6445 94.6973 57.0039V56.4648C94.6973 55.8242 94.7793 55.252 94.9434 54.748C95.1113 54.2402 95.3477 53.8086 95.6523 53.4531C95.957 53.0938 96.3184 52.8203 96.7363 52.6328C97.1582 52.4453 97.6211 52.3516 98.125 52.3516C98.6445 52.3516 99.1133 52.4453 99.5312 52.6328C99.9531 52.8203 100.314 53.0938 100.615 53.4531C100.92 53.8086 101.152 54.2402 101.312 54.748C101.477 55.252 101.559 55.8242 101.559 56.4648ZM100.439 57.0039V56.4531C100.439 55.9453 100.387 55.4961 100.281 55.1055C100.18 54.7148 100.029 54.3867 99.8301 54.1211C99.6309 53.8555 99.3867 53.6543 99.0977 53.5176C98.8125 53.3809 98.4883 53.3125 98.125 53.3125C97.7734 53.3125 97.4551 53.3809 97.1699 53.5176C96.8887 53.6543 96.6465 53.8555 96.4434 54.1211C96.2441 54.3867 96.0898 54.7148 95.9805 55.1055C95.8711 55.4961 95.8164 55.9453 95.8164 56.4531V57.0039C95.8164 57.5156 95.8711 57.9688 95.9805 58.3633C96.0898 58.7539 96.2461 59.084 96.4492 59.3535C96.6562 59.6191 96.9004 59.8203 97.1816 59.957C97.4668 60.0938 97.7852 60.1621 98.1367 60.1621C98.5039 60.1621 98.8301 60.0938 99.1152 59.957C99.4004 59.8203 99.6406 59.6191 99.8359 59.3535C100.035 59.084 100.186 58.7539 100.287 58.3633C100.389 57.9688 100.439 57.5156 100.439 57.0039ZM104.009 52.4688H105.105L107.9 59.4238L110.689 52.4688H111.791L108.322 61H107.466L104.009 52.4688ZM103.652 52.4688H104.619L104.777 57.6719V61H103.652V52.4688ZM111.175 52.4688H112.142V61H111.017V57.6719L111.175 52.4688ZM114.529 52.4688H117.353C117.993 52.4688 118.534 52.5664 118.976 52.7617C119.421 52.957 119.759 53.2461 119.989 53.6289C120.224 54.0078 120.341 54.4746 120.341 55.0293C120.341 55.4199 120.261 55.7773 120.101 56.1016C119.945 56.4219 119.718 56.6953 119.421 56.9219C119.128 57.1445 118.777 57.3105 118.366 57.4199L118.05 57.543H115.396L115.384 56.623H117.388C117.794 56.623 118.132 56.5527 118.402 56.4121C118.671 56.2676 118.874 56.0742 119.011 55.832C119.148 55.5898 119.216 55.3223 119.216 55.0293C119.216 54.7012 119.152 54.4141 119.023 54.168C118.894 53.9219 118.691 53.7324 118.413 53.5996C118.14 53.4629 117.786 53.3945 117.353 53.3945H115.659V61H114.529V52.4688ZM119.515 61L117.441 57.1328L118.618 57.127L120.722 60.9297V61H119.515Z" fill="#D4E3FF"/>
<path d="M55.2031 103.469V112H54.0723V103.469H55.2031ZM58.5797 107.014V112H57.4957V105.66H58.5211L58.5797 107.014ZM58.3219 108.59L57.8707 108.572C57.8746 108.139 57.9391 107.738 58.0641 107.371C58.1891 107 58.3648 106.678 58.5914 106.404C58.818 106.131 59.0875 105.92 59.4 105.771C59.7164 105.619 60.066 105.543 60.4488 105.543C60.7613 105.543 61.0426 105.586 61.2926 105.672C61.5426 105.754 61.7555 105.887 61.9313 106.07C62.1109 106.254 62.2477 106.492 62.3414 106.785C62.4352 107.074 62.482 107.428 62.482 107.846V112H61.3922V107.834C61.3922 107.502 61.3434 107.236 61.2457 107.037C61.148 106.834 61.0055 106.688 60.818 106.598C60.6305 106.504 60.4 106.457 60.1266 106.457C59.857 106.457 59.6109 106.514 59.3883 106.627C59.1695 106.74 58.9801 106.896 58.8199 107.096C58.6637 107.295 58.5406 107.523 58.4508 107.781C58.3648 108.035 58.3219 108.305 58.3219 108.59ZM67.0656 111.227C67.3234 111.227 67.5617 111.174 67.7805 111.068C67.9992 110.963 68.1789 110.818 68.3195 110.635C68.4602 110.447 68.5402 110.234 68.5598 109.996H69.591C69.5715 110.371 69.4445 110.721 69.2102 111.045C68.9797 111.365 68.677 111.625 68.302 111.824C67.927 112.02 67.5148 112.117 67.0656 112.117C66.5891 112.117 66.173 112.033 65.8176 111.865C65.466 111.697 65.173 111.467 64.9387 111.174C64.7082 110.881 64.5344 110.545 64.4172 110.166C64.3039 109.783 64.2473 109.379 64.2473 108.953V108.707C64.2473 108.281 64.3039 107.879 64.4172 107.5C64.5344 107.117 64.7082 106.779 64.9387 106.486C65.173 106.193 65.466 105.963 65.8176 105.795C66.173 105.627 66.5891 105.543 67.0656 105.543C67.5617 105.543 67.9953 105.645 68.3664 105.848C68.7375 106.047 69.0285 106.32 69.2395 106.668C69.4543 107.012 69.5715 107.402 69.591 107.84H68.5598C68.5402 107.578 68.466 107.342 68.3371 107.131C68.2121 106.92 68.0402 106.752 67.8215 106.627C67.6066 106.498 67.3547 106.434 67.0656 106.434C66.7336 106.434 66.4543 106.5 66.2277 106.633C66.0051 106.762 65.8273 106.938 65.6945 107.16C65.5656 107.379 65.4719 107.623 65.4133 107.893C65.3586 108.158 65.3313 108.43 65.3313 108.707V108.953C65.3313 109.23 65.3586 109.504 65.4133 109.773C65.468 110.043 65.5598 110.287 65.6887 110.506C65.8215 110.725 65.9992 110.9 66.2219 111.033C66.4484 111.162 66.7297 111.227 67.0656 111.227ZM72.3875 103V112H71.2977V103H72.3875ZM78.4066 110.535V105.66H79.4965V112H78.4594L78.4066 110.535ZM78.6117 109.199L79.0629 109.188C79.0629 109.609 79.018 110 78.9281 110.359C78.8422 110.715 78.7016 111.023 78.5063 111.285C78.3109 111.547 78.0551 111.752 77.7387 111.9C77.4223 112.045 77.0375 112.117 76.5844 112.117C76.2758 112.117 75.9926 112.072 75.7348 111.982C75.4809 111.893 75.2621 111.754 75.0785 111.566C74.8949 111.379 74.7523 111.135 74.6508 110.834C74.5531 110.533 74.5043 110.172 74.5043 109.75V105.66H75.5883V109.762C75.5883 110.047 75.6195 110.283 75.682 110.471C75.7484 110.654 75.8363 110.801 75.9457 110.91C76.059 111.016 76.184 111.09 76.3207 111.133C76.4613 111.176 76.6059 111.197 76.7543 111.197C77.2152 111.197 77.5805 111.109 77.85 110.934C78.1195 110.754 78.3129 110.514 78.4301 110.213C78.5512 109.908 78.6117 109.57 78.6117 109.199ZM85.5449 110.77V103H86.6348V112H85.6387L85.5449 110.77ZM81.2793 108.9V108.777C81.2793 108.293 81.3379 107.854 81.4551 107.459C81.5762 107.061 81.7461 106.719 81.9648 106.434C82.1875 106.148 82.4512 105.93 82.7559 105.777C83.0645 105.621 83.4082 105.543 83.7871 105.543C84.1855 105.543 84.5332 105.613 84.8301 105.754C85.1309 105.891 85.3848 106.092 85.5918 106.357C85.8027 106.619 85.9688 106.936 86.0898 107.307C86.2109 107.678 86.2949 108.098 86.3418 108.566V109.105C86.2988 109.57 86.2148 109.988 86.0898 110.359C85.9688 110.73 85.8027 111.047 85.5918 111.309C85.3848 111.57 85.1309 111.771 84.8301 111.912C84.5293 112.049 84.1777 112.117 83.7754 112.117C83.4043 112.117 83.0645 112.037 82.7559 111.877C82.4512 111.717 82.1875 111.492 81.9648 111.203C81.7461 110.914 81.5762 110.574 81.4551 110.184C81.3379 109.789 81.2793 109.361 81.2793 108.9ZM82.3691 108.777V108.9C82.3691 109.217 82.4004 109.514 82.4629 109.791C82.5293 110.068 82.6309 110.312 82.7676 110.523C82.9043 110.734 83.0781 110.9 83.2891 111.021C83.5 111.139 83.752 111.197 84.0449 111.197C84.4043 111.197 84.6992 111.121 84.9297 110.969C85.1641 110.816 85.3516 110.615 85.4922 110.365C85.6328 110.115 85.7422 109.844 85.8203 109.551V108.139C85.7734 107.924 85.7051 107.717 85.6152 107.518C85.5293 107.314 85.416 107.135 85.2754 106.979C85.1387 106.818 84.9688 106.691 84.7656 106.598C84.5664 106.504 84.3301 106.457 84.0566 106.457C83.7598 106.457 83.5039 106.52 83.2891 106.645C83.0781 106.766 82.9043 106.934 82.7676 107.148C82.6309 107.359 82.5293 107.605 82.4629 107.887C82.4004 108.164 82.3691 108.461 82.3691 108.777ZM91.3531 112.117C90.9117 112.117 90.5113 112.043 90.152 111.895C89.7965 111.742 89.4898 111.529 89.232 111.256C88.9781 110.982 88.7828 110.658 88.6461 110.283C88.5094 109.908 88.441 109.498 88.441 109.053V108.807C88.441 108.291 88.5172 107.832 88.6695 107.43C88.8219 107.023 89.0289 106.68 89.2906 106.398C89.5523 106.117 89.8492 105.904 90.1813 105.76C90.5133 105.615 90.857 105.543 91.2125 105.543C91.6656 105.543 92.0563 105.621 92.3844 105.777C92.7164 105.934 92.9879 106.152 93.1988 106.434C93.4098 106.711 93.566 107.039 93.6676 107.418C93.7691 107.793 93.8199 108.203 93.8199 108.648V109.135H89.0855V108.25H92.7359V108.168C92.7203 107.887 92.6617 107.613 92.5602 107.348C92.4625 107.082 92.3063 106.863 92.0914 106.691C91.8766 106.52 91.5836 106.434 91.2125 106.434C90.9664 106.434 90.7398 106.486 90.5328 106.592C90.3258 106.693 90.148 106.846 89.9996 107.049C89.8512 107.252 89.7359 107.5 89.6539 107.793C89.5719 108.086 89.5309 108.424 89.5309 108.807V109.053C89.5309 109.354 89.5719 109.637 89.6539 109.902C89.7398 110.164 89.8629 110.395 90.023 110.594C90.1871 110.793 90.3844 110.949 90.6148 111.062C90.8492 111.176 91.1148 111.232 91.4117 111.232C91.7945 111.232 92.1188 111.154 92.3844 110.998C92.65 110.842 92.8824 110.633 93.0816 110.371L93.7379 110.893C93.6012 111.1 93.4273 111.297 93.2164 111.484C93.0055 111.672 92.7457 111.824 92.4371 111.941C92.1324 112.059 91.7711 112.117 91.3531 112.117ZM101.78 110.705L104.294 103.469H105.518L102.36 112H101.487L101.78 110.705ZM99.4305 103.469L101.921 110.705L102.231 112H101.358L98.2059 103.469H99.4305ZM109.78 104.225L106.955 112H105.801L109.053 103.469H109.797L109.78 104.225ZM112.147 112L109.317 104.225L109.299 103.469H110.043L113.307 112H112.147ZM112 108.842V109.768H107.207V108.842H112ZM117.24 103.469V112H116.127V103.469H117.24ZM119.982 103.469V104.395H113.391V103.469H119.982Z" fill="#D4E3FF"/>
<path d="M75.2086 34.4688V35.0781L71.6754 43H70.5328L74.0602 35.3594H69.443V34.4688H75.2086ZM76.9797 42.4258C76.9797 42.2422 77.0363 42.0879 77.1496 41.9629C77.2668 41.834 77.4348 41.7695 77.6535 41.7695C77.8723 41.7695 78.0383 41.834 78.1516 41.9629C78.2687 42.0879 78.3273 42.2422 78.3273 42.4258C78.3273 42.6055 78.2687 42.7578 78.1516 42.8828C78.0383 43.0078 77.8723 43.0703 77.6535 43.0703C77.4348 43.0703 77.2668 43.0078 77.1496 42.8828C77.0363 42.7578 76.9797 42.6055 76.9797 42.4258ZM81.4871 42.0918H81.5984C82.2234 42.0918 82.7312 42.0039 83.1219 41.8281C83.5125 41.6523 83.8133 41.416 84.0242 41.1191C84.2352 40.8223 84.3797 40.4883 84.4578 40.1172C84.5359 39.7422 84.575 39.3574 84.575 38.9629V37.6562C84.575 37.2695 84.5301 36.9258 84.4402 36.625C84.3543 36.3242 84.2332 36.0723 84.077 35.8691C83.9246 35.666 83.7508 35.5117 83.5555 35.4062C83.3602 35.3008 83.1531 35.248 82.9344 35.248C82.6844 35.248 82.4598 35.2988 82.2605 35.4004C82.0652 35.498 81.8992 35.6367 81.7625 35.8164C81.6297 35.9961 81.5281 36.207 81.4578 36.4492C81.3875 36.6914 81.3523 36.9551 81.3523 37.2402C81.3523 37.4941 81.3836 37.7402 81.4461 37.9785C81.5086 38.2168 81.6043 38.4316 81.7332 38.623C81.8621 38.8145 82.0223 38.9668 82.2137 39.0801C82.409 39.1895 82.6375 39.2441 82.8992 39.2441C83.1414 39.2441 83.368 39.1973 83.5789 39.1035C83.7937 39.0059 83.9832 38.875 84.1473 38.7109C84.3152 38.543 84.448 38.3535 84.5457 38.1426C84.6473 37.9316 84.7059 37.7109 84.7215 37.4805H85.2371C85.2371 37.8047 85.1727 38.125 85.0437 38.4414C84.9187 38.7539 84.743 39.0391 84.5164 39.2969C84.2898 39.5547 84.0242 39.7617 83.7195 39.918C83.4148 40.0703 83.0828 40.1465 82.7234 40.1465C82.3016 40.1465 81.9363 40.0645 81.6277 39.9004C81.3191 39.7363 81.0652 39.5176 80.866 39.2441C80.6707 38.9707 80.5242 38.666 80.4266 38.3301C80.3328 37.9902 80.2859 37.6465 80.2859 37.2988C80.2859 36.8926 80.3426 36.5117 80.4559 36.1562C80.5691 35.8008 80.7371 35.4883 80.9598 35.2188C81.1824 34.9453 81.4578 34.7324 81.7859 34.5801C82.118 34.4277 82.5008 34.3516 82.9344 34.3516C83.4227 34.3516 83.8387 34.4492 84.1824 34.6445C84.5262 34.8398 84.8055 35.1016 85.0203 35.4297C85.2391 35.7578 85.3992 36.127 85.5008 36.5371C85.6023 36.9473 85.6531 37.3691 85.6531 37.8027V38.1953C85.6531 38.6367 85.6238 39.0859 85.5652 39.543C85.5105 39.9961 85.4031 40.4297 85.243 40.8438C85.0867 41.2578 84.8582 41.6289 84.5574 41.957C84.2566 42.2812 83.8641 42.5391 83.3797 42.7305C82.8992 42.918 82.3055 43.0117 81.5984 43.0117H81.4871V42.0918ZM88.6371 42.0918H88.7484C89.3734 42.0918 89.8813 42.0039 90.2719 41.8281C90.6625 41.6523 90.9633 41.416 91.1742 41.1191C91.3852 40.8223 91.5297 40.4883 91.6078 40.1172C91.6859 39.7422 91.725 39.3574 91.725 38.9629V37.6562C91.725 37.2695 91.6801 36.9258 91.5902 36.625C91.5043 36.3242 91.3832 36.0723 91.227 35.8691C91.0746 35.666 90.9008 35.5117 90.7055 35.4062C90.5102 35.3008 90.3031 35.248 90.0844 35.248C89.8344 35.248 89.6098 35.2988 89.4105 35.4004C89.2152 35.498 89.0492 35.6367 88.9125 35.8164C88.7797 35.9961 88.6781 36.207 88.6078 36.4492C88.5375 36.6914 88.5023 36.9551 88.5023 37.2402C88.5023 37.4941 88.5336 37.7402 88.5961 37.9785C88.6586 38.2168 88.7543 38.4316 88.8832 38.623C89.0121 38.8145 89.1723 38.9668 89.3637 39.0801C89.559 39.1895 89.7875 39.2441 90.0492 39.2441C90.2914 39.2441 90.518 39.1973 90.7289 39.1035C90.9438 39.0059 91.1332 38.875 91.2973 38.7109C91.4652 38.543 91.598 38.3535 91.6957 38.1426C91.7973 37.9316 91.8559 37.7109 91.8715 37.4805H92.3871C92.3871 37.8047 92.3227 38.125 92.1938 38.4414C92.0688 38.7539 91.893 39.0391 91.6664 39.2969C91.4398 39.5547 91.1742 39.7617 90.8695 39.918C90.5648 40.0703 90.2328 40.1465 89.8734 40.1465C89.4516 40.1465 89.0863 40.0645 88.7777 39.9004C88.4691 39.7363 88.2152 39.5176 88.016 39.2441C87.8207 38.9707 87.6742 38.666 87.5766 38.3301C87.4828 37.9902 87.4359 37.6465 87.4359 37.2988C87.4359 36.8926 87.4926 36.5117 87.6059 36.1562C87.7191 35.8008 87.8871 35.4883 88.1098 35.2188C88.3324 34.9453 88.6078 34.7324 88.9359 34.5801C89.268 34.4277 89.6508 34.3516 90.0844 34.3516C90.5727 34.3516 90.9887 34.4492 91.3324 34.6445C91.6762 34.8398 91.9555 35.1016 92.1703 35.4297C92.3891 35.7578 92.5492 36.127 92.6508 36.5371C92.7523 36.9473 92.8031 37.3691 92.8031 37.8027V38.1953C92.8031 38.6367 92.7738 39.0859 92.7152 39.543C92.6605 39.9961 92.5531 40.4297 92.393 40.8438C92.2367 41.2578 92.0082 41.6289 91.7074 41.957C91.4066 42.2812 91.0141 42.5391 90.5297 42.7305C90.0492 42.918 89.4555 43.0117 88.7484 43.0117H88.6371V42.0918Z" fill="#A4C9FF"/>
<path d="M57.6215 28.1289V29.0195H51.4574V28.3809L55.2777 22.4688H56.1625L55.2133 24.1797L52.6879 28.1289H57.6215ZM56.432 22.4688V31H55.348V22.4688H56.432ZM64.3613 26.0547V27.3555C64.3613 28.0547 64.2988 28.6445 64.1738 29.125C64.0488 29.6055 63.8691 29.9922 63.6348 30.2852C63.4004 30.5781 63.1172 30.791 62.7852 30.9238C62.457 31.0527 62.0859 31.1172 61.6719 31.1172C61.3437 31.1172 61.041 31.0762 60.7637 30.9941C60.4863 30.9121 60.2363 30.7812 60.0137 30.6016C59.7949 30.418 59.6074 30.1797 59.4512 29.8867C59.2949 29.5938 59.1758 29.2383 59.0937 28.8203C59.0117 28.4023 58.9707 27.9141 58.9707 27.3555V26.0547C58.9707 25.3555 59.0332 24.7695 59.1582 24.2969C59.2871 23.8242 59.4687 23.4453 59.7031 23.1602C59.9375 22.8711 60.2187 22.6641 60.5469 22.5391C60.8789 22.4141 61.25 22.3516 61.6602 22.3516C61.9922 22.3516 62.2969 22.3926 62.5742 22.4746C62.8555 22.5527 63.1055 22.6797 63.3242 22.8555C63.543 23.0273 63.7285 23.2578 63.8809 23.5469C64.0371 23.832 64.1562 24.1816 64.2383 24.5957C64.3203 25.0098 64.3613 25.4961 64.3613 26.0547ZM63.2715 27.5312V25.873C63.2715 25.4902 63.248 25.1543 63.2012 24.8652C63.1582 24.5723 63.0937 24.3223 63.0078 24.1152C62.9219 23.9082 62.8125 23.7402 62.6797 23.6113C62.5508 23.4824 62.4004 23.3887 62.2285 23.3301C62.0605 23.2676 61.8711 23.2363 61.6602 23.2363C61.4023 23.2363 61.1738 23.2852 60.9746 23.3828C60.7754 23.4766 60.6074 23.627 60.4707 23.834C60.3379 24.041 60.2363 24.3125 60.166 24.6484C60.0957 24.9844 60.0605 25.3926 60.0605 25.873V27.5312C60.0605 27.9141 60.082 28.252 60.125 28.5449C60.1719 28.8379 60.2402 29.0918 60.3301 29.3066C60.4199 29.5176 60.5293 29.6914 60.6582 29.8281C60.7871 29.9648 60.9355 30.0664 61.1035 30.1328C61.2754 30.1953 61.4648 30.2266 61.6719 30.2266C61.9375 30.2266 62.1699 30.1758 62.3691 30.0742C62.5684 29.9727 62.7344 29.8145 62.8672 29.5996C63.0039 29.3809 63.1055 29.1016 63.1719 28.7617C63.2383 28.418 63.2715 28.0078 63.2715 27.5312ZM66.0621 24.5605V24.1094C66.0621 23.7852 66.1324 23.4902 66.273 23.2246C66.4137 22.959 66.6148 22.7461 66.8766 22.5859C67.1383 22.4258 67.4488 22.3457 67.8082 22.3457C68.1754 22.3457 68.4879 22.4258 68.7457 22.5859C69.0074 22.7461 69.2086 22.959 69.3492 23.2246C69.4898 23.4902 69.5602 23.7852 69.5602 24.1094V24.5605C69.5602 24.877 69.4898 25.168 69.3492 25.4336C69.2125 25.6992 69.0133 25.9121 68.7516 26.0723C68.4937 26.2324 68.1832 26.3125 67.8199 26.3125C67.4566 26.3125 67.1422 26.2324 66.8766 26.0723C66.6148 25.9121 66.4137 25.6992 66.273 25.4336C66.1324 25.168 66.0621 24.877 66.0621 24.5605ZM66.8766 24.1094V24.5605C66.8766 24.7402 66.9098 24.9102 66.9762 25.0703C67.0465 25.2305 67.152 25.3613 67.2926 25.4629C67.4332 25.5605 67.609 25.6094 67.8199 25.6094C68.0309 25.6094 68.2047 25.5605 68.3414 25.4629C68.4781 25.3613 68.5797 25.2305 68.6461 25.0703C68.7125 24.9102 68.7457 24.7402 68.7457 24.5605V24.1094C68.7457 23.9258 68.7105 23.7539 68.6402 23.5938C68.5738 23.4297 68.4703 23.2988 68.3297 23.2012C68.193 23.0996 68.0191 23.0488 67.8082 23.0488C67.6012 23.0488 67.4273 23.0996 67.2867 23.2012C67.15 23.2988 67.0465 23.4297 66.9762 23.5938C66.9098 23.7539 66.8766 23.9258 66.8766 24.1094ZM70.2164 29.3652V28.9082C70.2164 28.5879 70.2867 28.2949 70.4273 28.0293C70.568 27.7637 70.7691 27.5508 71.0309 27.3906C71.2926 27.2305 71.6031 27.1504 71.9625 27.1504C72.3297 27.1504 72.6422 27.2305 72.9 27.3906C73.1617 27.5508 73.3629 27.7637 73.5035 28.0293C73.6441 28.2949 73.7145 28.5879 73.7145 28.9082V29.3652C73.7145 29.6855 73.6441 29.9785 73.5035 30.2441C73.3668 30.5098 73.1676 30.7227 72.9059 30.8828C72.648 31.043 72.3375 31.123 71.9742 31.123C71.6109 31.123 71.2984 31.043 71.0367 30.8828C70.775 30.7227 70.5719 30.5098 70.4273 30.2441C70.2867 29.9785 70.2164 29.6855 70.2164 29.3652ZM71.0309 28.9082V29.3652C71.0309 29.5449 71.0641 29.7168 71.1305 29.8809C71.2008 30.041 71.3062 30.1719 71.4469 30.2734C71.5875 30.3711 71.7633 30.4199 71.9742 30.4199C72.1852 30.4199 72.359 30.3711 72.4957 30.2734C72.6363 30.1719 72.7398 30.041 72.8062 29.8809C72.8727 29.7207 72.9059 29.5488 72.9059 29.3652V28.9082C72.9059 28.7246 72.8707 28.5527 72.8004 28.3926C72.734 28.2324 72.6305 28.1035 72.4898 28.0059C72.3531 27.9043 72.1773 27.8535 71.9625 27.8535C71.7555 27.8535 71.5816 27.9043 71.441 28.0059C71.3043 28.1035 71.2008 28.2324 71.1305 28.3926C71.0641 28.5527 71.0309 28.7246 71.0309 28.9082ZM72.232 23.6816L68.066 30.3496L67.4566 29.9629L71.6227 23.2949L72.232 23.6816ZM78.5516 27.9004V27.7656C78.5516 27.3086 78.618 26.8848 78.7508 26.4941C78.8836 26.0996 79.075 25.7578 79.325 25.4688C79.575 25.1758 79.8777 24.9492 80.2332 24.7891C80.5887 24.625 80.9871 24.543 81.4285 24.543C81.8738 24.543 82.2742 24.625 82.6297 24.7891C82.9891 24.9492 83.2937 25.1758 83.5437 25.4688C83.7977 25.7578 83.991 26.0996 84.1238 26.4941C84.2566 26.8848 84.323 27.3086 84.323 27.7656V27.9004C84.323 28.3574 84.2566 28.7812 84.1238 29.1719C83.991 29.5625 83.7977 29.9043 83.5437 30.1973C83.2937 30.4863 82.991 30.7129 82.6355 30.877C82.284 31.0371 81.8855 31.1172 81.4402 31.1172C80.9949 31.1172 80.5945 31.0371 80.2391 30.877C79.8836 30.7129 79.5789 30.4863 79.325 30.1973C79.075 29.9043 78.8836 29.5625 78.7508 29.1719C78.618 28.7812 78.5516 28.3574 78.5516 27.9004ZM79.6355 27.7656V27.9004C79.6355 28.2168 79.6727 28.5156 79.7469 28.7969C79.8211 29.0742 79.9324 29.3203 80.0809 29.5352C80.2332 29.75 80.4227 29.9199 80.6492 30.0449C80.8758 30.166 81.1395 30.2266 81.4402 30.2266C81.7371 30.2266 81.9969 30.166 82.2195 30.0449C82.4461 29.9199 82.6336 29.75 82.782 29.5352C82.9305 29.3203 83.0418 29.0742 83.116 28.7969C83.1941 28.5156 83.2332 28.2168 83.2332 27.9004V27.7656C83.2332 27.4531 83.1941 27.1582 83.116 26.8809C83.0418 26.5996 82.9285 26.3516 82.7762 26.1367C82.6277 25.918 82.4402 25.7461 82.2137 25.6211C81.991 25.4961 81.7293 25.4336 81.4285 25.4336C81.1316 25.4336 80.8699 25.4961 80.6434 25.6211C80.4207 25.7461 80.2332 25.918 80.0809 26.1367C79.9324 26.3516 79.8211 26.5996 79.7469 26.8809C79.6727 27.1582 79.6355 27.4531 79.6355 27.7656ZM87.6996 31H86.6156V23.9922C86.6156 23.5352 86.6977 23.1504 86.8617 22.8379C87.0297 22.5215 87.2699 22.2832 87.5824 22.123C87.8949 21.959 88.266 21.877 88.6957 21.877C88.8207 21.877 88.9457 21.8848 89.0707 21.9004C89.1996 21.916 89.3246 21.9395 89.4457 21.9707L89.3871 22.8555C89.3051 22.8359 89.2113 22.8223 89.1059 22.8145C89.0043 22.8066 88.9027 22.8027 88.8012 22.8027C88.5707 22.8027 88.3715 22.8496 88.2035 22.9434C88.0395 23.0332 87.9145 23.166 87.8285 23.3418C87.7426 23.5176 87.6996 23.7344 87.6996 23.9922V31ZM89.0473 24.6602V25.4922H85.6137V24.6602H89.0473ZM92.2715 31H91.1875V23.9922C91.1875 23.5352 91.2695 23.1504 91.4336 22.8379C91.6016 22.5215 91.8418 22.2832 92.1543 22.123C92.4668 21.959 92.8379 21.877 93.2676 21.877C93.3926 21.877 93.5176 21.8848 93.6426 21.9004C93.7715 21.916 93.8965 21.9395 94.0176 21.9707L93.959 22.8555C93.877 22.8359 93.7832 22.8223 93.6777 22.8145C93.5762 22.8066 93.4746 22.8027 93.373 22.8027C93.1426 22.8027 92.9434 22.8496 92.7754 22.9434C92.6113 23.0332 92.4863 23.166 92.4004 23.3418C92.3145 23.5176 92.2715 23.7344 92.2715 23.9922V31ZM93.6191 24.6602V25.4922H90.1855V24.6602H93.6191Z" fill="#A4C8FF"/>
<path d="M41.4081 32.4125L32.5781 23.5825C32.2081 23.2125 31.6981 23.0025 31.1681 23.0025H23.9981C22.8981 23.0025 21.9981 23.9025 21.9981 25.0025V32.1725C21.9981 32.7025 22.2081 33.2125 22.5881 33.5825L31.4181 42.4125C32.1981 43.1925 33.4681 43.1925 34.2481 42.4125L41.4181 35.2425C42.1981 34.4625 42.1981 33.2025 41.4081 32.4125ZM26.4981 29.0025C25.6681 29.0025 24.9981 28.3325 24.9981 27.5025C24.9981 26.6725 25.6681 26.0025 26.4981 26.0025C27.3281 26.0025 27.9981 26.6725 27.9981 27.5025C27.9981 28.3325 27.3281 29.0025 26.4981 29.0025Z" fill="#D4E3FF"/>
<defs>
<filter id="filter0_dd_1_815" x="0" y="0" width="140" height="140" filterUnits="userSpaceOnUse" color-interpolation-filters="sRGB">
<feFlood flood-opacity="0" result="BackgroundImageFix"/>
<feColorMatrix in="SourceAlpha" type="matrix" values="0 0 0 0 0 0 0 0 0 0 0 0 0 0 0 0 0 0 127 0" result="hardAlpha"/>
<feMorphology radius="2" operator="dilate" in="SourceAlpha" result="effect1_dropShadow_1_815"/>
<feOffset dy="2"/>
<feGaussianBlur stdDeviation="3"/>
<feColorMatrix type="matrix" values="0 0 0 0 0 0 0 0 0 0 0 0 0 0 0 0 0 0 0.15 0"/>
<feBlend mode="normal" in2="BackgroundImageFix" result="effect1_dropShadow_1_815"/>
<feColorMatrix in="SourceAlpha" type="matrix" values="0 0 0 0 0 0 0 0 0 0 0 0 0 0 0 0 0 0 127 0" result="hardAlpha"/>
<feOffset dy="1"/>
<feGaussianBlur stdDeviation="1"/>
<feColorMatrix type="matrix" values="0 0 0 0 0 0 0 0 0 0 0 0 0 0 0 0 0 0 0.3 0"/>
<feBlend mode="normal" in2="effect1_dropShadow_1_815" result="effect2_dropShadow_1_815"/>
<feBlend mode="normal" in="SourceGraphic" in2="effect2_dropShadow_1_815" result="shape"/>
</filter>
</defs>
</svg>
