<svg width="189" height="34" viewBox="0 0 189 34" fill="none" xmlns="http://www.w3.org/2000/svg">
<path d="M6.22266 1.33691L1.98633 13H0.254883L5.13281 0.203125H6.24902L6.22266 1.33691ZM9.77344 13L5.52832 1.33691L5.50195 0.203125H6.61816L11.5137 13H9.77344ZM9.55371 8.2627V9.65137H2.36426V8.2627H9.55371ZM21.7659 5.70508V7.08496H14.8402V5.70508H21.7659ZM15.1038 0.203125V13H13.4075V0.203125H15.1038ZM23.2425 0.203125V13H21.555V0.203125H23.2425ZM31.3327 1.33691L27.0963 13H25.3649L30.2428 0.203125H31.359L31.3327 1.33691ZM34.8834 13L30.6383 1.33691L30.612 0.203125H31.7282L36.6237 13H34.8834ZM34.6637 8.2627V9.65137H27.4743V8.2627H34.6637ZM47.7239 7.01465H44.4807L44.4632 5.65234H47.4075C47.8938 5.65234 48.3186 5.57031 48.6819 5.40625C49.0452 5.24219 49.3264 5.00781 49.5257 4.70312C49.7307 4.39258 49.8333 4.02344 49.8333 3.5957C49.8333 3.12695 49.7425 2.74609 49.5608 2.45312C49.385 2.1543 49.1126 1.9375 48.7434 1.80273C48.3802 1.66211 47.9173 1.5918 47.3548 1.5918H44.8587V13H43.1624V0.203125H47.3548C48.011 0.203125 48.597 0.270508 49.1126 0.405273C49.6282 0.53418 50.0647 0.739258 50.4221 1.02051C50.7854 1.2959 51.0608 1.64746 51.2483 2.0752C51.4358 2.50293 51.5296 3.01562 51.5296 3.61328C51.5296 4.14062 51.3948 4.61816 51.1253 5.0459C50.8557 5.46777 50.4807 5.81348 50.0003 6.08301C49.5257 6.35254 48.969 6.52539 48.3304 6.60156L47.7239 7.01465ZM47.6448 13H43.8128L44.7708 11.6201H47.6448C48.1839 11.6201 48.6409 11.5264 49.0159 11.3389C49.3968 11.1514 49.6868 10.8877 49.886 10.5479C50.0852 10.2021 50.1848 9.79492 50.1848 9.32617C50.1848 8.85156 50.0999 8.44141 49.93 8.0957C49.76 7.75 49.4934 7.4834 49.1302 7.2959C48.7669 7.1084 48.2981 7.01465 47.7239 7.01465H45.3069L45.3245 5.65234H48.6292L48.9895 6.14453C49.6048 6.19727 50.1263 6.37305 50.554 6.67188C50.9817 6.96484 51.3069 7.33984 51.5296 7.79688C51.7581 8.25391 51.8723 8.75781 51.8723 9.30859C51.8723 10.1055 51.6966 10.7793 51.345 11.3301C50.9993 11.875 50.51 12.291 49.8772 12.5781C49.2444 12.8594 48.5003 13 47.6448 13ZM62.9156 5.70508V7.08496H55.9898V5.70508H62.9156ZM56.2535 0.203125V13H54.5572V0.203125H56.2535ZM64.3922 0.203125V13H62.7047V0.203125H64.3922ZM72.4823 1.33691L68.246 13H66.5146L71.3925 0.203125H72.5087L72.4823 1.33691ZM76.0331 13L71.788 1.33691L71.7616 0.203125H72.8779L77.7734 13H76.0331ZM75.8134 8.2627V9.65137H68.6239V8.2627H75.8134ZM89.0318 7.98145H85.6129V6.60156H89.0318C89.6939 6.60156 90.23 6.49609 90.6402 6.28516C91.0504 6.07422 91.3492 5.78125 91.5367 5.40625C91.73 5.03125 91.8267 4.60352 91.8267 4.12305C91.8267 3.68359 91.73 3.27051 91.5367 2.88379C91.3492 2.49707 91.0504 2.18652 90.6402 1.95215C90.23 1.71191 89.6939 1.5918 89.0318 1.5918H86.0084V13H84.3121V0.203125H89.0318C89.9986 0.203125 90.816 0.370117 91.4839 0.704102C92.1519 1.03809 92.6588 1.50098 93.0045 2.09277C93.3502 2.67871 93.523 3.34961 93.523 4.10547C93.523 4.92578 93.3502 5.62598 93.0045 6.20605C92.6588 6.78613 92.1519 7.22852 91.4839 7.5332C90.816 7.83203 89.9986 7.98145 89.0318 7.98145ZM104.206 5.70508V7.08496H97.2802V5.70508H104.206ZM97.5438 0.203125V13H95.8475V0.203125H97.5438ZM105.683 0.203125V13H103.995V0.203125H105.683ZM113.773 1.33691L109.536 13H107.805L112.683 0.203125H113.799L113.773 1.33691ZM117.323 13L113.078 1.33691L113.052 0.203125H114.168L119.064 13H117.323ZM117.104 8.2627V9.65137H109.914V8.2627H117.104ZM127.554 5.80176H128.714C129.282 5.80176 129.751 5.70801 130.12 5.52051C130.495 5.32715 130.773 5.06641 130.955 4.73828C131.142 4.4043 131.236 4.0293 131.236 3.61328C131.236 3.12109 131.154 2.70801 130.99 2.37402C130.826 2.04004 130.58 1.78809 130.252 1.61816C129.924 1.44824 129.508 1.36328 129.004 1.36328C128.547 1.36328 128.142 1.4541 127.791 1.63574C127.445 1.81152 127.173 2.06348 126.973 2.3916C126.78 2.71973 126.683 3.10645 126.683 3.55176H125.057C125.057 2.90137 125.222 2.30957 125.55 1.77637C125.878 1.24316 126.338 0.818359 126.93 0.501953C127.527 0.185547 128.219 0.0273438 129.004 0.0273438C129.777 0.0273438 130.454 0.165039 131.034 0.44043C131.614 0.709961 132.065 1.11426 132.388 1.65332C132.71 2.18652 132.871 2.85156 132.871 3.64844C132.871 3.9707 132.795 4.31641 132.642 4.68555C132.496 5.04883 132.264 5.38867 131.948 5.70508C131.638 6.02148 131.233 6.28223 130.735 6.4873C130.237 6.68652 129.639 6.78613 128.942 6.78613H127.554V5.80176ZM127.554 7.1377V6.16211H128.942C129.757 6.16211 130.431 6.25879 130.964 6.45215C131.497 6.64551 131.916 6.90332 132.221 7.22559C132.531 7.54785 132.748 7.90234 132.871 8.28906C133 8.66992 133.064 9.05078 133.064 9.43164C133.064 10.0293 132.962 10.5596 132.757 11.0225C132.557 11.4854 132.273 11.8779 131.904 12.2002C131.541 12.5225 131.113 12.7656 130.621 12.9297C130.129 13.0938 129.593 13.1758 129.013 13.1758C128.456 13.1758 127.931 13.0967 127.439 12.9385C126.953 12.7803 126.522 12.5518 126.147 12.2529C125.772 11.9482 125.479 11.5762 125.268 11.1367C125.057 10.6914 124.952 10.1846 124.952 9.61621H126.578C126.578 10.0615 126.675 10.4512 126.868 10.7852C127.067 11.1191 127.348 11.3799 127.712 11.5674C128.081 11.749 128.514 11.8398 129.013 11.8398C129.511 11.8398 129.938 11.7549 130.296 11.585C130.659 11.4092 130.937 11.1455 131.131 10.7939C131.33 10.4424 131.43 10 131.43 9.4668C131.43 8.93359 131.318 8.49707 131.096 8.15723C130.873 7.81152 130.556 7.55664 130.146 7.39258C129.742 7.22266 129.264 7.1377 128.714 7.1377H127.554ZM143.694 5.58203V7.5332C143.694 8.58203 143.601 9.4668 143.413 10.1875C143.226 10.9082 142.956 11.4883 142.605 11.9277C142.253 12.3672 141.828 12.6865 141.33 12.8857C140.838 13.0791 140.281 13.1758 139.66 13.1758C139.168 13.1758 138.714 13.1143 138.298 12.9912C137.882 12.8682 137.507 12.6719 137.173 12.4023C136.845 12.127 136.564 11.7695 136.329 11.3301C136.095 10.8906 135.916 10.3574 135.793 9.73047C135.67 9.10352 135.609 8.37109 135.609 7.5332V5.58203C135.609 4.5332 135.702 3.6543 135.89 2.94531C136.083 2.23633 136.356 1.66797 136.707 1.24023C137.059 0.806641 137.481 0.496094 137.973 0.308594C138.471 0.121094 139.027 0.0273438 139.643 0.0273438C140.141 0.0273438 140.598 0.0888672 141.014 0.211914C141.436 0.329102 141.811 0.519531 142.139 0.783203C142.467 1.04102 142.745 1.38672 142.974 1.82031C143.208 2.24805 143.387 2.77246 143.51 3.39355C143.633 4.01465 143.694 4.74414 143.694 5.58203ZM142.06 7.79688V5.30957C142.06 4.73535 142.025 4.23145 141.954 3.79785C141.89 3.3584 141.793 2.9834 141.664 2.67285C141.535 2.3623 141.371 2.11035 141.172 1.91699C140.979 1.72363 140.753 1.58301 140.495 1.49512C140.243 1.40137 139.959 1.35449 139.643 1.35449C139.256 1.35449 138.913 1.42773 138.614 1.57422C138.316 1.71484 138.064 1.94043 137.859 2.25098C137.659 2.56152 137.507 2.96875 137.402 3.47266C137.296 3.97656 137.243 4.58887 137.243 5.30957V7.79688C137.243 8.37109 137.276 8.87793 137.34 9.31738C137.41 9.75684 137.513 10.1377 137.648 10.46C137.782 10.7764 137.946 11.0371 138.14 11.2422C138.333 11.4473 138.556 11.5996 138.808 11.6992C139.066 11.793 139.35 11.8398 139.66 11.8398C140.059 11.8398 140.407 11.7637 140.706 11.6113C141.005 11.459 141.254 11.2217 141.453 10.8994C141.658 10.5713 141.811 10.1523 141.91 9.64258C142.01 9.12695 142.06 8.51172 142.06 7.79688ZM154.672 13H152L152.017 11.6201H154.672C155.586 11.6201 156.347 11.4297 156.957 11.0488C157.566 10.6621 158.023 10.123 158.328 9.43164C158.638 8.73438 158.794 7.91992 158.794 6.98828V6.20605C158.794 5.47363 158.706 4.82324 158.53 4.25488C158.354 3.68066 158.096 3.19727 157.757 2.80469C157.417 2.40625 157.001 2.10449 156.509 1.89941C156.022 1.69434 155.463 1.5918 154.83 1.5918H151.947V0.203125H154.83C155.668 0.203125 156.432 0.34375 157.124 0.625C157.815 0.900391 158.41 1.30176 158.908 1.8291C159.412 2.35059 159.799 2.9834 160.068 3.72754C160.338 4.46582 160.472 5.29785 160.472 6.22363V6.98828C160.472 7.91406 160.338 8.74902 160.068 9.49316C159.799 10.2314 159.409 10.8613 158.899 11.3828C158.395 11.9043 157.786 12.3057 157.071 12.5869C156.362 12.8623 155.562 13 154.672 13ZM152.905 0.203125V13H151.209V0.203125H152.905ZM168.563 11.374V6.47852C168.563 6.10352 168.486 5.77832 168.334 5.50293C168.188 5.22168 167.965 5.00488 167.666 4.85254C167.367 4.7002 166.998 4.62402 166.559 4.62402C166.149 4.62402 165.788 4.69434 165.478 4.83496C165.173 4.97559 164.933 5.16016 164.757 5.38867C164.587 5.61719 164.502 5.86328 164.502 6.12695H162.876C162.876 5.78711 162.964 5.4502 163.14 5.11621C163.316 4.78223 163.568 4.48047 163.896 4.21094C164.23 3.93555 164.628 3.71875 165.091 3.56055C165.56 3.39648 166.081 3.31445 166.655 3.31445C167.347 3.31445 167.956 3.43164 168.484 3.66602C169.017 3.90039 169.433 4.25488 169.732 4.72949C170.036 5.19824 170.189 5.78711 170.189 6.49609V10.9258C170.189 11.2422 170.215 11.5791 170.268 11.9365C170.326 12.2939 170.411 12.6016 170.523 12.8594V13H168.826C168.744 12.8125 168.68 12.5635 168.633 12.2529C168.586 11.9365 168.563 11.6436 168.563 11.374ZM168.844 7.23438L168.861 8.37695H167.218C166.755 8.37695 166.342 8.41504 165.979 8.49121C165.615 8.56152 165.311 8.66992 165.065 8.81641C164.818 8.96289 164.631 9.14746 164.502 9.37012C164.373 9.58691 164.309 9.8418 164.309 10.1348C164.309 10.4336 164.376 10.7061 164.511 10.9521C164.646 11.1982 164.848 11.3945 165.117 11.541C165.393 11.6816 165.73 11.752 166.128 11.752C166.626 11.752 167.066 11.6465 167.446 11.4355C167.827 11.2246 168.129 10.9668 168.352 10.6621C168.58 10.3574 168.703 10.0615 168.721 9.77441L169.415 10.5566C169.374 10.8027 169.263 11.0752 169.081 11.374C168.9 11.6729 168.656 11.96 168.352 12.2354C168.053 12.5049 167.695 12.7305 167.279 12.9121C166.869 13.0879 166.406 13.1758 165.891 13.1758C165.246 13.1758 164.681 13.0498 164.194 12.7979C163.714 12.5459 163.339 12.209 163.069 11.7871C162.806 11.3594 162.674 10.8818 162.674 10.3545C162.674 9.84473 162.774 9.39648 162.973 9.00977C163.172 8.61719 163.459 8.29199 163.834 8.03418C164.209 7.77051 164.66 7.57129 165.188 7.43652C165.715 7.30176 166.304 7.23438 166.954 7.23438H168.844ZM175.457 12.0156L178.103 3.49023H179.843L176.029 14.4678C175.941 14.7021 175.824 14.9541 175.677 15.2236C175.537 15.499 175.355 15.7598 175.132 16.0059C174.91 16.252 174.64 16.4512 174.324 16.6035C174.013 16.7617 173.641 16.8408 173.207 16.8408C173.079 16.8408 172.914 16.8232 172.715 16.7881C172.516 16.7529 172.375 16.7236 172.293 16.7002L172.285 15.3818C172.331 15.3877 172.405 15.3936 172.504 15.3994C172.61 15.4111 172.683 15.417 172.724 15.417C173.093 15.417 173.407 15.3672 173.664 15.2676C173.922 15.1738 174.139 15.0127 174.315 14.7842C174.497 14.5615 174.652 14.2539 174.781 13.8613L175.457 12.0156ZM173.515 3.49023L175.985 10.873L176.407 12.5869L175.238 13.1846L171.74 3.49023H173.515ZM187.028 10.4775C187.028 10.2432 186.975 10.0264 186.87 9.82715C186.77 9.62207 186.562 9.4375 186.246 9.27344C185.935 9.10352 185.467 8.95703 184.84 8.83398C184.312 8.72266 183.835 8.59082 183.407 8.43848C182.985 8.28613 182.625 8.10156 182.326 7.88477C182.033 7.66797 181.807 7.41309 181.649 7.12012C181.491 6.82715 181.412 6.48438 181.412 6.0918C181.412 5.7168 181.494 5.3623 181.658 5.02832C181.828 4.69434 182.065 4.39844 182.37 4.14062C182.68 3.88281 183.053 3.68066 183.486 3.53418C183.92 3.3877 184.403 3.31445 184.936 3.31445C185.698 3.31445 186.348 3.44922 186.887 3.71875C187.427 3.98828 187.84 4.34863 188.127 4.7998C188.414 5.24512 188.557 5.74023 188.557 6.28516H186.931C186.931 6.02148 186.852 5.7666 186.694 5.52051C186.542 5.26855 186.316 5.06055 186.017 4.89648C185.724 4.73242 185.364 4.65039 184.936 4.65039C184.485 4.65039 184.119 4.7207 183.838 4.86133C183.562 4.99609 183.36 5.16895 183.231 5.37988C183.108 5.59082 183.047 5.81348 183.047 6.04785C183.047 6.22363 183.076 6.38184 183.135 6.52246C183.199 6.65723 183.31 6.7832 183.469 6.90039C183.627 7.01172 183.849 7.11719 184.136 7.2168C184.424 7.31641 184.79 7.41602 185.235 7.51562C186.014 7.69141 186.656 7.90234 187.16 8.14844C187.664 8.39453 188.039 8.69629 188.285 9.05371C188.531 9.41113 188.654 9.84473 188.654 10.3545C188.654 10.7705 188.566 11.1514 188.39 11.4971C188.22 11.8428 187.971 12.1416 187.643 12.3936C187.321 12.6396 186.934 12.833 186.483 12.9736C186.038 13.1084 185.537 13.1758 184.98 13.1758C184.142 13.1758 183.433 13.0264 182.853 12.7275C182.273 12.4287 181.834 12.042 181.535 11.5674C181.236 11.0928 181.087 10.5918 181.087 10.0645H182.721C182.745 10.5098 182.874 10.8643 183.108 11.1279C183.343 11.3857 183.63 11.5703 183.969 11.6816C184.309 11.7871 184.646 11.8398 184.98 11.8398C185.426 11.8398 185.798 11.7812 186.096 11.6641C186.401 11.5469 186.633 11.3857 186.791 11.1807C186.949 10.9756 187.028 10.7412 187.028 10.4775ZM2.02148 20.2031H3.66504L7.85742 30.6357L12.041 20.2031H13.6934L8.49023 33H7.20703L2.02148 20.2031ZM1.48535 20.2031H2.93555L3.17285 28.0078V33H1.48535V20.2031ZM12.7705 20.2031H14.2207V33H12.5332V28.0078L12.7705 20.2031ZM18.9007 23.4902V33H17.2659V23.4902H18.9007ZM17.1429 20.9678C17.1429 20.7041 17.222 20.4814 17.3802 20.2998C17.5443 20.1182 17.7845 20.0273 18.1009 20.0273C18.4114 20.0273 18.6488 20.1182 18.8128 20.2998C18.9827 20.4814 19.0677 20.7041 19.0677 20.9678C19.0677 21.2197 18.9827 21.4365 18.8128 21.6182C18.6488 21.7939 18.4114 21.8818 18.1009 21.8818C17.7845 21.8818 17.5443 21.7939 17.3802 21.6182C17.222 21.4365 17.1429 21.2197 17.1429 20.9678ZM23.317 24.9844V33H21.6911V23.4902H23.2731L23.317 24.9844ZM26.2877 23.4375L26.2789 24.9492C26.1442 24.9199 26.0153 24.9023 25.8922 24.8965C25.775 24.8848 25.6403 24.8789 25.4879 24.8789C25.1129 24.8789 24.7819 24.9375 24.4948 25.0547C24.2077 25.1719 23.9645 25.3359 23.7653 25.5469C23.5661 25.7578 23.4079 26.0098 23.2907 26.3027C23.1793 26.5898 23.1061 26.9062 23.0709 27.252L22.6139 27.5156C22.6139 26.9414 22.6696 26.4023 22.7809 25.8984C22.8981 25.3945 23.0768 24.9492 23.317 24.5625C23.5573 24.1699 23.862 23.8652 24.2311 23.6484C24.6061 23.4258 25.0514 23.3145 25.567 23.3145C25.6842 23.3145 25.819 23.3291 25.9713 23.3584C26.1237 23.3818 26.2291 23.4082 26.2877 23.4375ZM33.2265 31.374V26.4785C33.2265 26.1035 33.1504 25.7783 32.998 25.5029C32.8515 25.2217 32.6289 25.0049 32.33 24.8525C32.0312 24.7002 31.6621 24.624 31.2226 24.624C30.8125 24.624 30.4521 24.6943 30.1416 24.835C29.8369 24.9756 29.5966 25.1602 29.4209 25.3887C29.2509 25.6172 29.166 25.8633 29.166 26.127H27.54C27.54 25.7871 27.6279 25.4502 27.8037 25.1162C27.9795 24.7822 28.2314 24.4805 28.5595 24.2109C28.8935 23.9355 29.292 23.7188 29.7548 23.5605C30.2236 23.3965 30.7451 23.3145 31.3193 23.3145C32.0107 23.3145 32.6201 23.4316 33.1474 23.666C33.6806 23.9004 34.0966 24.2549 34.3955 24.7295C34.7002 25.1982 34.8525 25.7871 34.8525 26.4961V30.9258C34.8525 31.2422 34.8789 31.5791 34.9316 31.9365C34.9902 32.2939 35.0752 32.6016 35.1865 32.8594V33H33.4902C33.4082 32.8125 33.3437 32.5635 33.2968 32.2529C33.25 31.9365 33.2265 31.6436 33.2265 31.374ZM33.5078 27.2344L33.5254 28.377H31.8818C31.4189 28.377 31.0058 28.415 30.6425 28.4912C30.2793 28.5615 29.9746 28.6699 29.7285 28.8164C29.4824 28.9629 29.2949 29.1475 29.166 29.3701C29.0371 29.5869 28.9726 29.8418 28.9726 30.1348C28.9726 30.4336 29.04 30.7061 29.1748 30.9521C29.3095 31.1982 29.5117 31.3945 29.7812 31.541C30.0566 31.6816 30.3935 31.752 30.792 31.752C31.29 31.752 31.7295 31.6465 32.1103 31.4355C32.4912 31.2246 32.7929 30.9668 33.0156 30.6621C33.2441 30.3574 33.3671 30.0615 33.3847 29.7744L34.0791 30.5566C34.038 30.8027 33.9267 31.0752 33.7451 31.374C33.5634 31.6729 33.3203 31.96 33.0156 32.2354C32.7168 32.5049 32.3593 32.7305 31.9433 32.9121C31.5332 33.0879 31.0703 33.1758 30.5546 33.1758C29.9101 33.1758 29.3447 33.0498 28.8584 32.7979C28.3779 32.5459 28.0029 32.209 27.7334 31.7871C27.4697 31.3594 27.3379 30.8818 27.3379 30.3545C27.3379 29.8447 27.4375 29.3965 27.6367 29.0098C27.8359 28.6172 28.123 28.292 28.498 28.0342C28.873 27.7705 29.3242 27.5713 29.8515 27.4365C30.3789 27.3018 30.9677 27.2344 31.6181 27.2344H33.5078ZM41.3958 31.8398C41.7825 31.8398 42.1399 31.7607 42.468 31.6025C42.7962 31.4443 43.0657 31.2275 43.2766 30.9521C43.4876 30.6709 43.6077 30.3516 43.637 29.9941H45.1839C45.1546 30.5566 44.9641 31.0811 44.6126 31.5674C44.2669 32.0479 43.8128 32.4375 43.2503 32.7363C42.6878 33.0293 42.0696 33.1758 41.3958 33.1758C40.6809 33.1758 40.0569 33.0498 39.5237 32.7979C38.9964 32.5459 38.5569 32.2002 38.2054 31.7607C37.8596 31.3213 37.5989 30.8174 37.4231 30.249C37.2532 29.6748 37.1682 29.0684 37.1682 28.4297V28.0605C37.1682 27.4219 37.2532 26.8184 37.4231 26.25C37.5989 25.6758 37.8596 25.1689 38.2054 24.7295C38.5569 24.29 38.9964 23.9443 39.5237 23.6924C40.0569 23.4404 40.6809 23.3145 41.3958 23.3145C42.1399 23.3145 42.7903 23.4668 43.347 23.7715C43.9036 24.0703 44.3401 24.4805 44.6565 25.002C44.9788 25.5176 45.1546 26.1035 45.1839 26.7598H43.637C43.6077 26.3672 43.4964 26.0127 43.303 25.6963C43.1155 25.3799 42.8577 25.1279 42.5296 24.9404C42.2073 24.7471 41.8294 24.6504 41.3958 24.6504C40.8977 24.6504 40.4788 24.75 40.1389 24.9492C39.805 25.1426 39.5384 25.4062 39.3391 25.7402C39.1458 26.0684 39.0052 26.4346 38.9173 26.8389C38.8352 27.2373 38.7942 27.6445 38.7942 28.0605V28.4297C38.7942 28.8457 38.8352 29.2559 38.9173 29.6602C38.9993 30.0645 39.137 30.4307 39.3304 30.7588C39.5296 31.0869 39.7962 31.3506 40.1302 31.5498C40.47 31.7432 40.8919 31.8398 41.3958 31.8398ZM48.9586 19.5V33H47.3238V19.5H48.9586ZM55.6952 33.1758C55.0331 33.1758 54.4325 33.0645 53.8935 32.8418C53.3603 32.6133 52.9003 32.2939 52.5136 31.8838C52.1327 31.4736 51.8398 30.9873 51.6347 30.4248C51.4296 29.8623 51.3271 29.2471 51.3271 28.5791V28.21C51.3271 27.4365 51.4413 26.748 51.6698 26.1445C51.8984 25.5352 52.2089 25.0195 52.6015 24.5977C52.9941 24.1758 53.4394 23.8564 53.9374 23.6396C54.4355 23.4229 54.9511 23.3145 55.4843 23.3145C56.164 23.3145 56.7499 23.4316 57.2421 23.666C57.7402 23.9004 58.1474 24.2285 58.4638 24.6504C58.7802 25.0664 59.0146 25.5586 59.1669 26.127C59.3193 26.6895 59.3954 27.3047 59.3954 27.9727V28.7021H52.2939V27.375H57.7695V27.252C57.746 26.8301 57.6581 26.4199 57.5058 26.0215C57.3593 25.623 57.1249 25.2949 56.8027 25.0371C56.4804 24.7793 56.0409 24.6504 55.4843 24.6504C55.1152 24.6504 54.7753 24.7295 54.4648 24.8877C54.1542 25.04 53.8876 25.2686 53.665 25.5732C53.4423 25.8779 53.2695 26.25 53.1464 26.6895C53.0234 27.1289 52.9618 27.6357 52.9618 28.21V28.5791C52.9618 29.0303 53.0234 29.4551 53.1464 29.8535C53.2753 30.2461 53.4599 30.5918 53.7001 30.8906C53.9462 31.1895 54.2421 31.4238 54.5878 31.5938C54.9394 31.7637 55.3378 31.8486 55.7831 31.8486C56.3573 31.8486 56.8437 31.7314 57.2421 31.4971C57.6405 31.2627 57.9892 30.9492 58.288 30.5566L59.2724 31.3389C59.0673 31.6494 58.8066 31.9453 58.4902 32.2266C58.1738 32.5078 57.7841 32.7363 57.3212 32.9121C56.8642 33.0879 56.3222 33.1758 55.6952 33.1758ZM73.1851 29.7656C73.1851 29.4668 73.1382 29.2031 73.0445 28.9746C72.9566 28.7402 72.7984 28.5293 72.5699 28.3418C72.3472 28.1543 72.0367 27.9756 71.6382 27.8057C71.2457 27.6357 70.7476 27.4629 70.1441 27.2871C69.5113 27.0996 68.94 26.8916 68.4302 26.6631C67.9205 26.4287 67.4839 26.1621 67.1207 25.8633C66.7574 25.5645 66.4791 25.2217 66.2857 24.835C66.0923 24.4482 65.9957 24.0059 65.9957 23.5078C65.9957 23.0098 66.0982 22.5498 66.3033 22.1279C66.5084 21.7061 66.8013 21.3398 67.1822 21.0293C67.5689 20.7129 68.0289 20.4668 68.5621 20.291C69.0953 20.1152 69.69 20.0273 70.3463 20.0273C71.3072 20.0273 72.1216 20.2119 72.7896 20.5811C73.4634 20.9443 73.9761 21.4219 74.3277 22.0137C74.6793 22.5996 74.855 23.2266 74.855 23.8945H73.1675C73.1675 23.4141 73.065 22.9893 72.8599 22.6201C72.6548 22.2451 72.3443 21.9521 71.9283 21.7412C71.5123 21.5244 70.9849 21.416 70.3463 21.416C69.7427 21.416 69.2447 21.5068 68.8521 21.6885C68.4595 21.8701 68.1666 22.1162 67.9732 22.4268C67.7857 22.7373 67.692 23.0918 67.692 23.4902C67.692 23.7598 67.7476 24.0059 67.8589 24.2285C67.9761 24.4453 68.1548 24.6475 68.3951 24.835C68.6412 25.0225 68.9517 25.1953 69.3267 25.3535C69.7076 25.5117 70.1617 25.6641 70.689 25.8105C71.4156 26.0156 72.0425 26.2441 72.5699 26.4961C73.0972 26.748 73.5308 27.0322 73.8707 27.3486C74.2164 27.6592 74.4713 28.0137 74.6353 28.4121C74.8052 28.8047 74.8902 29.25 74.8902 29.748C74.8902 30.2695 74.7847 30.7412 74.5738 31.1631C74.3629 31.585 74.0611 31.9453 73.6685 32.2441C73.2759 32.543 72.8043 32.7744 72.2535 32.9385C71.7086 33.0967 71.0992 33.1758 70.4254 33.1758C69.8336 33.1758 69.2505 33.0938 68.6763 32.9297C68.108 32.7656 67.5894 32.5195 67.1207 32.1914C66.6578 31.8633 66.2857 31.459 66.0045 30.9785C65.7291 30.4922 65.5914 29.9297 65.5914 29.291H67.2789C67.2789 29.7305 67.3638 30.1084 67.5338 30.4248C67.7037 30.7354 67.9351 30.9932 68.2281 31.1982C68.5269 31.4033 68.8638 31.5557 69.2388 31.6553C69.6197 31.749 70.0152 31.7959 70.4254 31.7959C71.0172 31.7959 71.5181 31.7139 71.9283 31.5498C72.3384 31.3857 72.649 31.1514 72.8599 30.8467C73.0767 30.542 73.1851 30.1816 73.1851 29.7656ZM80.9677 23.4902V24.7383H75.8261V23.4902H80.9677ZM77.5663 21.1787H79.1923V30.6445C79.1923 30.9668 79.2421 31.21 79.3417 31.374C79.4413 31.5381 79.5702 31.6465 79.7284 31.6992C79.8866 31.752 80.0565 31.7783 80.2382 31.7783C80.3729 31.7783 80.5136 31.7666 80.66 31.7432C80.8124 31.7139 80.9266 31.6904 81.0028 31.6729L81.0116 33C80.8827 33.041 80.7128 33.0791 80.5018 33.1143C80.2968 33.1553 80.0477 33.1758 79.7548 33.1758C79.3563 33.1758 78.9901 33.0967 78.6561 32.9385C78.3222 32.7803 78.0555 32.5166 77.8563 32.1475C77.663 31.7725 77.5663 31.2686 77.5663 30.6357V21.1787ZM88.6623 31.374V26.4785C88.6623 26.1035 88.5861 25.7783 88.4338 25.5029C88.2873 25.2217 88.0647 25.0049 87.7658 24.8525C87.467 24.7002 87.0979 24.624 86.6584 24.624C86.2482 24.624 85.8879 24.6943 85.5773 24.835C85.2727 24.9756 85.0324 25.1602 84.8566 25.3887C84.6867 25.6172 84.6018 25.8633 84.6018 26.127H82.9758C82.9758 25.7871 83.0637 25.4502 83.2395 25.1162C83.4152 24.7822 83.6672 24.4805 83.9953 24.2109C84.3293 23.9355 84.7277 23.7188 85.1906 23.5605C85.6594 23.3965 86.1809 23.3145 86.7551 23.3145C87.4465 23.3145 88.0559 23.4316 88.5832 23.666C89.1164 23.9004 89.5324 24.2549 89.8313 24.7295C90.1359 25.1982 90.2883 25.7871 90.2883 26.4961V30.9258C90.2883 31.2422 90.3147 31.5791 90.3674 31.9365C90.426 32.2939 90.5109 32.6016 90.6223 32.8594V33H88.926C88.8439 32.8125 88.7795 32.5635 88.7326 32.2529C88.6857 31.9365 88.6623 31.6436 88.6623 31.374ZM88.9436 27.2344L88.9611 28.377H87.3176C86.8547 28.377 86.4416 28.415 86.0783 28.4912C85.715 28.5615 85.4104 28.6699 85.1643 28.8164C84.9182 28.9629 84.7307 29.1475 84.6018 29.3701C84.4729 29.5869 84.4084 29.8418 84.4084 30.1348C84.4084 30.4336 84.4758 30.7061 84.6105 30.9521C84.7453 31.1982 84.9475 31.3945 85.217 31.541C85.4924 31.6816 85.8293 31.752 86.2277 31.752C86.7258 31.752 87.1652 31.6465 87.5461 31.4355C87.927 31.2246 88.2287 30.9668 88.4514 30.6621C88.6799 30.3574 88.8029 30.0615 88.8205 29.7744L89.5148 30.5566C89.4738 30.8027 89.3625 31.0752 89.1809 31.374C88.9992 31.6729 88.7561 31.96 88.4514 32.2354C88.1525 32.5049 87.7951 32.7305 87.3791 32.9121C86.9689 33.0879 86.5061 33.1758 85.9904 33.1758C85.3459 33.1758 84.7805 33.0498 84.2941 32.7979C83.8137 32.5459 83.4387 32.209 83.1691 31.7871C82.9055 31.3594 82.7736 30.8818 82.7736 30.3545C82.7736 29.8447 82.8732 29.3965 83.0725 29.0098C83.2717 28.6172 83.5588 28.292 83.9338 28.0342C84.3088 27.7705 84.76 27.5713 85.2873 27.4365C85.8147 27.3018 86.4035 27.2344 87.0539 27.2344H88.9436ZM94.6519 24.9844V33H93.0259V23.4902H94.6079L94.6519 24.9844ZM97.6226 23.4375L97.6138 24.9492C97.479 24.9199 97.3501 24.9023 97.2271 24.8965C97.1099 24.8848 96.9751 24.8789 96.8228 24.8789C96.4478 24.8789 96.1167 24.9375 95.8296 25.0547C95.5425 25.1719 95.2993 25.3359 95.1001 25.5469C94.9009 25.7578 94.7427 26.0098 94.6255 26.3027C94.5142 26.5898 94.4409 26.9062 94.4058 27.252L93.9488 27.5156C93.9488 26.9414 94.0044 26.4023 94.1157 25.8984C94.2329 25.3945 94.4116 24.9492 94.6519 24.5625C94.8921 24.1699 95.1968 23.8652 95.5659 23.6484C95.9409 23.4258 96.3863 23.3145 96.9019 23.3145C97.0191 23.3145 97.1538 23.3291 97.3062 23.3584C97.4585 23.3818 97.564 23.4082 97.6226 23.4375ZM103.726 23.4902V24.7383H98.5848V23.4902H103.726ZM100.325 21.1787H101.951V30.6445C101.951 30.9668 102.001 31.21 102.1 31.374C102.2 31.5381 102.329 31.6465 102.487 31.6992C102.645 31.752 102.815 31.7783 102.997 31.7783C103.132 31.7783 103.272 31.7666 103.419 31.7432C103.571 31.7139 103.685 31.6904 103.762 31.6729L103.77 33C103.641 33.041 103.472 33.0791 103.261 33.1143C103.056 33.1553 102.806 33.1758 102.514 33.1758C102.115 33.1758 101.749 33.0967 101.415 32.9385C101.081 32.7803 100.814 32.5166 100.615 32.1475C100.422 31.7725 100.325 31.2686 100.325 30.6357V21.1787ZM109.76 33.1758C109.098 33.1758 108.497 33.0645 107.958 32.8418C107.425 32.6133 106.965 32.2939 106.578 31.8838C106.197 31.4736 105.904 30.9873 105.699 30.4248C105.494 29.8623 105.392 29.2471 105.392 28.5791V28.21C105.392 27.4365 105.506 26.748 105.735 26.1445C105.963 25.5352 106.274 25.0195 106.666 24.5977C107.059 24.1758 107.504 23.8564 108.002 23.6396C108.5 23.4229 109.016 23.3145 109.549 23.3145C110.229 23.3145 110.815 23.4316 111.307 23.666C111.805 23.9004 112.212 24.2285 112.528 24.6504C112.845 25.0664 113.079 25.5586 113.232 26.127C113.384 26.6895 113.46 27.3047 113.46 27.9727V28.7021H106.359V27.375H111.834V27.252C111.811 26.8301 111.723 26.4199 111.57 26.0215C111.424 25.623 111.19 25.2949 110.867 25.0371C110.545 24.7793 110.106 24.6504 109.549 24.6504C109.18 24.6504 108.84 24.7295 108.529 24.8877C108.219 25.04 107.952 25.2686 107.73 25.5732C107.507 25.8779 107.334 26.25 107.211 26.6895C107.088 27.1289 107.027 27.6357 107.027 28.21V28.5791C107.027 29.0303 107.088 29.4551 107.211 29.8535C107.34 30.2461 107.525 30.5918 107.765 30.8906C108.011 31.1895 108.307 31.4238 108.652 31.5938C109.004 31.7637 109.402 31.8486 109.848 31.8486C110.422 31.8486 110.908 31.7314 111.307 31.4971C111.705 31.2627 112.054 30.9492 112.353 30.5566L113.337 31.3389C113.132 31.6494 112.871 31.9453 112.555 32.2266C112.238 32.5078 111.849 32.7363 111.386 32.9121C110.929 33.0879 110.387 33.1758 109.76 33.1758ZM117.165 24.9844V33H115.539V23.4902H117.121L117.165 24.9844ZM120.135 23.4375L120.126 24.9492C119.992 24.9199 119.863 24.9023 119.74 24.8965C119.623 24.8848 119.488 24.8789 119.335 24.8789C118.96 24.8789 118.629 24.9375 118.342 25.0547C118.055 25.1719 117.812 25.3359 117.613 25.5469C117.414 25.7578 117.255 26.0098 117.138 26.3027C117.027 26.5898 116.954 26.9062 116.918 27.252L116.461 27.5156C116.461 26.9414 116.517 26.4023 116.628 25.8984C116.746 25.3945 116.924 24.9492 117.165 24.5625C117.405 24.1699 117.709 23.8652 118.079 23.6484C118.454 23.4258 118.899 23.3145 119.415 23.3145C119.532 23.3145 119.666 23.3291 119.819 23.3584C119.971 23.3818 120.077 23.4082 120.135 23.4375ZM128.405 20.2031V33H126.709V20.2031H128.405ZM136.131 20.2031L130.814 26.1709L127.825 29.2734L127.544 27.4629L129.794 24.9844L134.092 20.2031H136.131ZM134.496 33L129.759 26.7598L130.77 25.415L136.518 33H134.496ZM139.712 23.4902V33H138.078V23.4902H139.712ZM137.955 20.9678C137.955 20.7041 138.034 20.4814 138.192 20.2998C138.356 20.1182 138.596 20.0273 138.913 20.0273C139.223 20.0273 139.46 20.1182 139.624 20.2998C139.794 20.4814 139.879 20.7041 139.879 20.9678C139.879 21.2197 139.794 21.4365 139.624 21.6182C139.46 21.7939 139.223 21.8818 138.913 21.8818C138.596 21.8818 138.356 21.7939 138.192 21.6182C138.034 21.4365 137.955 21.2197 137.955 20.9678ZM146.484 23.4902V24.7383H141.343V23.4902H146.484ZM143.083 21.1787H144.709V30.6445C144.709 30.9668 144.759 31.21 144.858 31.374C144.958 31.5381 145.087 31.6465 145.245 31.6992C145.403 31.752 145.573 31.7783 145.755 31.7783C145.889 31.7783 146.03 31.7666 146.177 31.7432C146.329 31.7139 146.443 31.6904 146.519 31.6729L146.528 33C146.399 33.041 146.229 33.0791 146.018 33.1143C145.813 33.1553 145.564 33.1758 145.271 33.1758C144.873 33.1758 144.507 33.0967 144.173 32.9385C143.839 32.7803 143.572 32.5166 143.373 32.1475C143.179 31.7725 143.083 31.2686 143.083 30.6357V21.1787Z" fill="#6C7C95"/>
</svg>
