<svg width="116" height="10" viewBox="0 0 116 10" fill="none" xmlns="http://www.w3.org/2000/svg">
<path d="M5.53711 6.84375C5.53711 6.64453 5.50586 6.46875 5.44336 6.31641C5.38477 6.16016 5.2793 6.01953 5.12695 5.89453C4.97852 5.76953 4.77148 5.65039 4.50586 5.53711C4.24414 5.42383 3.91211 5.30859 3.50977 5.19141C3.08789 5.06641 2.70703 4.92773 2.36719 4.77539C2.02734 4.61914 1.73633 4.44141 1.49414 4.24219C1.25195 4.04297 1.06641 3.81445 0.9375 3.55664C0.808594 3.29883 0.744141 3.00391 0.744141 2.67188C0.744141 2.33984 0.8125 2.0332 0.949219 1.75195C1.08594 1.4707 1.28125 1.22656 1.53516 1.01953C1.79297 0.808594 2.09961 0.644531 2.45508 0.527344C2.81055 0.410156 3.20703 0.351562 3.64453 0.351562C4.28516 0.351562 4.82812 0.474609 5.27344 0.720703C5.72266 0.962891 6.06445 1.28125 6.29883 1.67578C6.5332 2.06641 6.65039 2.48438 6.65039 2.92969H5.52539C5.52539 2.60938 5.45703 2.32617 5.32031 2.08008C5.18359 1.83008 4.97656 1.63477 4.69922 1.49414C4.42188 1.34961 4.07031 1.27734 3.64453 1.27734C3.24219 1.27734 2.91016 1.33789 2.64844 1.45898C2.38672 1.58008 2.19141 1.74414 2.0625 1.95117C1.9375 2.1582 1.875 2.39453 1.875 2.66016C1.875 2.83984 1.91211 3.00391 1.98633 3.15234C2.06445 3.29688 2.18359 3.43164 2.34375 3.55664C2.50781 3.68164 2.71484 3.79688 2.96484 3.90234C3.21875 4.00781 3.52148 4.10938 3.87305 4.20703C4.35742 4.34375 4.77539 4.49609 5.12695 4.66406C5.47852 4.83203 5.76758 5.02148 5.99414 5.23242C6.22461 5.43945 6.39453 5.67578 6.50391 5.94141C6.61719 6.20312 6.67383 6.5 6.67383 6.83203C6.67383 7.17969 6.60352 7.49414 6.46289 7.77539C6.32227 8.05664 6.12109 8.29688 5.85938 8.49609C5.59766 8.69531 5.2832 8.84961 4.91602 8.95898C4.55273 9.06445 4.14648 9.11719 3.69727 9.11719C3.30273 9.11719 2.91406 9.0625 2.53125 8.95312C2.15234 8.84375 1.80664 8.67969 1.49414 8.46094C1.18555 8.24219 0.9375 7.97266 0.75 7.65234C0.566406 7.32812 0.474609 6.95312 0.474609 6.52734H1.59961C1.59961 6.82031 1.65625 7.07227 1.76953 7.2832C1.88281 7.49023 2.03711 7.66211 2.23242 7.79883C2.43164 7.93555 2.65625 8.03711 2.90625 8.10352C3.16016 8.16602 3.42383 8.19727 3.69727 8.19727C4.0918 8.19727 4.42578 8.14258 4.69922 8.0332C4.97266 7.92383 5.17969 7.76758 5.32031 7.56445C5.46484 7.36133 5.53711 7.12109 5.53711 6.84375ZM9.64609 0.46875V9H8.51523V0.46875H9.64609ZM14.7965 0.46875L11.2516 4.44727L9.25938 6.51562L9.07188 5.30859L10.5719 3.65625L13.4371 0.46875H14.7965ZM13.7066 9L10.5484 4.83984L11.2223 3.94336L15.0543 9H13.7066ZM21.3313 0.46875H22.4563V6.24023C22.4563 6.88086 22.3137 7.41406 22.0285 7.83984C21.7434 8.26562 21.3645 8.58594 20.8918 8.80078C20.423 9.01172 19.9133 9.11719 19.3625 9.11719C18.7844 9.11719 18.2609 9.01172 17.7922 8.80078C17.3273 8.58594 16.9582 8.26562 16.6848 7.83984C16.4152 7.41406 16.2805 6.88086 16.2805 6.24023V0.46875H17.3996V6.24023C17.3996 6.68555 17.4816 7.05273 17.6457 7.3418C17.8098 7.63086 18.0383 7.8457 18.3313 7.98633C18.6281 8.12695 18.9719 8.19727 19.3625 8.19727C19.757 8.19727 20.1008 8.12695 20.3938 7.98633C20.6906 7.8457 20.9211 7.63086 21.0852 7.3418C21.2492 7.05273 21.3313 6.68555 21.3313 6.24023V0.46875ZM24.4207 8.42578C24.4207 8.24219 24.4773 8.08789 24.5906 7.96289C24.7078 7.83398 24.8758 7.76953 25.0945 7.76953C25.3133 7.76953 25.4793 7.83398 25.5926 7.96289C25.7098 8.08789 25.7684 8.24219 25.7684 8.42578C25.7684 8.60547 25.7098 8.75781 25.5926 8.88281C25.4793 9.00781 25.3133 9.07031 25.0945 9.07031C24.8758 9.07031 24.7078 9.00781 24.5906 8.88281C24.4773 8.75781 24.4207 8.60547 24.4207 8.42578ZM24.4266 3.25195C24.4266 3.06836 24.4832 2.91406 24.5965 2.78906C24.7137 2.66016 24.8816 2.5957 25.1004 2.5957C25.3191 2.5957 25.4852 2.66016 25.5984 2.78906C25.7156 2.91406 25.7742 3.06836 25.7742 3.25195C25.7742 3.43164 25.7156 3.58398 25.5984 3.70898C25.4852 3.83398 25.3191 3.89648 25.1004 3.89648C24.8816 3.89648 24.7137 3.83398 24.5965 3.70898C24.4832 3.58398 24.4266 3.43164 24.4266 3.25195ZM36.623 8.10938V9H31.0391V8.2207L33.834 5.10938C34.1777 4.72656 34.4434 4.40234 34.6309 4.13672C34.8223 3.86719 34.9551 3.62695 35.0293 3.41602C35.1074 3.20117 35.1465 2.98242 35.1465 2.75977C35.1465 2.47852 35.0879 2.22461 34.9707 1.99805C34.8574 1.76758 34.6895 1.58398 34.4668 1.44727C34.2441 1.31055 33.9746 1.24219 33.6582 1.24219C33.2793 1.24219 32.9629 1.31641 32.709 1.46484C32.459 1.60938 32.2715 1.8125 32.1465 2.07422C32.0215 2.33594 31.959 2.63672 31.959 2.97656H30.875C30.875 2.49609 30.9805 2.05664 31.1914 1.6582C31.4023 1.25977 31.7148 0.943359 32.1289 0.708984C32.543 0.470703 33.0527 0.351562 33.6582 0.351562C34.1973 0.351562 34.6582 0.447266 35.041 0.638672C35.4238 0.826172 35.7168 1.0918 35.9199 1.43555C36.127 1.77539 36.2305 2.17383 36.2305 2.63086C36.2305 2.88086 36.1875 3.13477 36.1016 3.39258C36.0195 3.64648 35.9043 3.90039 35.7559 4.1543C35.6113 4.4082 35.4414 4.6582 35.2461 4.9043C35.0547 5.15039 34.8496 5.39258 34.6309 5.63086L32.3457 8.10938H36.623ZM39.7652 4.20117H40.5387C40.9176 4.20117 41.2301 4.13867 41.4762 4.01367C41.7262 3.88477 41.9117 3.71094 42.0328 3.49219C42.1578 3.26953 42.2203 3.01953 42.2203 2.74219C42.2203 2.41406 42.1656 2.13867 42.0563 1.91602C41.9469 1.69336 41.7828 1.52539 41.5641 1.41211C41.3453 1.29883 41.068 1.24219 40.732 1.24219C40.4273 1.24219 40.1578 1.30273 39.9234 1.42383C39.693 1.54102 39.5113 1.70898 39.3785 1.92773C39.2496 2.14648 39.1852 2.4043 39.1852 2.70117H38.1012C38.1012 2.26758 38.2105 1.87305 38.4293 1.51758C38.648 1.16211 38.9547 0.878906 39.3492 0.667969C39.7477 0.457031 40.2086 0.351562 40.732 0.351562C41.2477 0.351562 41.6988 0.443359 42.0855 0.626953C42.4723 0.806641 42.773 1.07617 42.9879 1.43555C43.2027 1.79102 43.3102 2.23438 43.3102 2.76562C43.3102 2.98047 43.2594 3.21094 43.1578 3.45703C43.0602 3.69922 42.9059 3.92578 42.6949 4.13672C42.4879 4.34766 42.2184 4.52148 41.8863 4.6582C41.5543 4.79102 41.1559 4.85742 40.691 4.85742H39.7652V4.20117ZM39.7652 5.0918V4.44141H40.691C41.234 4.44141 41.6832 4.50586 42.0387 4.63477C42.3941 4.76367 42.6734 4.93555 42.8766 5.15039C43.0836 5.36523 43.2281 5.60156 43.3102 5.85938C43.3961 6.11328 43.4391 6.36719 43.4391 6.62109C43.4391 7.01953 43.3707 7.37305 43.234 7.68164C43.1012 7.99023 42.9117 8.25195 42.6656 8.4668C42.4234 8.68164 42.1383 8.84375 41.8102 8.95312C41.482 9.0625 41.1246 9.11719 40.7379 9.11719C40.3668 9.11719 40.0172 9.06445 39.6891 8.95898C39.3648 8.85352 39.0777 8.70117 38.8277 8.50195C38.5777 8.29883 38.3824 8.05078 38.2418 7.75781C38.1012 7.46094 38.0309 7.12305 38.0309 6.74414H39.1148C39.1148 7.04102 39.1793 7.30078 39.3082 7.52344C39.441 7.74609 39.6285 7.91992 39.8707 8.04492C40.1168 8.16602 40.4059 8.22656 40.7379 8.22656C41.0699 8.22656 41.3551 8.16992 41.5934 8.05664C41.8355 7.93945 42.0211 7.76367 42.15 7.5293C42.2828 7.29492 42.3492 7 42.3492 6.64453C42.3492 6.28906 42.275 5.99805 42.1266 5.77148C41.9781 5.54102 41.7672 5.37109 41.4938 5.26172C41.2242 5.14844 40.9059 5.0918 40.5387 5.0918H39.7652ZM46.7043 4.93945L45.8371 4.7168L46.2648 0.46875H50.6418V1.4707H47.1848L46.927 3.79102C47.0832 3.70117 47.2805 3.61719 47.5187 3.53906C47.7609 3.46094 48.0383 3.42188 48.3508 3.42188C48.7453 3.42188 49.0988 3.49023 49.4113 3.62695C49.7238 3.75977 49.9895 3.95117 50.2082 4.20117C50.4309 4.45117 50.6008 4.75195 50.718 5.10352C50.8352 5.45508 50.8937 5.84766 50.8937 6.28125C50.8937 6.69141 50.8371 7.06836 50.7238 7.41211C50.6145 7.75586 50.4484 8.05664 50.2258 8.31445C50.0031 8.56836 49.7219 8.76562 49.382 8.90625C49.0461 9.04688 48.6496 9.11719 48.1926 9.11719C47.8488 9.11719 47.5227 9.07031 47.2141 8.97656C46.9094 8.87891 46.6359 8.73242 46.3937 8.53711C46.1555 8.33789 45.9602 8.0918 45.8078 7.79883C45.6594 7.50195 45.5656 7.1543 45.5266 6.75586H46.5578C46.6047 7.07617 46.6984 7.3457 46.8391 7.56445C46.9797 7.7832 47.1633 7.94922 47.3898 8.0625C47.6203 8.17188 47.8879 8.22656 48.1926 8.22656C48.4504 8.22656 48.6789 8.18164 48.8781 8.0918C49.0773 8.00195 49.2453 7.87305 49.382 7.70508C49.5187 7.53711 49.6223 7.33398 49.6926 7.0957C49.7668 6.85742 49.8039 6.58984 49.8039 6.29297C49.8039 6.02344 49.7668 5.77344 49.6926 5.54297C49.6184 5.3125 49.507 5.11133 49.3586 4.93945C49.2141 4.76758 49.0363 4.63477 48.8254 4.54102C48.6145 4.44336 48.3723 4.39453 48.0988 4.39453C47.7355 4.39453 47.4602 4.44336 47.2727 4.54102C47.0891 4.63867 46.8996 4.77148 46.7043 4.93945ZM57.8621 6.69141C57.8621 7.21094 57.741 7.65234 57.4988 8.01562C57.2605 8.375 56.9363 8.64844 56.5262 8.83594C56.1199 9.02344 55.6609 9.11719 55.1492 9.11719C54.6375 9.11719 54.1766 9.02344 53.7664 8.83594C53.3563 8.64844 53.032 8.375 52.7938 8.01562C52.5555 7.65234 52.4363 7.21094 52.4363 6.69141C52.4363 6.35156 52.5008 6.04102 52.6297 5.75977C52.7625 5.47461 52.948 5.22656 53.1863 5.01562C53.4285 4.80469 53.7137 4.64258 54.0418 4.5293C54.3738 4.41211 54.7391 4.35352 55.1375 4.35352C55.6609 4.35352 56.1277 4.45508 56.5379 4.6582C56.948 4.85742 57.2703 5.13281 57.5047 5.48438C57.743 5.83594 57.8621 6.23828 57.8621 6.69141ZM56.7723 6.66797C56.7723 6.35156 56.7039 6.07227 56.5672 5.83008C56.4305 5.58398 56.2391 5.39258 55.993 5.25586C55.7469 5.11914 55.4617 5.05078 55.1375 5.05078C54.8055 5.05078 54.5184 5.11914 54.2762 5.25586C54.0379 5.39258 53.8523 5.58398 53.7195 5.83008C53.5867 6.07227 53.5203 6.35156 53.5203 6.66797C53.5203 6.99609 53.5848 7.27734 53.7137 7.51172C53.8465 7.74219 54.034 7.91992 54.2762 8.04492C54.5223 8.16602 54.8133 8.22656 55.1492 8.22656C55.4852 8.22656 55.7742 8.16602 56.0164 8.04492C56.2586 7.91992 56.4441 7.74219 56.573 7.51172C56.7059 7.27734 56.7723 6.99609 56.7723 6.66797ZM57.6629 2.68945C57.6629 3.10352 57.5535 3.47656 57.3348 3.80859C57.116 4.14062 56.8172 4.40234 56.4383 4.59375C56.0594 4.78516 55.6297 4.88086 55.1492 4.88086C54.6609 4.88086 54.2254 4.78516 53.8426 4.59375C53.4637 4.40234 53.1668 4.14062 52.952 3.80859C52.7371 3.47656 52.6297 3.10352 52.6297 2.68945C52.6297 2.19336 52.7371 1.77148 52.952 1.42383C53.1707 1.07617 53.4695 0.810547 53.8484 0.626953C54.2273 0.443359 54.659 0.351562 55.1434 0.351562C55.6316 0.351562 56.0652 0.443359 56.4441 0.626953C56.823 0.810547 57.1199 1.07617 57.3348 1.42383C57.5535 1.77148 57.6629 2.19336 57.6629 2.68945ZM56.5789 2.70703C56.5789 2.42188 56.5184 2.16992 56.3973 1.95117C56.2762 1.73242 56.1082 1.56055 55.8934 1.43555C55.6785 1.30664 55.4285 1.24219 55.1434 1.24219C54.8582 1.24219 54.6082 1.30273 54.3934 1.42383C54.1824 1.54102 54.0164 1.70898 53.8953 1.92773C53.7781 2.14648 53.7195 2.40625 53.7195 2.70703C53.7195 3 53.7781 3.25586 53.8953 3.47461C54.0164 3.69336 54.1844 3.86328 54.3992 3.98438C54.6141 4.10547 54.8641 4.16602 55.1492 4.16602C55.4344 4.16602 55.6824 4.10547 55.8934 3.98438C56.1082 3.86328 56.2762 3.69336 56.3973 3.47461C56.5184 3.25586 56.5789 3 56.5789 2.70703ZM60.7113 8.0918H60.8227C61.4477 8.0918 61.9555 8.00391 62.3461 7.82812C62.7367 7.65234 63.0375 7.41602 63.2484 7.11914C63.4594 6.82227 63.6039 6.48828 63.682 6.11719C63.7602 5.74219 63.7992 5.35742 63.7992 4.96289V3.65625C63.7992 3.26953 63.7543 2.92578 63.6645 2.625C63.5785 2.32422 63.4574 2.07227 63.3012 1.86914C63.1488 1.66602 62.975 1.51172 62.7797 1.40625C62.5844 1.30078 62.3773 1.24805 62.1586 1.24805C61.9086 1.24805 61.684 1.29883 61.4848 1.40039C61.2895 1.49805 61.1234 1.63672 60.9867 1.81641C60.8539 1.99609 60.7523 2.20703 60.682 2.44922C60.6117 2.69141 60.5766 2.95508 60.5766 3.24023C60.5766 3.49414 60.6078 3.74023 60.6703 3.97852C60.7328 4.2168 60.8285 4.43164 60.9574 4.62305C61.0863 4.81445 61.2465 4.9668 61.4379 5.08008C61.6332 5.18945 61.8617 5.24414 62.1234 5.24414C62.3656 5.24414 62.5922 5.19727 62.8031 5.10352C63.018 5.00586 63.2074 4.875 63.3715 4.71094C63.5395 4.54297 63.6723 4.35352 63.7699 4.14258C63.8715 3.93164 63.9301 3.71094 63.9457 3.48047H64.4613C64.4613 3.80469 64.3969 4.125 64.268 4.44141C64.143 4.75391 63.9672 5.03906 63.7406 5.29688C63.5141 5.55469 63.2484 5.76172 62.9437 5.91797C62.6391 6.07031 62.307 6.14648 61.9477 6.14648C61.5258 6.14648 61.1605 6.06445 60.852 5.90039C60.5434 5.73633 60.2895 5.51758 60.0902 5.24414C59.8949 4.9707 59.7484 4.66602 59.6508 4.33008C59.557 3.99023 59.5102 3.64648 59.5102 3.29883C59.5102 2.89258 59.5668 2.51172 59.6801 2.15625C59.7934 1.80078 59.9613 1.48828 60.184 1.21875C60.4066 0.945312 60.682 0.732422 61.0102 0.580078C61.3422 0.427734 61.725 0.351562 62.1586 0.351562C62.6469 0.351562 63.0629 0.449219 63.4066 0.644531C63.7504 0.839844 64.0297 1.10156 64.2445 1.42969C64.4633 1.75781 64.6234 2.12695 64.725 2.53711C64.8266 2.94727 64.8773 3.36914 64.8773 3.80273V4.19531C64.8773 4.63672 64.848 5.08594 64.7895 5.54297C64.7348 5.99609 64.6273 6.42969 64.4672 6.84375C64.3109 7.25781 64.0824 7.62891 63.7816 7.95703C63.4809 8.28125 63.0883 8.53906 62.6039 8.73047C62.1234 8.91797 61.5297 9.01172 60.8227 9.01172H60.7113V8.0918ZM72.1621 6.69141C72.1621 7.21094 72.041 7.65234 71.7988 8.01562C71.5605 8.375 71.2363 8.64844 70.8262 8.83594C70.4199 9.02344 69.9609 9.11719 69.4492 9.11719C68.9375 9.11719 68.4766 9.02344 68.0664 8.83594C67.6562 8.64844 67.332 8.375 67.0938 8.01562C66.8555 7.65234 66.7363 7.21094 66.7363 6.69141C66.7363 6.35156 66.8008 6.04102 66.9297 5.75977C67.0625 5.47461 67.248 5.22656 67.4863 5.01562C67.7285 4.80469 68.0137 4.64258 68.3418 4.5293C68.6738 4.41211 69.0391 4.35352 69.4375 4.35352C69.9609 4.35352 70.4277 4.45508 70.8379 4.6582C71.248 4.85742 71.5703 5.13281 71.8047 5.48438C72.043 5.83594 72.1621 6.23828 72.1621 6.69141ZM71.0723 6.66797C71.0723 6.35156 71.0039 6.07227 70.8672 5.83008C70.7305 5.58398 70.5391 5.39258 70.293 5.25586C70.0469 5.11914 69.7617 5.05078 69.4375 5.05078C69.1055 5.05078 68.8184 5.11914 68.5762 5.25586C68.3379 5.39258 68.1523 5.58398 68.0195 5.83008C67.8867 6.07227 67.8203 6.35156 67.8203 6.66797C67.8203 6.99609 67.8848 7.27734 68.0137 7.51172C68.1465 7.74219 68.334 7.91992 68.5762 8.04492C68.8223 8.16602 69.1133 8.22656 69.4492 8.22656C69.7852 8.22656 70.0742 8.16602 70.3164 8.04492C70.5586 7.91992 70.7441 7.74219 70.873 7.51172C71.0059 7.27734 71.0723 6.99609 71.0723 6.66797ZM71.9629 2.68945C71.9629 3.10352 71.8535 3.47656 71.6348 3.80859C71.416 4.14062 71.1172 4.40234 70.7383 4.59375C70.3594 4.78516 69.9297 4.88086 69.4492 4.88086C68.9609 4.88086 68.5254 4.78516 68.1426 4.59375C67.7637 4.40234 67.4668 4.14062 67.252 3.80859C67.0371 3.47656 66.9297 3.10352 66.9297 2.68945C66.9297 2.19336 67.0371 1.77148 67.252 1.42383C67.4707 1.07617 67.7695 0.810547 68.1484 0.626953C68.5273 0.443359 68.959 0.351562 69.4434 0.351562C69.9316 0.351562 70.3652 0.443359 70.7441 0.626953C71.123 0.810547 71.4199 1.07617 71.6348 1.42383C71.8535 1.77148 71.9629 2.19336 71.9629 2.68945ZM70.8789 2.70703C70.8789 2.42188 70.8184 2.16992 70.6973 1.95117C70.5762 1.73242 70.4082 1.56055 70.1934 1.43555C69.9785 1.30664 69.7285 1.24219 69.4434 1.24219C69.1582 1.24219 68.9082 1.30273 68.6934 1.42383C68.4824 1.54102 68.3164 1.70898 68.1953 1.92773C68.0781 2.14648 68.0195 2.40625 68.0195 2.70703C68.0195 3 68.0781 3.25586 68.1953 3.47461C68.3164 3.69336 68.4844 3.86328 68.6992 3.98438C68.9141 4.10547 69.1641 4.16602 69.4492 4.16602C69.7344 4.16602 69.9824 4.10547 70.1934 3.98438C70.4082 3.86328 70.5762 3.69336 70.6973 3.47461C70.8184 3.25586 70.8789 3 70.8789 2.70703ZM79.6988 6.12891V7.01953H73.5348V6.38086L77.3551 0.46875H78.2398L77.2906 2.17969L74.7652 6.12891H79.6988ZM78.5094 0.46875V9H77.4254V0.46875H78.5094ZM85.2434 0.457031H85.3371V1.37695H85.2434C84.6691 1.37695 84.1887 1.4707 83.802 1.6582C83.4152 1.8418 83.1086 2.08984 82.882 2.40234C82.6555 2.71094 82.4914 3.05859 82.3898 3.44531C82.2922 3.83203 82.2434 4.22461 82.2434 4.62305V5.87695C82.2434 6.25586 82.2883 6.5918 82.3781 6.88477C82.468 7.17383 82.591 7.41797 82.7473 7.61719C82.9035 7.81641 83.0793 7.9668 83.2746 8.06836C83.4738 8.16992 83.6809 8.2207 83.8957 8.2207C84.1457 8.2207 84.3684 8.17383 84.5637 8.08008C84.759 7.98242 84.923 7.84766 85.0559 7.67578C85.1926 7.5 85.2961 7.29297 85.3664 7.05469C85.4367 6.81641 85.4719 6.55469 85.4719 6.26953C85.4719 6.01562 85.4406 5.77148 85.3781 5.53711C85.3156 5.29883 85.2199 5.08789 85.091 4.9043C84.9621 4.7168 84.8 4.57031 84.6047 4.46484C84.4133 4.35547 84.1848 4.30078 83.9191 4.30078C83.6184 4.30078 83.3371 4.375 83.0754 4.52344C82.8176 4.66797 82.6047 4.85938 82.4367 5.09766C82.2727 5.33203 82.1789 5.58789 82.1555 5.86523L81.5813 5.85938C81.6359 5.42188 81.7375 5.04883 81.8859 4.74023C82.0383 4.42773 82.2258 4.17383 82.4484 3.97852C82.675 3.7793 82.927 3.63477 83.2043 3.54492C83.4855 3.45117 83.7824 3.4043 84.0949 3.4043C84.5207 3.4043 84.8879 3.48438 85.1965 3.64453C85.5051 3.80469 85.759 4.01953 85.9582 4.28906C86.1574 4.55469 86.3039 4.85547 86.3977 5.19141C86.4953 5.52344 86.5441 5.86523 86.5441 6.2168C86.5441 6.61914 86.4875 6.99609 86.3742 7.34766C86.2609 7.69922 86.091 8.00781 85.8645 8.27344C85.6418 8.53906 85.3664 8.74609 85.0383 8.89453C84.7102 9.04297 84.3293 9.11719 83.8957 9.11719C83.4348 9.11719 83.0324 9.02344 82.6887 8.83594C82.3449 8.64453 82.0598 8.39062 81.8332 8.07422C81.6066 7.75781 81.4367 7.40625 81.3234 7.01953C81.2102 6.63281 81.1535 6.24023 81.1535 5.8418V5.33203C81.1535 4.73047 81.2141 4.14062 81.3352 3.5625C81.4563 2.98438 81.6652 2.46094 81.9621 1.99219C82.2629 1.52344 82.6789 1.15039 83.2102 0.873047C83.7414 0.595703 84.4191 0.457031 85.2434 0.457031ZM93.9988 6.12891V7.01953H87.8348V6.38086L91.6551 0.46875H92.5398L91.5906 2.17969L89.0652 6.12891H93.9988ZM92.8094 0.46875V9H91.7254V0.46875H92.8094ZM98.9457 0.421875V9H97.8617V1.77539L95.6762 2.57227V1.59375L98.7758 0.421875H98.9457ZM106.693 0.457031H106.787V1.37695H106.693C106.119 1.37695 105.639 1.4707 105.252 1.6582C104.865 1.8418 104.559 2.08984 104.332 2.40234C104.105 2.71094 103.941 3.05859 103.84 3.44531C103.742 3.83203 103.693 4.22461 103.693 4.62305V5.87695C103.693 6.25586 103.738 6.5918 103.828 6.88477C103.918 7.17383 104.041 7.41797 104.197 7.61719C104.354 7.81641 104.529 7.9668 104.725 8.06836C104.924 8.16992 105.131 8.2207 105.346 8.2207C105.596 8.2207 105.818 8.17383 106.014 8.08008C106.209 7.98242 106.373 7.84766 106.506 7.67578C106.643 7.5 106.746 7.29297 106.816 7.05469C106.887 6.81641 106.922 6.55469 106.922 6.26953C106.922 6.01562 106.891 5.77148 106.828 5.53711C106.766 5.29883 106.67 5.08789 106.541 4.9043C106.412 4.7168 106.25 4.57031 106.055 4.46484C105.863 4.35547 105.635 4.30078 105.369 4.30078C105.068 4.30078 104.787 4.375 104.525 4.52344C104.268 4.66797 104.055 4.85938 103.887 5.09766C103.723 5.33203 103.629 5.58789 103.605 5.86523L103.031 5.85938C103.086 5.42188 103.188 5.04883 103.336 4.74023C103.488 4.42773 103.676 4.17383 103.898 3.97852C104.125 3.7793 104.377 3.63477 104.654 3.54492C104.936 3.45117 105.232 3.4043 105.545 3.4043C105.971 3.4043 106.338 3.48438 106.646 3.64453C106.955 3.80469 107.209 4.01953 107.408 4.28906C107.607 4.55469 107.754 4.85547 107.848 5.19141C107.945 5.52344 107.994 5.86523 107.994 6.2168C107.994 6.61914 107.938 6.99609 107.824 7.34766C107.711 7.69922 107.541 8.00781 107.314 8.27344C107.092 8.53906 106.816 8.74609 106.488 8.89453C106.16 9.04297 105.779 9.11719 105.346 9.11719C104.885 9.11719 104.482 9.02344 104.139 8.83594C103.795 8.64453 103.51 8.39062 103.283 8.07422C103.057 7.75781 102.887 7.40625 102.773 7.01953C102.66 6.63281 102.604 6.24023 102.604 5.8418V5.33203C102.604 4.73047 102.664 4.14062 102.785 3.5625C102.906 2.98438 103.115 2.46094 103.412 1.99219C103.713 1.52344 104.129 1.15039 104.66 0.873047C105.191 0.595703 105.869 0.457031 106.693 0.457031ZM111.054 4.93945L110.187 4.7168L110.615 0.46875H114.992V1.4707H111.535L111.277 3.79102C111.433 3.70117 111.63 3.61719 111.869 3.53906C112.111 3.46094 112.388 3.42188 112.701 3.42188C113.095 3.42188 113.449 3.49023 113.761 3.62695C114.074 3.75977 114.339 3.95117 114.558 4.20117C114.781 4.45117 114.951 4.75195 115.068 5.10352C115.185 5.45508 115.244 5.84766 115.244 6.28125C115.244 6.69141 115.187 7.06836 115.074 7.41211C114.964 7.75586 114.798 8.05664 114.576 8.31445C114.353 8.56836 114.072 8.76562 113.732 8.90625C113.396 9.04688 113 9.11719 112.543 9.11719C112.199 9.11719 111.873 9.07031 111.564 8.97656C111.259 8.87891 110.986 8.73242 110.744 8.53711C110.505 8.33789 110.31 8.0918 110.158 7.79883C110.009 7.50195 109.916 7.1543 109.877 6.75586H110.908C110.955 7.07617 111.048 7.3457 111.189 7.56445C111.33 7.7832 111.513 7.94922 111.74 8.0625C111.97 8.17188 112.238 8.22656 112.543 8.22656C112.8 8.22656 113.029 8.18164 113.228 8.0918C113.427 8.00195 113.595 7.87305 113.732 7.70508C113.869 7.53711 113.972 7.33398 114.043 7.0957C114.117 6.85742 114.154 6.58984 114.154 6.29297C114.154 6.02344 114.117 5.77344 114.043 5.54297C113.968 5.3125 113.857 5.11133 113.709 4.93945C113.564 4.76758 113.386 4.63477 113.175 4.54102C112.964 4.44336 112.722 4.39453 112.449 4.39453C112.086 4.39453 111.81 4.44336 111.623 4.54102C111.439 4.63867 111.25 4.77148 111.054 4.93945Z" fill="#43474E"/>
</svg>
